<mxfile host="65bd71144e">
    <diagram id="xWpcag5Lll-tB9wrTvut" name="Page-3">
        <mxGraphModel dx="4401" dy="3020" grid="1" gridSize="10" guides="1" tooltips="1" connect="1" arrows="1" fold="1" page="1" pageScale="1" pageWidth="850" pageHeight="1100" math="0" shadow="0">
            <root>
                <mxCell id="0"/>
                <mxCell id="1" parent="0"/>
                <mxCell id="4xDtvOxX5v2o2x7MNQAd-1" value="Users" style="shape=table;startSize=20;container=1;collapsible=1;childLayout=tableLayout;fixedRows=1;rowLines=0;fontStyle=1;align=center;resizeLast=1;" parent="1" vertex="1">
                    <mxGeometry x="-580" y="-800" width="340" height="220" as="geometry"/>
                </mxCell>
                <mxCell id="4xDtvOxX5v2o2x7MNQAd-2" value="" style="shape=partialRectangle;collapsible=0;dropTarget=0;pointerEvents=0;fillColor=none;points=[[0,0.5],[1,0.5]];portConstraint=eastwest;top=0;left=0;right=0;bottom=1;" parent="4xDtvOxX5v2o2x7MNQAd-1" vertex="1">
                    <mxGeometry y="20" width="340" height="30" as="geometry"/>
                </mxCell>
                <mxCell id="4xDtvOxX5v2o2x7MNQAd-3" value="PK" style="shape=partialRectangle;overflow=hidden;connectable=0;fillColor=none;top=0;left=0;bottom=0;right=0;fontStyle=1;" parent="4xDtvOxX5v2o2x7MNQAd-2" vertex="1">
                    <mxGeometry width="30" height="30" as="geometry">
                        <mxRectangle width="30" height="30" as="alternateBounds"/>
                    </mxGeometry>
                </mxCell>
                <mxCell id="4xDtvOxX5v2o2x7MNQAd-4" value="user_id INT NOT NULL " style="shape=partialRectangle;overflow=hidden;connectable=0;fillColor=none;top=0;left=0;bottom=0;right=0;align=left;spacingLeft=6;fontStyle=5;" parent="4xDtvOxX5v2o2x7MNQAd-2" vertex="1">
                    <mxGeometry x="30" width="310" height="30" as="geometry">
                        <mxRectangle width="310" height="30" as="alternateBounds"/>
                    </mxGeometry>
                </mxCell>
                <mxCell id="4xDtvOxX5v2o2x7MNQAd-5" value="" style="shape=partialRectangle;collapsible=0;dropTarget=0;pointerEvents=0;fillColor=none;points=[[0,0.5],[1,0.5]];portConstraint=eastwest;top=0;left=0;right=0;bottom=0;" parent="4xDtvOxX5v2o2x7MNQAd-1" vertex="1">
                    <mxGeometry y="50" width="340" height="30" as="geometry"/>
                </mxCell>
                <mxCell id="4xDtvOxX5v2o2x7MNQAd-6" value="" style="shape=partialRectangle;overflow=hidden;connectable=0;fillColor=none;top=0;left=0;bottom=0;right=0;" parent="4xDtvOxX5v2o2x7MNQAd-5" vertex="1">
                    <mxGeometry width="30" height="30" as="geometry">
                        <mxRectangle width="30" height="30" as="alternateBounds"/>
                    </mxGeometry>
                </mxCell>
                <mxCell id="4xDtvOxX5v2o2x7MNQAd-7" value="user_name TEXT NOT NULL" style="shape=partialRectangle;overflow=hidden;connectable=0;fillColor=none;top=0;left=0;bottom=0;right=0;align=left;spacingLeft=6;" parent="4xDtvOxX5v2o2x7MNQAd-5" vertex="1">
                    <mxGeometry x="30" width="310" height="30" as="geometry">
                        <mxRectangle width="310" height="30" as="alternateBounds"/>
                    </mxGeometry>
                </mxCell>
                <mxCell id="4xDtvOxX5v2o2x7MNQAd-8" value="" style="shape=partialRectangle;collapsible=0;dropTarget=0;pointerEvents=0;fillColor=none;points=[[0,0.5],[1,0.5]];portConstraint=eastwest;top=0;left=0;right=0;bottom=0;" parent="4xDtvOxX5v2o2x7MNQAd-1" vertex="1">
                    <mxGeometry y="80" width="340" height="30" as="geometry"/>
                </mxCell>
                <mxCell id="4xDtvOxX5v2o2x7MNQAd-9" value="" style="shape=partialRectangle;overflow=hidden;connectable=0;fillColor=none;top=0;left=0;bottom=0;right=0;" parent="4xDtvOxX5v2o2x7MNQAd-8" vertex="1">
                    <mxGeometry width="30" height="30" as="geometry">
                        <mxRectangle width="30" height="30" as="alternateBounds"/>
                    </mxGeometry>
                </mxCell>
                <mxCell id="4xDtvOxX5v2o2x7MNQAd-10" value="user_email TEXT NOT NULL" style="shape=partialRectangle;overflow=hidden;connectable=0;fillColor=none;top=0;left=0;bottom=0;right=0;align=left;spacingLeft=6;" parent="4xDtvOxX5v2o2x7MNQAd-8" vertex="1">
                    <mxGeometry x="30" width="310" height="30" as="geometry">
                        <mxRectangle width="310" height="30" as="alternateBounds"/>
                    </mxGeometry>
                </mxCell>
                <mxCell id="4xDtvOxX5v2o2x7MNQAd-11" value="" style="shape=partialRectangle;collapsible=0;dropTarget=0;pointerEvents=0;fillColor=none;points=[[0,0.5],[1,0.5]];portConstraint=eastwest;top=0;left=0;right=0;bottom=0;" parent="4xDtvOxX5v2o2x7MNQAd-1" vertex="1">
                    <mxGeometry y="110" width="340" height="30" as="geometry"/>
                </mxCell>
                <mxCell id="4xDtvOxX5v2o2x7MNQAd-12" value="" style="shape=partialRectangle;overflow=hidden;connectable=0;fillColor=none;top=0;left=0;bottom=0;right=0;" parent="4xDtvOxX5v2o2x7MNQAd-11" vertex="1">
                    <mxGeometry width="30" height="30" as="geometry">
                        <mxRectangle width="30" height="30" as="alternateBounds"/>
                    </mxGeometry>
                </mxCell>
                <mxCell id="4xDtvOxX5v2o2x7MNQAd-13" value="password_hash TEXT NOT NULL" style="shape=partialRectangle;overflow=hidden;connectable=0;fillColor=none;top=0;left=0;bottom=0;right=0;align=left;spacingLeft=6;" parent="4xDtvOxX5v2o2x7MNQAd-11" vertex="1">
                    <mxGeometry x="30" width="310" height="30" as="geometry">
                        <mxRectangle width="310" height="30" as="alternateBounds"/>
                    </mxGeometry>
                </mxCell>
                <mxCell id="4xDtvOxX5v2o2x7MNQAd-14" value="" style="shape=partialRectangle;collapsible=0;dropTarget=0;pointerEvents=0;fillColor=none;points=[[0,0.5],[1,0.5]];portConstraint=eastwest;top=0;left=0;right=0;bottom=0;" parent="4xDtvOxX5v2o2x7MNQAd-1" vertex="1">
                    <mxGeometry y="140" width="340" height="30" as="geometry"/>
                </mxCell>
                <mxCell id="4xDtvOxX5v2o2x7MNQAd-15" value="" style="shape=partialRectangle;overflow=hidden;connectable=0;fillColor=none;top=0;left=0;bottom=0;right=0;" parent="4xDtvOxX5v2o2x7MNQAd-14" vertex="1">
                    <mxGeometry width="30" height="30" as="geometry">
                        <mxRectangle width="30" height="30" as="alternateBounds"/>
                    </mxGeometry>
                </mxCell>
                <mxCell id="4xDtvOxX5v2o2x7MNQAd-16" value="created_at DATETIME NOT NULL" style="shape=partialRectangle;overflow=hidden;connectable=0;fillColor=none;top=0;left=0;bottom=0;right=0;align=left;spacingLeft=6;" parent="4xDtvOxX5v2o2x7MNQAd-14" vertex="1">
                    <mxGeometry x="30" width="310" height="30" as="geometry">
                        <mxRectangle width="310" height="30" as="alternateBounds"/>
                    </mxGeometry>
                </mxCell>
                <mxCell id="4xDtvOxX5v2o2x7MNQAd-17" value="" style="shape=partialRectangle;collapsible=0;dropTarget=0;pointerEvents=0;fillColor=none;points=[[0,0.5],[1,0.5]];portConstraint=eastwest;top=0;left=0;right=0;bottom=0;" parent="4xDtvOxX5v2o2x7MNQAd-1" vertex="1">
                    <mxGeometry y="170" width="340" height="30" as="geometry"/>
                </mxCell>
                <mxCell id="4xDtvOxX5v2o2x7MNQAd-18" value="" style="shape=partialRectangle;overflow=hidden;connectable=0;fillColor=none;top=0;left=0;bottom=0;right=0;" parent="4xDtvOxX5v2o2x7MNQAd-17" vertex="1">
                    <mxGeometry width="30" height="30" as="geometry">
                        <mxRectangle width="30" height="30" as="alternateBounds"/>
                    </mxGeometry>
                </mxCell>
                <mxCell id="4xDtvOxX5v2o2x7MNQAd-19" value="updated_at DATETIME NOT NULL" style="shape=partialRectangle;overflow=hidden;connectable=0;fillColor=none;top=0;left=0;bottom=0;right=0;align=left;spacingLeft=6;" parent="4xDtvOxX5v2o2x7MNQAd-17" vertex="1">
                    <mxGeometry x="30" width="310" height="30" as="geometry">
                        <mxRectangle width="310" height="30" as="alternateBounds"/>
                    </mxGeometry>
                </mxCell>
                <mxCell id="4xDtvOxX5v2o2x7MNQAd-400" style="edgeStyle=none;html=1;entryX=0;entryY=0.5;entryDx=0;entryDy=0;startArrow=ERmany;startFill=0;endArrow=baseDash;endFill=0;" parent="1" source="4xDtvOxX5v2o2x7MNQAd-28" target="4xDtvOxX5v2o2x7MNQAd-11" edge="1">
                    <mxGeometry relative="1" as="geometry"/>
                </mxCell>
                <mxCell id="4xDtvOxX5v2o2x7MNQAd-28" value="User_Certificates" style="shape=table;startSize=20;container=1;collapsible=1;childLayout=tableLayout;fixedRows=1;rowLines=0;fontStyle=1;align=center;resizeLast=1;" parent="1" vertex="1">
                    <mxGeometry x="-1350" y="-835" width="340" height="160" as="geometry"/>
                </mxCell>
                <mxCell id="4xDtvOxX5v2o2x7MNQAd-29" value="" style="shape=partialRectangle;collapsible=0;dropTarget=0;pointerEvents=0;fillColor=none;points=[[0,0.5],[1,0.5]];portConstraint=eastwest;top=0;left=0;right=0;bottom=1;" parent="4xDtvOxX5v2o2x7MNQAd-28" vertex="1">
                    <mxGeometry y="20" width="340" height="30" as="geometry"/>
                </mxCell>
                <mxCell id="4xDtvOxX5v2o2x7MNQAd-30" value="PK" style="shape=partialRectangle;overflow=hidden;connectable=0;fillColor=none;top=0;left=0;bottom=0;right=0;fontStyle=1;" parent="4xDtvOxX5v2o2x7MNQAd-29" vertex="1">
                    <mxGeometry width="30" height="30" as="geometry">
                        <mxRectangle width="30" height="30" as="alternateBounds"/>
                    </mxGeometry>
                </mxCell>
                <mxCell id="4xDtvOxX5v2o2x7MNQAd-31" value="user_cert_id INT NOT NULL " style="shape=partialRectangle;overflow=hidden;connectable=0;fillColor=none;top=0;left=0;bottom=0;right=0;align=left;spacingLeft=6;fontStyle=5;" parent="4xDtvOxX5v2o2x7MNQAd-29" vertex="1">
                    <mxGeometry x="30" width="310" height="30" as="geometry">
                        <mxRectangle width="310" height="30" as="alternateBounds"/>
                    </mxGeometry>
                </mxCell>
                <mxCell id="4xDtvOxX5v2o2x7MNQAd-32" value="" style="shape=partialRectangle;collapsible=0;dropTarget=0;pointerEvents=0;fillColor=none;points=[[0,0.5],[1,0.5]];portConstraint=eastwest;top=0;left=0;right=0;bottom=0;" parent="4xDtvOxX5v2o2x7MNQAd-28" vertex="1">
                    <mxGeometry y="50" width="340" height="30" as="geometry"/>
                </mxCell>
                <mxCell id="4xDtvOxX5v2o2x7MNQAd-33" value="FK" style="shape=partialRectangle;overflow=hidden;connectable=0;fillColor=none;top=0;left=0;bottom=0;right=0;" parent="4xDtvOxX5v2o2x7MNQAd-32" vertex="1">
                    <mxGeometry width="30" height="30" as="geometry">
                        <mxRectangle width="30" height="30" as="alternateBounds"/>
                    </mxGeometry>
                </mxCell>
                <mxCell id="4xDtvOxX5v2o2x7MNQAd-34" value="user_id INT NOT NULL" style="shape=partialRectangle;overflow=hidden;connectable=0;fillColor=none;top=0;left=0;bottom=0;right=0;align=left;spacingLeft=6;" parent="4xDtvOxX5v2o2x7MNQAd-32" vertex="1">
                    <mxGeometry x="30" width="310" height="30" as="geometry">
                        <mxRectangle width="310" height="30" as="alternateBounds"/>
                    </mxGeometry>
                </mxCell>
                <mxCell id="4xDtvOxX5v2o2x7MNQAd-131" value="" style="shape=partialRectangle;collapsible=0;dropTarget=0;pointerEvents=0;fillColor=none;points=[[0,0.5],[1,0.5]];portConstraint=eastwest;top=0;left=0;right=0;bottom=0;" parent="4xDtvOxX5v2o2x7MNQAd-28" vertex="1">
                    <mxGeometry y="80" width="340" height="30" as="geometry"/>
                </mxCell>
                <mxCell id="4xDtvOxX5v2o2x7MNQAd-132" value="" style="shape=partialRectangle;overflow=hidden;connectable=0;fillColor=none;top=0;left=0;bottom=0;right=0;" parent="4xDtvOxX5v2o2x7MNQAd-131" vertex="1">
                    <mxGeometry width="30" height="30" as="geometry">
                        <mxRectangle width="30" height="30" as="alternateBounds"/>
                    </mxGeometry>
                </mxCell>
                <mxCell id="4xDtvOxX5v2o2x7MNQAd-133" value="date_obtained DATE NOT NULL" style="shape=partialRectangle;overflow=hidden;connectable=0;fillColor=none;top=0;left=0;bottom=0;right=0;align=left;spacingLeft=6;" parent="4xDtvOxX5v2o2x7MNQAd-131" vertex="1">
                    <mxGeometry x="30" width="310" height="30" as="geometry">
                        <mxRectangle width="310" height="30" as="alternateBounds"/>
                    </mxGeometry>
                </mxCell>
                <mxCell id="124" value="" style="shape=partialRectangle;collapsible=0;dropTarget=0;pointerEvents=0;fillColor=none;points=[[0,0.5],[1,0.5]];portConstraint=eastwest;top=0;left=0;right=0;bottom=0;" vertex="1" parent="4xDtvOxX5v2o2x7MNQAd-28">
                    <mxGeometry y="110" width="340" height="30" as="geometry"/>
                </mxCell>
                <mxCell id="125" value="FK" style="shape=partialRectangle;overflow=hidden;connectable=0;fillColor=none;top=0;left=0;bottom=0;right=0;" vertex="1" parent="124">
                    <mxGeometry width="30" height="30" as="geometry">
                        <mxRectangle width="30" height="30" as="alternateBounds"/>
                    </mxGeometry>
                </mxCell>
                <mxCell id="126" value="cert_id INT NOT NULL" style="shape=partialRectangle;overflow=hidden;connectable=0;fillColor=none;top=0;left=0;bottom=0;right=0;align=left;spacingLeft=6;" vertex="1" parent="124">
                    <mxGeometry x="30" width="310" height="30" as="geometry">
                        <mxRectangle width="310" height="30" as="alternateBounds"/>
                    </mxGeometry>
                </mxCell>
                <mxCell id="4xDtvOxX5v2o2x7MNQAd-50" value="Specialization" style="shape=table;startSize=20;container=1;collapsible=1;childLayout=tableLayout;fixedRows=1;rowLines=0;fontStyle=1;align=center;resizeLast=1;" parent="1" vertex="1">
                    <mxGeometry x="-580" y="-80" width="340" height="130" as="geometry"/>
                </mxCell>
                <mxCell id="4xDtvOxX5v2o2x7MNQAd-51" value="" style="shape=partialRectangle;collapsible=0;dropTarget=0;pointerEvents=0;fillColor=none;points=[[0,0.5],[1,0.5]];portConstraint=eastwest;top=0;left=0;right=0;bottom=1;" parent="4xDtvOxX5v2o2x7MNQAd-50" vertex="1">
                    <mxGeometry y="20" width="340" height="30" as="geometry"/>
                </mxCell>
                <mxCell id="4xDtvOxX5v2o2x7MNQAd-52" value="PK" style="shape=partialRectangle;overflow=hidden;connectable=0;fillColor=none;top=0;left=0;bottom=0;right=0;fontStyle=1;" parent="4xDtvOxX5v2o2x7MNQAd-51" vertex="1">
                    <mxGeometry width="30" height="30" as="geometry">
                        <mxRectangle width="30" height="30" as="alternateBounds"/>
                    </mxGeometry>
                </mxCell>
                <mxCell id="4xDtvOxX5v2o2x7MNQAd-53" value="spec_id INT NOT NULL " style="shape=partialRectangle;overflow=hidden;connectable=0;fillColor=none;top=0;left=0;bottom=0;right=0;align=left;spacingLeft=6;fontStyle=5;" parent="4xDtvOxX5v2o2x7MNQAd-51" vertex="1">
                    <mxGeometry x="30" width="310" height="30" as="geometry">
                        <mxRectangle width="310" height="30" as="alternateBounds"/>
                    </mxGeometry>
                </mxCell>
                <mxCell id="4xDtvOxX5v2o2x7MNQAd-54" value="" style="shape=partialRectangle;collapsible=0;dropTarget=0;pointerEvents=0;fillColor=none;points=[[0,0.5],[1,0.5]];portConstraint=eastwest;top=0;left=0;right=0;bottom=0;" parent="4xDtvOxX5v2o2x7MNQAd-50" vertex="1">
                    <mxGeometry y="50" width="340" height="30" as="geometry"/>
                </mxCell>
                <mxCell id="4xDtvOxX5v2o2x7MNQAd-55" value="" style="shape=partialRectangle;overflow=hidden;connectable=0;fillColor=none;top=0;left=0;bottom=0;right=0;" parent="4xDtvOxX5v2o2x7MNQAd-54" vertex="1">
                    <mxGeometry width="30" height="30" as="geometry">
                        <mxRectangle width="30" height="30" as="alternateBounds"/>
                    </mxGeometry>
                </mxCell>
                <mxCell id="4xDtvOxX5v2o2x7MNQAd-56" value="spec_name TEXT NOT NULL" style="shape=partialRectangle;overflow=hidden;connectable=0;fillColor=none;top=0;left=0;bottom=0;right=0;align=left;spacingLeft=6;" parent="4xDtvOxX5v2o2x7MNQAd-54" vertex="1">
                    <mxGeometry x="30" width="310" height="30" as="geometry">
                        <mxRectangle width="310" height="30" as="alternateBounds"/>
                    </mxGeometry>
                </mxCell>
                <mxCell id="4xDtvOxX5v2o2x7MNQAd-57" value="" style="shape=partialRectangle;collapsible=0;dropTarget=0;pointerEvents=0;fillColor=none;points=[[0,0.5],[1,0.5]];portConstraint=eastwest;top=0;left=0;right=0;bottom=0;" parent="4xDtvOxX5v2o2x7MNQAd-50" vertex="1">
                    <mxGeometry y="80" width="340" height="30" as="geometry"/>
                </mxCell>
                <mxCell id="4xDtvOxX5v2o2x7MNQAd-58" value="" style="shape=partialRectangle;overflow=hidden;connectable=0;fillColor=none;top=0;left=0;bottom=0;right=0;" parent="4xDtvOxX5v2o2x7MNQAd-57" vertex="1">
                    <mxGeometry width="30" height="30" as="geometry">
                        <mxRectangle width="30" height="30" as="alternateBounds"/>
                    </mxGeometry>
                </mxCell>
                <mxCell id="4xDtvOxX5v2o2x7MNQAd-59" value="spec_desc TEXT NOT NULL&#xa;" style="shape=partialRectangle;overflow=hidden;connectable=0;fillColor=none;top=0;left=0;bottom=0;right=0;align=left;spacingLeft=6;" parent="4xDtvOxX5v2o2x7MNQAd-57" vertex="1">
                    <mxGeometry x="30" width="310" height="30" as="geometry">
                        <mxRectangle width="310" height="30" as="alternateBounds"/>
                    </mxGeometry>
                </mxCell>
                <mxCell id="4xDtvOxX5v2o2x7MNQAd-73" style="edgeStyle=none;html=1;exitX=0.5;exitY=0;exitDx=0;exitDy=0;entryX=0.5;entryY=1;entryDx=0;entryDy=0;startArrow=ERmany;startFill=0;endArrow=baseDash;endFill=0;" parent="1" source="4xDtvOxX5v2o2x7MNQAd-60" target="4xDtvOxX5v2o2x7MNQAd-1" edge="1">
                    <mxGeometry relative="1" as="geometry"/>
                </mxCell>
                <mxCell id="4xDtvOxX5v2o2x7MNQAd-60" value="Users_Specialization" style="shape=table;startSize=20;container=1;collapsible=1;childLayout=tableLayout;fixedRows=1;rowLines=0;fontStyle=1;align=center;resizeLast=1;" parent="1" vertex="1">
                    <mxGeometry x="-580" y="-280" width="340" height="130" as="geometry"/>
                </mxCell>
                <mxCell id="4xDtvOxX5v2o2x7MNQAd-64" value="" style="shape=partialRectangle;collapsible=0;dropTarget=0;pointerEvents=0;fillColor=none;points=[[0,0.5],[1,0.5]];portConstraint=eastwest;top=0;left=0;right=0;bottom=0;" parent="4xDtvOxX5v2o2x7MNQAd-60" vertex="1">
                    <mxGeometry y="20" width="340" height="30" as="geometry"/>
                </mxCell>
                <mxCell id="4xDtvOxX5v2o2x7MNQAd-65" value="PK, FK" style="shape=partialRectangle;overflow=hidden;connectable=0;fillColor=none;top=0;left=0;bottom=0;right=0;" parent="4xDtvOxX5v2o2x7MNQAd-64" vertex="1">
                    <mxGeometry width="50" height="30" as="geometry">
                        <mxRectangle width="50" height="30" as="alternateBounds"/>
                    </mxGeometry>
                </mxCell>
                <mxCell id="4xDtvOxX5v2o2x7MNQAd-66" value="user_id INT NOT NULL" style="shape=partialRectangle;overflow=hidden;connectable=0;fillColor=none;top=0;left=0;bottom=0;right=0;align=left;spacingLeft=6;" parent="4xDtvOxX5v2o2x7MNQAd-64" vertex="1">
                    <mxGeometry x="50" width="290" height="30" as="geometry">
                        <mxRectangle width="290" height="30" as="alternateBounds"/>
                    </mxGeometry>
                </mxCell>
                <mxCell id="4xDtvOxX5v2o2x7MNQAd-67" value="" style="shape=partialRectangle;collapsible=0;dropTarget=0;pointerEvents=0;fillColor=none;points=[[0,0.5],[1,0.5]];portConstraint=eastwest;top=0;left=0;right=0;bottom=0;" parent="4xDtvOxX5v2o2x7MNQAd-60" vertex="1">
                    <mxGeometry y="50" width="340" height="30" as="geometry"/>
                </mxCell>
                <mxCell id="4xDtvOxX5v2o2x7MNQAd-68" value="PK, FK" style="shape=partialRectangle;overflow=hidden;connectable=0;fillColor=none;top=0;left=0;bottom=0;right=0;" parent="4xDtvOxX5v2o2x7MNQAd-67" vertex="1">
                    <mxGeometry width="50" height="30" as="geometry">
                        <mxRectangle width="50" height="30" as="alternateBounds"/>
                    </mxGeometry>
                </mxCell>
                <mxCell id="4xDtvOxX5v2o2x7MNQAd-69" value="spec_id INT NOT NULL" style="shape=partialRectangle;overflow=hidden;connectable=0;fillColor=none;top=0;left=0;bottom=0;right=0;align=left;spacingLeft=6;" parent="4xDtvOxX5v2o2x7MNQAd-67" vertex="1">
                    <mxGeometry x="50" width="290" height="30" as="geometry">
                        <mxRectangle width="290" height="30" as="alternateBounds"/>
                    </mxGeometry>
                </mxCell>
                <mxCell id="4xDtvOxX5v2o2x7MNQAd-70" value="" style="shape=partialRectangle;collapsible=0;dropTarget=0;pointerEvents=0;fillColor=none;points=[[0,0.5],[1,0.5]];portConstraint=eastwest;top=0;left=0;right=0;bottom=0;" parent="4xDtvOxX5v2o2x7MNQAd-60" vertex="1">
                    <mxGeometry y="80" width="340" height="30" as="geometry"/>
                </mxCell>
                <mxCell id="4xDtvOxX5v2o2x7MNQAd-71" value="" style="shape=partialRectangle;overflow=hidden;connectable=0;fillColor=none;top=0;left=0;bottom=0;right=0;" parent="4xDtvOxX5v2o2x7MNQAd-70" vertex="1">
                    <mxGeometry width="50" height="30" as="geometry">
                        <mxRectangle width="50" height="30" as="alternateBounds"/>
                    </mxGeometry>
                </mxCell>
                <mxCell id="4xDtvOxX5v2o2x7MNQAd-72" value="added_date DATETIME NOT NULL" style="shape=partialRectangle;overflow=hidden;connectable=0;fillColor=none;top=0;left=0;bottom=0;right=0;align=left;spacingLeft=6;" parent="4xDtvOxX5v2o2x7MNQAd-70" vertex="1">
                    <mxGeometry x="50" width="290" height="30" as="geometry">
                        <mxRectangle width="290" height="30" as="alternateBounds"/>
                    </mxGeometry>
                </mxCell>
                <mxCell id="4xDtvOxX5v2o2x7MNQAd-74" style="edgeStyle=none;html=1;exitX=0.5;exitY=1;exitDx=0;exitDy=0;entryX=0.5;entryY=0;entryDx=0;entryDy=0;startArrow=ERmany;startFill=0;endArrow=baseDash;endFill=0;" parent="1" source="4xDtvOxX5v2o2x7MNQAd-60" target="4xDtvOxX5v2o2x7MNQAd-50" edge="1">
                    <mxGeometry relative="1" as="geometry">
                        <mxPoint x="-400" y="-380" as="sourcePoint"/>
                        <mxPoint x="-400" y="-450" as="targetPoint"/>
                    </mxGeometry>
                </mxCell>
                <mxCell id="4xDtvOxX5v2o2x7MNQAd-126" style="edgeStyle=none;html=1;exitX=0;exitY=0.5;exitDx=0;exitDy=0;entryX=1;entryY=0.5;entryDx=0;entryDy=0;startArrow=ERmany;startFill=0;endArrow=baseDash;endFill=0;" parent="1" source="4xDtvOxX5v2o2x7MNQAd-75" target="4xDtvOxX5v2o2x7MNQAd-11" edge="1">
                    <mxGeometry relative="1" as="geometry"/>
                </mxCell>
                <mxCell id="4xDtvOxX5v2o2x7MNQAd-75" value="User_Career_paths" style="shape=table;startSize=20;container=1;collapsible=1;childLayout=tableLayout;fixedRows=1;rowLines=0;fontStyle=1;align=center;resizeLast=1;" parent="1" vertex="1">
                    <mxGeometry x="-20" y="-725" width="340" height="100" as="geometry"/>
                </mxCell>
                <mxCell id="4xDtvOxX5v2o2x7MNQAd-79" value="" style="shape=partialRectangle;collapsible=0;dropTarget=0;pointerEvents=0;fillColor=none;points=[[0,0.5],[1,0.5]];portConstraint=eastwest;top=0;left=0;right=0;bottom=0;" parent="4xDtvOxX5v2o2x7MNQAd-75" vertex="1">
                    <mxGeometry y="20" width="340" height="30" as="geometry"/>
                </mxCell>
                <mxCell id="4xDtvOxX5v2o2x7MNQAd-80" value="PK, FK" style="shape=partialRectangle;overflow=hidden;connectable=0;fillColor=none;top=0;left=0;bottom=0;right=0;" parent="4xDtvOxX5v2o2x7MNQAd-79" vertex="1">
                    <mxGeometry width="50" height="30" as="geometry">
                        <mxRectangle width="50" height="30" as="alternateBounds"/>
                    </mxGeometry>
                </mxCell>
                <mxCell id="4xDtvOxX5v2o2x7MNQAd-81" value="user_id INT NOT NULL" style="shape=partialRectangle;overflow=hidden;connectable=0;fillColor=none;top=0;left=0;bottom=0;right=0;align=left;spacingLeft=6;" parent="4xDtvOxX5v2o2x7MNQAd-79" vertex="1">
                    <mxGeometry x="50" width="290" height="30" as="geometry">
                        <mxRectangle width="290" height="30" as="alternateBounds"/>
                    </mxGeometry>
                </mxCell>
                <mxCell id="4xDtvOxX5v2o2x7MNQAd-82" value="" style="shape=partialRectangle;collapsible=0;dropTarget=0;pointerEvents=0;fillColor=none;points=[[0,0.5],[1,0.5]];portConstraint=eastwest;top=0;left=0;right=0;bottom=0;" parent="4xDtvOxX5v2o2x7MNQAd-75" vertex="1">
                    <mxGeometry y="50" width="340" height="30" as="geometry"/>
                </mxCell>
                <mxCell id="4xDtvOxX5v2o2x7MNQAd-83" value="" style="shape=partialRectangle;overflow=hidden;connectable=0;fillColor=none;top=0;left=0;bottom=0;right=0;" parent="4xDtvOxX5v2o2x7MNQAd-82" vertex="1">
                    <mxGeometry width="50" height="30" as="geometry">
                        <mxRectangle width="50" height="30" as="alternateBounds"/>
                    </mxGeometry>
                </mxCell>
                <mxCell id="4xDtvOxX5v2o2x7MNQAd-84" value="career_id INT NOT NULL" style="shape=partialRectangle;overflow=hidden;connectable=0;fillColor=none;top=0;left=0;bottom=0;right=0;align=left;spacingLeft=6;" parent="4xDtvOxX5v2o2x7MNQAd-82" vertex="1">
                    <mxGeometry x="50" width="290" height="30" as="geometry">
                        <mxRectangle width="290" height="30" as="alternateBounds"/>
                    </mxGeometry>
                </mxCell>
                <mxCell id="4xDtvOxX5v2o2x7MNQAd-85" value="Career_paths" style="shape=table;startSize=20;container=1;collapsible=1;childLayout=tableLayout;fixedRows=1;rowLines=0;fontStyle=1;align=center;resizeLast=1;" parent="1" vertex="1">
                    <mxGeometry x="390" y="-725" width="340" height="130" as="geometry"/>
                </mxCell>
                <mxCell id="4xDtvOxX5v2o2x7MNQAd-86" value="" style="shape=partialRectangle;collapsible=0;dropTarget=0;pointerEvents=0;fillColor=none;points=[[0,0.5],[1,0.5]];portConstraint=eastwest;top=0;left=0;right=0;bottom=1;" parent="4xDtvOxX5v2o2x7MNQAd-85" vertex="1">
                    <mxGeometry y="20" width="340" height="30" as="geometry"/>
                </mxCell>
                <mxCell id="4xDtvOxX5v2o2x7MNQAd-87" value="PK" style="shape=partialRectangle;overflow=hidden;connectable=0;fillColor=none;top=0;left=0;bottom=0;right=0;fontStyle=1;" parent="4xDtvOxX5v2o2x7MNQAd-86" vertex="1">
                    <mxGeometry width="30" height="30" as="geometry">
                        <mxRectangle width="30" height="30" as="alternateBounds"/>
                    </mxGeometry>
                </mxCell>
                <mxCell id="4xDtvOxX5v2o2x7MNQAd-88" value="career_id INT NOT NULL " style="shape=partialRectangle;overflow=hidden;connectable=0;fillColor=none;top=0;left=0;bottom=0;right=0;align=left;spacingLeft=6;fontStyle=5;" parent="4xDtvOxX5v2o2x7MNQAd-86" vertex="1">
                    <mxGeometry x="30" width="310" height="30" as="geometry">
                        <mxRectangle width="310" height="30" as="alternateBounds"/>
                    </mxGeometry>
                </mxCell>
                <mxCell id="4xDtvOxX5v2o2x7MNQAd-89" value="" style="shape=partialRectangle;collapsible=0;dropTarget=0;pointerEvents=0;fillColor=none;points=[[0,0.5],[1,0.5]];portConstraint=eastwest;top=0;left=0;right=0;bottom=0;" parent="4xDtvOxX5v2o2x7MNQAd-85" vertex="1">
                    <mxGeometry y="50" width="340" height="30" as="geometry"/>
                </mxCell>
                <mxCell id="4xDtvOxX5v2o2x7MNQAd-90" value="" style="shape=partialRectangle;overflow=hidden;connectable=0;fillColor=none;top=0;left=0;bottom=0;right=0;" parent="4xDtvOxX5v2o2x7MNQAd-89" vertex="1">
                    <mxGeometry width="30" height="30" as="geometry">
                        <mxRectangle width="30" height="30" as="alternateBounds"/>
                    </mxGeometry>
                </mxCell>
                <mxCell id="4xDtvOxX5v2o2x7MNQAd-91" value="career_title TEXT NOT NULL" style="shape=partialRectangle;overflow=hidden;connectable=0;fillColor=none;top=0;left=0;bottom=0;right=0;align=left;spacingLeft=6;" parent="4xDtvOxX5v2o2x7MNQAd-89" vertex="1">
                    <mxGeometry x="30" width="310" height="30" as="geometry">
                        <mxRectangle width="310" height="30" as="alternateBounds"/>
                    </mxGeometry>
                </mxCell>
                <mxCell id="4xDtvOxX5v2o2x7MNQAd-92" value="" style="shape=partialRectangle;collapsible=0;dropTarget=0;pointerEvents=0;fillColor=none;points=[[0,0.5],[1,0.5]];portConstraint=eastwest;top=0;left=0;right=0;bottom=0;" parent="4xDtvOxX5v2o2x7MNQAd-85" vertex="1">
                    <mxGeometry y="80" width="340" height="30" as="geometry"/>
                </mxCell>
                <mxCell id="4xDtvOxX5v2o2x7MNQAd-93" value="" style="shape=partialRectangle;overflow=hidden;connectable=0;fillColor=none;top=0;left=0;bottom=0;right=0;" parent="4xDtvOxX5v2o2x7MNQAd-92" vertex="1">
                    <mxGeometry width="30" height="30" as="geometry">
                        <mxRectangle width="30" height="30" as="alternateBounds"/>
                    </mxGeometry>
                </mxCell>
                <mxCell id="4xDtvOxX5v2o2x7MNQAd-94" value="career_desc TEXT NOT NULL" style="shape=partialRectangle;overflow=hidden;connectable=0;fillColor=none;top=0;left=0;bottom=0;right=0;align=left;spacingLeft=6;" parent="4xDtvOxX5v2o2x7MNQAd-92" vertex="1">
                    <mxGeometry x="30" width="310" height="30" as="geometry">
                        <mxRectangle width="310" height="30" as="alternateBounds"/>
                    </mxGeometry>
                </mxCell>
                <mxCell id="4xDtvOxX5v2o2x7MNQAd-104" value="PK, FK" style="shape=partialRectangle;overflow=hidden;connectable=0;fillColor=none;top=0;left=0;bottom=0;right=0;" parent="1" vertex="1">
                    <mxGeometry x="-20" y="-675" width="50" height="30" as="geometry">
                        <mxRectangle width="50" height="30" as="alternateBounds"/>
                    </mxGeometry>
                </mxCell>
                <mxCell id="4xDtvOxX5v2o2x7MNQAd-127" style="edgeStyle=none;html=1;exitX=1;exitY=0.5;exitDx=0;exitDy=0;entryX=0;entryY=0.5;entryDx=0;entryDy=0;startArrow=ERmany;startFill=0;endArrow=baseDash;endFill=0;" parent="1" source="4xDtvOxX5v2o2x7MNQAd-82" target="4xDtvOxX5v2o2x7MNQAd-89" edge="1">
                    <mxGeometry relative="1" as="geometry"/>
                </mxCell>
                <mxCell id="4xDtvOxX5v2o2x7MNQAd-161" value="User_External_courses" style="shape=table;startSize=20;container=1;collapsible=1;childLayout=tableLayout;fixedRows=1;rowLines=0;fontStyle=1;align=center;resizeLast=1;" parent="1" vertex="1">
                    <mxGeometry x="-1445" y="-1190" width="340" height="160" as="geometry"/>
                </mxCell>
                <mxCell id="4xDtvOxX5v2o2x7MNQAd-162" value="" style="shape=partialRectangle;collapsible=0;dropTarget=0;pointerEvents=0;fillColor=none;points=[[0,0.5],[1,0.5]];portConstraint=eastwest;top=0;left=0;right=0;bottom=1;" parent="4xDtvOxX5v2o2x7MNQAd-161" vertex="1">
                    <mxGeometry y="20" width="340" height="30" as="geometry"/>
                </mxCell>
                <mxCell id="4xDtvOxX5v2o2x7MNQAd-163" value="PK" style="shape=partialRectangle;overflow=hidden;connectable=0;fillColor=none;top=0;left=0;bottom=0;right=0;fontStyle=1;" parent="4xDtvOxX5v2o2x7MNQAd-162" vertex="1">
                    <mxGeometry width="30" height="30" as="geometry">
                        <mxRectangle width="30" height="30" as="alternateBounds"/>
                    </mxGeometry>
                </mxCell>
                <mxCell id="4xDtvOxX5v2o2x7MNQAd-164" value="user_external_course_id INT NOT NULL " style="shape=partialRectangle;overflow=hidden;connectable=0;fillColor=none;top=0;left=0;bottom=0;right=0;align=left;spacingLeft=6;fontStyle=5;" parent="4xDtvOxX5v2o2x7MNQAd-162" vertex="1">
                    <mxGeometry x="30" width="310" height="30" as="geometry">
                        <mxRectangle width="310" height="30" as="alternateBounds"/>
                    </mxGeometry>
                </mxCell>
                <mxCell id="4xDtvOxX5v2o2x7MNQAd-165" value="" style="shape=partialRectangle;collapsible=0;dropTarget=0;pointerEvents=0;fillColor=none;points=[[0,0.5],[1,0.5]];portConstraint=eastwest;top=0;left=0;right=0;bottom=0;" parent="4xDtvOxX5v2o2x7MNQAd-161" vertex="1">
                    <mxGeometry y="50" width="340" height="30" as="geometry"/>
                </mxCell>
                <mxCell id="4xDtvOxX5v2o2x7MNQAd-166" value="FK" style="shape=partialRectangle;overflow=hidden;connectable=0;fillColor=none;top=0;left=0;bottom=0;right=0;" parent="4xDtvOxX5v2o2x7MNQAd-165" vertex="1">
                    <mxGeometry width="30" height="30" as="geometry">
                        <mxRectangle width="30" height="30" as="alternateBounds"/>
                    </mxGeometry>
                </mxCell>
                <mxCell id="4xDtvOxX5v2o2x7MNQAd-167" value="user_id INT NOT NULL" style="shape=partialRectangle;overflow=hidden;connectable=0;fillColor=none;top=0;left=0;bottom=0;right=0;align=left;spacingLeft=6;" parent="4xDtvOxX5v2o2x7MNQAd-165" vertex="1">
                    <mxGeometry x="30" width="310" height="30" as="geometry">
                        <mxRectangle width="310" height="30" as="alternateBounds"/>
                    </mxGeometry>
                </mxCell>
                <mxCell id="4xDtvOxX5v2o2x7MNQAd-174" value="" style="shape=partialRectangle;collapsible=0;dropTarget=0;pointerEvents=0;fillColor=none;points=[[0,0.5],[1,0.5]];portConstraint=eastwest;top=0;left=0;right=0;bottom=0;" parent="4xDtvOxX5v2o2x7MNQAd-161" vertex="1">
                    <mxGeometry y="80" width="340" height="30" as="geometry"/>
                </mxCell>
                <mxCell id="4xDtvOxX5v2o2x7MNQAd-175" value="" style="shape=partialRectangle;overflow=hidden;connectable=0;fillColor=none;top=0;left=0;bottom=0;right=0;" parent="4xDtvOxX5v2o2x7MNQAd-174" vertex="1">
                    <mxGeometry width="30" height="30" as="geometry">
                        <mxRectangle width="30" height="30" as="alternateBounds"/>
                    </mxGeometry>
                </mxCell>
                <mxCell id="4xDtvOxX5v2o2x7MNQAd-176" value="external_course_completion_date DATE NOT NULL" style="shape=partialRectangle;overflow=hidden;connectable=0;fillColor=none;top=0;left=0;bottom=0;right=0;align=left;spacingLeft=6;" parent="4xDtvOxX5v2o2x7MNQAd-174" vertex="1">
                    <mxGeometry x="30" width="310" height="30" as="geometry">
                        <mxRectangle width="310" height="30" as="alternateBounds"/>
                    </mxGeometry>
                </mxCell>
                <mxCell id="55" value="" style="shape=partialRectangle;collapsible=0;dropTarget=0;pointerEvents=0;fillColor=none;points=[[0,0.5],[1,0.5]];portConstraint=eastwest;top=0;left=0;right=0;bottom=0;" vertex="1" parent="4xDtvOxX5v2o2x7MNQAd-161">
                    <mxGeometry y="110" width="340" height="30" as="geometry"/>
                </mxCell>
                <mxCell id="56" value="FK" style="shape=partialRectangle;overflow=hidden;connectable=0;fillColor=none;top=0;left=0;bottom=0;right=0;" vertex="1" parent="55">
                    <mxGeometry width="30" height="30" as="geometry">
                        <mxRectangle width="30" height="30" as="alternateBounds"/>
                    </mxGeometry>
                </mxCell>
                <mxCell id="57" value="external_course_id INT NOT NULL" style="shape=partialRectangle;overflow=hidden;connectable=0;fillColor=none;top=0;left=0;bottom=0;right=0;align=left;spacingLeft=6;" vertex="1" parent="55">
                    <mxGeometry x="30" width="310" height="30" as="geometry">
                        <mxRectangle width="310" height="30" as="alternateBounds"/>
                    </mxGeometry>
                </mxCell>
                <mxCell id="4xDtvOxX5v2o2x7MNQAd-402" style="edgeStyle=none;html=1;startArrow=ERmany;startFill=0;endArrow=baseDash;endFill=0;exitX=0.5;exitY=1;exitDx=0;exitDy=0;" parent="1" source="200" edge="1">
                    <mxGeometry relative="1" as="geometry">
                        <mxPoint x="-530" y="-800" as="targetPoint"/>
                        <Array as="points"/>
                        <mxPoint x="-740" y="-1370" as="sourcePoint"/>
                    </mxGeometry>
                </mxCell>
                <mxCell id="4xDtvOxX5v2o2x7MNQAd-407" style="edgeStyle=none;html=1;entryX=1;entryY=1;entryDx=0;entryDy=0;startArrow=ERmany;startFill=0;endArrow=baseDash;endFill=0;" parent="1" source="4xDtvOxX5v2o2x7MNQAd-208" target="4xDtvOxX5v2o2x7MNQAd-1" edge="1">
                    <mxGeometry relative="1" as="geometry"/>
                </mxCell>
                <mxCell id="4xDtvOxX5v2o2x7MNQAd-208" value="Peer_reviews" style="shape=table;startSize=20;container=1;collapsible=1;childLayout=tableLayout;fixedRows=1;rowLines=0;fontStyle=1;align=center;resizeLast=1;" parent="1" vertex="1">
                    <mxGeometry x="-140" y="-590" width="340" height="220" as="geometry"/>
                </mxCell>
                <mxCell id="4xDtvOxX5v2o2x7MNQAd-209" value="" style="shape=partialRectangle;collapsible=0;dropTarget=0;pointerEvents=0;fillColor=none;points=[[0,0.5],[1,0.5]];portConstraint=eastwest;top=0;left=0;right=0;bottom=1;" parent="4xDtvOxX5v2o2x7MNQAd-208" vertex="1">
                    <mxGeometry y="20" width="340" height="30" as="geometry"/>
                </mxCell>
                <mxCell id="4xDtvOxX5v2o2x7MNQAd-210" value="PK" style="shape=partialRectangle;overflow=hidden;connectable=0;fillColor=none;top=0;left=0;bottom=0;right=0;fontStyle=1;" parent="4xDtvOxX5v2o2x7MNQAd-209" vertex="1">
                    <mxGeometry width="30" height="30" as="geometry">
                        <mxRectangle width="30" height="30" as="alternateBounds"/>
                    </mxGeometry>
                </mxCell>
                <mxCell id="4xDtvOxX5v2o2x7MNQAd-211" value="review_id INT NOT NULL " style="shape=partialRectangle;overflow=hidden;connectable=0;fillColor=none;top=0;left=0;bottom=0;right=0;align=left;spacingLeft=6;fontStyle=5;" parent="4xDtvOxX5v2o2x7MNQAd-209" vertex="1">
                    <mxGeometry x="30" width="310" height="30" as="geometry">
                        <mxRectangle width="310" height="30" as="alternateBounds"/>
                    </mxGeometry>
                </mxCell>
                <mxCell id="4xDtvOxX5v2o2x7MNQAd-212" value="" style="shape=partialRectangle;collapsible=0;dropTarget=0;pointerEvents=0;fillColor=none;points=[[0,0.5],[1,0.5]];portConstraint=eastwest;top=0;left=0;right=0;bottom=0;" parent="4xDtvOxX5v2o2x7MNQAd-208" vertex="1">
                    <mxGeometry y="50" width="340" height="30" as="geometry"/>
                </mxCell>
                <mxCell id="4xDtvOxX5v2o2x7MNQAd-213" value="FK" style="shape=partialRectangle;overflow=hidden;connectable=0;fillColor=none;top=0;left=0;bottom=0;right=0;" parent="4xDtvOxX5v2o2x7MNQAd-212" vertex="1">
                    <mxGeometry width="30" height="30" as="geometry">
                        <mxRectangle width="30" height="30" as="alternateBounds"/>
                    </mxGeometry>
                </mxCell>
                <mxCell id="4xDtvOxX5v2o2x7MNQAd-214" value="reviewer_id INT NOT NULL" style="shape=partialRectangle;overflow=hidden;connectable=0;fillColor=none;top=0;left=0;bottom=0;right=0;align=left;spacingLeft=6;" parent="4xDtvOxX5v2o2x7MNQAd-212" vertex="1">
                    <mxGeometry x="30" width="310" height="30" as="geometry">
                        <mxRectangle width="310" height="30" as="alternateBounds"/>
                    </mxGeometry>
                </mxCell>
                <mxCell id="4xDtvOxX5v2o2x7MNQAd-215" value="" style="shape=partialRectangle;collapsible=0;dropTarget=0;pointerEvents=0;fillColor=none;points=[[0,0.5],[1,0.5]];portConstraint=eastwest;top=0;left=0;right=0;bottom=0;" parent="4xDtvOxX5v2o2x7MNQAd-208" vertex="1">
                    <mxGeometry y="80" width="340" height="30" as="geometry"/>
                </mxCell>
                <mxCell id="4xDtvOxX5v2o2x7MNQAd-216" value="FK" style="shape=partialRectangle;overflow=hidden;connectable=0;fillColor=none;top=0;left=0;bottom=0;right=0;" parent="4xDtvOxX5v2o2x7MNQAd-215" vertex="1">
                    <mxGeometry width="30" height="30" as="geometry">
                        <mxRectangle width="30" height="30" as="alternateBounds"/>
                    </mxGeometry>
                </mxCell>
                <mxCell id="4xDtvOxX5v2o2x7MNQAd-217" value="reviewee_id INT NOT NULL" style="shape=partialRectangle;overflow=hidden;connectable=0;fillColor=none;top=0;left=0;bottom=0;right=0;align=left;spacingLeft=6;" parent="4xDtvOxX5v2o2x7MNQAd-215" vertex="1">
                    <mxGeometry x="30" width="310" height="30" as="geometry">
                        <mxRectangle width="310" height="30" as="alternateBounds"/>
                    </mxGeometry>
                </mxCell>
                <mxCell id="4xDtvOxX5v2o2x7MNQAd-218" value="" style="shape=partialRectangle;collapsible=0;dropTarget=0;pointerEvents=0;fillColor=none;points=[[0,0.5],[1,0.5]];portConstraint=eastwest;top=0;left=0;right=0;bottom=0;" parent="4xDtvOxX5v2o2x7MNQAd-208" vertex="1">
                    <mxGeometry y="110" width="340" height="30" as="geometry"/>
                </mxCell>
                <mxCell id="4xDtvOxX5v2o2x7MNQAd-219" value="" style="shape=partialRectangle;overflow=hidden;connectable=0;fillColor=none;top=0;left=0;bottom=0;right=0;" parent="4xDtvOxX5v2o2x7MNQAd-218" vertex="1">
                    <mxGeometry width="30" height="30" as="geometry">
                        <mxRectangle width="30" height="30" as="alternateBounds"/>
                    </mxGeometry>
                </mxCell>
                <mxCell id="4xDtvOxX5v2o2x7MNQAd-220" value="feedback TEXT NOT NULL" style="shape=partialRectangle;overflow=hidden;connectable=0;fillColor=none;top=0;left=0;bottom=0;right=0;align=left;spacingLeft=6;" parent="4xDtvOxX5v2o2x7MNQAd-218" vertex="1">
                    <mxGeometry x="30" width="310" height="30" as="geometry">
                        <mxRectangle width="310" height="30" as="alternateBounds"/>
                    </mxGeometry>
                </mxCell>
                <mxCell id="4xDtvOxX5v2o2x7MNQAd-221" value="" style="shape=partialRectangle;collapsible=0;dropTarget=0;pointerEvents=0;fillColor=none;points=[[0,0.5],[1,0.5]];portConstraint=eastwest;top=0;left=0;right=0;bottom=0;" parent="4xDtvOxX5v2o2x7MNQAd-208" vertex="1">
                    <mxGeometry y="140" width="340" height="30" as="geometry"/>
                </mxCell>
                <mxCell id="4xDtvOxX5v2o2x7MNQAd-222" value="" style="shape=partialRectangle;overflow=hidden;connectable=0;fillColor=none;top=0;left=0;bottom=0;right=0;" parent="4xDtvOxX5v2o2x7MNQAd-221" vertex="1">
                    <mxGeometry width="30" height="30" as="geometry">
                        <mxRectangle width="30" height="30" as="alternateBounds"/>
                    </mxGeometry>
                </mxCell>
                <mxCell id="4xDtvOxX5v2o2x7MNQAd-223" value="rating INT NOT NULL" style="shape=partialRectangle;overflow=hidden;connectable=0;fillColor=none;top=0;left=0;bottom=0;right=0;align=left;spacingLeft=6;" parent="4xDtvOxX5v2o2x7MNQAd-221" vertex="1">
                    <mxGeometry x="30" width="310" height="30" as="geometry">
                        <mxRectangle width="310" height="30" as="alternateBounds"/>
                    </mxGeometry>
                </mxCell>
                <mxCell id="4xDtvOxX5v2o2x7MNQAd-224" value="" style="shape=partialRectangle;collapsible=0;dropTarget=0;pointerEvents=0;fillColor=none;points=[[0,0.5],[1,0.5]];portConstraint=eastwest;top=0;left=0;right=0;bottom=0;" parent="4xDtvOxX5v2o2x7MNQAd-208" vertex="1">
                    <mxGeometry y="170" width="340" height="30" as="geometry"/>
                </mxCell>
                <mxCell id="4xDtvOxX5v2o2x7MNQAd-225" value="" style="shape=partialRectangle;overflow=hidden;connectable=0;fillColor=none;top=0;left=0;bottom=0;right=0;" parent="4xDtvOxX5v2o2x7MNQAd-224" vertex="1">
                    <mxGeometry width="30" height="30" as="geometry">
                        <mxRectangle width="30" height="30" as="alternateBounds"/>
                    </mxGeometry>
                </mxCell>
                <mxCell id="4xDtvOxX5v2o2x7MNQAd-226" value="review_date DATETIME NOT NULL" style="shape=partialRectangle;overflow=hidden;connectable=0;fillColor=none;top=0;left=0;bottom=0;right=0;align=left;spacingLeft=6;" parent="4xDtvOxX5v2o2x7MNQAd-224" vertex="1">
                    <mxGeometry x="30" width="310" height="30" as="geometry">
                        <mxRectangle width="310" height="30" as="alternateBounds"/>
                    </mxGeometry>
                </mxCell>
                <mxCell id="4xDtvOxX5v2o2x7MNQAd-227" value="Skill_Competencies" style="shape=table;startSize=20;container=1;collapsible=1;childLayout=tableLayout;fixedRows=1;rowLines=0;fontStyle=1;align=center;resizeLast=1;" parent="1" vertex="1">
                    <mxGeometry x="-140" y="-80" width="340" height="160" as="geometry"/>
                </mxCell>
                <mxCell id="4xDtvOxX5v2o2x7MNQAd-228" value="" style="shape=partialRectangle;collapsible=0;dropTarget=0;pointerEvents=0;fillColor=none;points=[[0,0.5],[1,0.5]];portConstraint=eastwest;top=0;left=0;right=0;bottom=1;" parent="4xDtvOxX5v2o2x7MNQAd-227" vertex="1">
                    <mxGeometry y="20" width="340" height="30" as="geometry"/>
                </mxCell>
                <mxCell id="4xDtvOxX5v2o2x7MNQAd-229" value="PK" style="shape=partialRectangle;overflow=hidden;connectable=0;fillColor=none;top=0;left=0;bottom=0;right=0;fontStyle=1;" parent="4xDtvOxX5v2o2x7MNQAd-228" vertex="1">
                    <mxGeometry width="30" height="30" as="geometry">
                        <mxRectangle width="30" height="30" as="alternateBounds"/>
                    </mxGeometry>
                </mxCell>
                <mxCell id="4xDtvOxX5v2o2x7MNQAd-230" value="skill_id INT NOT NULL " style="shape=partialRectangle;overflow=hidden;connectable=0;fillColor=none;top=0;left=0;bottom=0;right=0;align=left;spacingLeft=6;fontStyle=5;" parent="4xDtvOxX5v2o2x7MNQAd-228" vertex="1">
                    <mxGeometry x="30" width="310" height="30" as="geometry">
                        <mxRectangle width="310" height="30" as="alternateBounds"/>
                    </mxGeometry>
                </mxCell>
                <mxCell id="4xDtvOxX5v2o2x7MNQAd-231" value="" style="shape=partialRectangle;collapsible=0;dropTarget=0;pointerEvents=0;fillColor=none;points=[[0,0.5],[1,0.5]];portConstraint=eastwest;top=0;left=0;right=0;bottom=0;" parent="4xDtvOxX5v2o2x7MNQAd-227" vertex="1">
                    <mxGeometry y="50" width="340" height="30" as="geometry"/>
                </mxCell>
                <mxCell id="4xDtvOxX5v2o2x7MNQAd-232" value="" style="shape=partialRectangle;overflow=hidden;connectable=0;fillColor=none;top=0;left=0;bottom=0;right=0;" parent="4xDtvOxX5v2o2x7MNQAd-231" vertex="1">
                    <mxGeometry width="30" height="30" as="geometry">
                        <mxRectangle width="30" height="30" as="alternateBounds"/>
                    </mxGeometry>
                </mxCell>
                <mxCell id="4xDtvOxX5v2o2x7MNQAd-233" value="skill_name TEXT NOT NULL" style="shape=partialRectangle;overflow=hidden;connectable=0;fillColor=none;top=0;left=0;bottom=0;right=0;align=left;spacingLeft=6;" parent="4xDtvOxX5v2o2x7MNQAd-231" vertex="1">
                    <mxGeometry x="30" width="310" height="30" as="geometry">
                        <mxRectangle width="310" height="30" as="alternateBounds"/>
                    </mxGeometry>
                </mxCell>
                <mxCell id="4xDtvOxX5v2o2x7MNQAd-234" value="" style="shape=partialRectangle;collapsible=0;dropTarget=0;pointerEvents=0;fillColor=none;points=[[0,0.5],[1,0.5]];portConstraint=eastwest;top=0;left=0;right=0;bottom=0;" parent="4xDtvOxX5v2o2x7MNQAd-227" vertex="1">
                    <mxGeometry y="80" width="340" height="30" as="geometry"/>
                </mxCell>
                <mxCell id="4xDtvOxX5v2o2x7MNQAd-235" value="" style="shape=partialRectangle;overflow=hidden;connectable=0;fillColor=none;top=0;left=0;bottom=0;right=0;" parent="4xDtvOxX5v2o2x7MNQAd-234" vertex="1">
                    <mxGeometry width="30" height="30" as="geometry">
                        <mxRectangle width="30" height="30" as="alternateBounds"/>
                    </mxGeometry>
                </mxCell>
                <mxCell id="4xDtvOxX5v2o2x7MNQAd-236" value="skill_grade ENUM NOT NULL" style="shape=partialRectangle;overflow=hidden;connectable=0;fillColor=none;top=0;left=0;bottom=0;right=0;align=left;spacingLeft=6;" parent="4xDtvOxX5v2o2x7MNQAd-234" vertex="1">
                    <mxGeometry x="30" width="310" height="30" as="geometry">
                        <mxRectangle width="310" height="30" as="alternateBounds"/>
                    </mxGeometry>
                </mxCell>
                <mxCell id="t1dCWUSB6KBmA47_n5QB-17" value="" style="shape=partialRectangle;collapsible=0;dropTarget=0;pointerEvents=0;fillColor=none;points=[[0,0.5],[1,0.5]];portConstraint=eastwest;top=0;left=0;right=0;bottom=0;" parent="4xDtvOxX5v2o2x7MNQAd-227" vertex="1">
                    <mxGeometry y="110" width="340" height="30" as="geometry"/>
                </mxCell>
                <mxCell id="t1dCWUSB6KBmA47_n5QB-18" value="" style="shape=partialRectangle;overflow=hidden;connectable=0;fillColor=none;top=0;left=0;bottom=0;right=0;" parent="t1dCWUSB6KBmA47_n5QB-17" vertex="1">
                    <mxGeometry width="30" height="30" as="geometry">
                        <mxRectangle width="30" height="30" as="alternateBounds"/>
                    </mxGeometry>
                </mxCell>
                <mxCell id="t1dCWUSB6KBmA47_n5QB-19" value="skill_category ENUM NOT NULL" style="shape=partialRectangle;overflow=hidden;connectable=0;fillColor=none;top=0;left=0;bottom=0;right=0;align=left;spacingLeft=6;" parent="t1dCWUSB6KBmA47_n5QB-17" vertex="1">
                    <mxGeometry x="30" width="310" height="30" as="geometry">
                        <mxRectangle width="310" height="30" as="alternateBounds"/>
                    </mxGeometry>
                </mxCell>
                <mxCell id="4xDtvOxX5v2o2x7MNQAd-406" style="edgeStyle=none;html=1;startArrow=ERmany;startFill=0;endArrow=baseDash;endFill=0;exitX=-0.001;exitY=0.81;exitDx=0;exitDy=0;exitPerimeter=0;" parent="1" source="4xDtvOxX5v2o2x7MNQAd-274" edge="1">
                    <mxGeometry relative="1" as="geometry">
                        <Array as="points">
                            <mxPoint x="-325" y="-375"/>
                        </Array>
                        <mxPoint x="-153.74000000000024" y="-372.8499999999999" as="sourcePoint"/>
                        <mxPoint x="-325" y="-580" as="targetPoint"/>
                    </mxGeometry>
                </mxCell>
                <mxCell id="4xDtvOxX5v2o2x7MNQAd-264" value="User_skill" style="shape=table;startSize=20;container=1;collapsible=1;childLayout=tableLayout;fixedRows=1;rowLines=0;fontStyle=1;align=center;resizeLast=1;" parent="1" vertex="1">
                    <mxGeometry x="-140" y="-330" width="340" height="190" as="geometry"/>
                </mxCell>
                <mxCell id="4xDtvOxX5v2o2x7MNQAd-268" value="" style="shape=partialRectangle;collapsible=0;dropTarget=0;pointerEvents=0;fillColor=none;points=[[0,0.5],[1,0.5]];portConstraint=eastwest;top=0;left=0;right=0;bottom=0;" parent="4xDtvOxX5v2o2x7MNQAd-264" vertex="1">
                    <mxGeometry y="20" width="340" height="30" as="geometry"/>
                </mxCell>
                <mxCell id="4xDtvOxX5v2o2x7MNQAd-269" value="PK, FK" style="shape=partialRectangle;overflow=hidden;connectable=0;fillColor=none;top=0;left=0;bottom=0;right=0;" parent="4xDtvOxX5v2o2x7MNQAd-268" vertex="1">
                    <mxGeometry width="50" height="30" as="geometry">
                        <mxRectangle width="50" height="30" as="alternateBounds"/>
                    </mxGeometry>
                </mxCell>
                <mxCell id="4xDtvOxX5v2o2x7MNQAd-270" value="user_id INT NOT NULL" style="shape=partialRectangle;overflow=hidden;connectable=0;fillColor=none;top=0;left=0;bottom=0;right=0;align=left;spacingLeft=6;" parent="4xDtvOxX5v2o2x7MNQAd-268" vertex="1">
                    <mxGeometry x="50" width="290" height="30" as="geometry">
                        <mxRectangle width="290" height="30" as="alternateBounds"/>
                    </mxGeometry>
                </mxCell>
                <mxCell id="4xDtvOxX5v2o2x7MNQAd-271" value="" style="shape=partialRectangle;collapsible=0;dropTarget=0;pointerEvents=0;fillColor=none;points=[[0,0.5],[1,0.5]];portConstraint=eastwest;top=0;left=0;right=0;bottom=0;" parent="4xDtvOxX5v2o2x7MNQAd-264" vertex="1">
                    <mxGeometry y="50" width="340" height="30" as="geometry"/>
                </mxCell>
                <mxCell id="4xDtvOxX5v2o2x7MNQAd-272" value="PK, FK" style="shape=partialRectangle;overflow=hidden;connectable=0;fillColor=none;top=0;left=0;bottom=0;right=0;" parent="4xDtvOxX5v2o2x7MNQAd-271" vertex="1">
                    <mxGeometry width="50" height="30" as="geometry">
                        <mxRectangle width="50" height="30" as="alternateBounds"/>
                    </mxGeometry>
                </mxCell>
                <mxCell id="4xDtvOxX5v2o2x7MNQAd-273" value="skill_id INT NOT NULL" style="shape=partialRectangle;overflow=hidden;connectable=0;fillColor=none;top=0;left=0;bottom=0;right=0;align=left;spacingLeft=6;" parent="4xDtvOxX5v2o2x7MNQAd-271" vertex="1">
                    <mxGeometry x="50" width="290" height="30" as="geometry">
                        <mxRectangle width="290" height="30" as="alternateBounds"/>
                    </mxGeometry>
                </mxCell>
                <mxCell id="4xDtvOxX5v2o2x7MNQAd-274" value="" style="shape=partialRectangle;collapsible=0;dropTarget=0;pointerEvents=0;fillColor=none;points=[[0,0.5],[1,0.5]];portConstraint=eastwest;top=0;left=0;right=0;bottom=0;" parent="4xDtvOxX5v2o2x7MNQAd-264" vertex="1">
                    <mxGeometry y="80" width="340" height="30" as="geometry"/>
                </mxCell>
                <mxCell id="4xDtvOxX5v2o2x7MNQAd-275" value="" style="shape=partialRectangle;overflow=hidden;connectable=0;fillColor=none;top=0;left=0;bottom=0;right=0;" parent="4xDtvOxX5v2o2x7MNQAd-274" vertex="1">
                    <mxGeometry width="50" height="30" as="geometry">
                        <mxRectangle width="50" height="30" as="alternateBounds"/>
                    </mxGeometry>
                </mxCell>
                <mxCell id="4xDtvOxX5v2o2x7MNQAd-276" value="proficiency_score FLOAT NOT NULL" style="shape=partialRectangle;overflow=hidden;connectable=0;fillColor=none;top=0;left=0;bottom=0;right=0;align=left;spacingLeft=6;" parent="4xDtvOxX5v2o2x7MNQAd-274" vertex="1">
                    <mxGeometry x="50" width="290" height="30" as="geometry">
                        <mxRectangle width="290" height="30" as="alternateBounds"/>
                    </mxGeometry>
                </mxCell>
                <mxCell id="4xDtvOxX5v2o2x7MNQAd-280" value="" style="shape=partialRectangle;collapsible=0;dropTarget=0;pointerEvents=0;fillColor=none;points=[[0,0.5],[1,0.5]];portConstraint=eastwest;top=0;left=0;right=0;bottom=0;" parent="4xDtvOxX5v2o2x7MNQAd-264" vertex="1">
                    <mxGeometry y="110" width="340" height="30" as="geometry"/>
                </mxCell>
                <mxCell id="4xDtvOxX5v2o2x7MNQAd-281" value="" style="shape=partialRectangle;overflow=hidden;connectable=0;fillColor=none;top=0;left=0;bottom=0;right=0;" parent="4xDtvOxX5v2o2x7MNQAd-280" vertex="1">
                    <mxGeometry width="50" height="30" as="geometry">
                        <mxRectangle width="50" height="30" as="alternateBounds"/>
                    </mxGeometry>
                </mxCell>
                <mxCell id="4xDtvOxX5v2o2x7MNQAd-282" value="last_updated DATETIME NOT NULL" style="shape=partialRectangle;overflow=hidden;connectable=0;fillColor=none;top=0;left=0;bottom=0;right=0;align=left;spacingLeft=6;" parent="4xDtvOxX5v2o2x7MNQAd-280" vertex="1">
                    <mxGeometry x="50" width="290" height="30" as="geometry">
                        <mxRectangle width="290" height="30" as="alternateBounds"/>
                    </mxGeometry>
                </mxCell>
                <mxCell id="4xDtvOxX5v2o2x7MNQAd-283" value="" style="shape=partialRectangle;collapsible=0;dropTarget=0;pointerEvents=0;fillColor=none;points=[[0,0.5],[1,0.5]];portConstraint=eastwest;top=0;left=0;right=0;bottom=0;" parent="4xDtvOxX5v2o2x7MNQAd-264" vertex="1">
                    <mxGeometry y="140" width="340" height="30" as="geometry"/>
                </mxCell>
                <mxCell id="4xDtvOxX5v2o2x7MNQAd-284" value="" style="shape=partialRectangle;overflow=hidden;connectable=0;fillColor=none;top=0;left=0;bottom=0;right=0;" parent="4xDtvOxX5v2o2x7MNQAd-283" vertex="1">
                    <mxGeometry width="50" height="30" as="geometry">
                        <mxRectangle width="50" height="30" as="alternateBounds"/>
                    </mxGeometry>
                </mxCell>
                <mxCell id="4xDtvOxX5v2o2x7MNQAd-285" value="data_source TEXT NOT NULL" style="shape=partialRectangle;overflow=hidden;connectable=0;fillColor=none;top=0;left=0;bottom=0;right=0;align=left;spacingLeft=6;" parent="4xDtvOxX5v2o2x7MNQAd-283" vertex="1">
                    <mxGeometry x="50" width="290" height="30" as="geometry">
                        <mxRectangle width="290" height="30" as="alternateBounds"/>
                    </mxGeometry>
                </mxCell>
                <mxCell id="4xDtvOxX5v2o2x7MNQAd-408" style="edgeStyle=none;html=1;exitX=0.5;exitY=1;exitDx=0;exitDy=0;startArrow=ERmany;startFill=0;endArrow=baseDash;endFill=0;" parent="1" source="4xDtvOxX5v2o2x7MNQAd-286" target="4xDtvOxX5v2o2x7MNQAd-1" edge="1">
                    <mxGeometry relative="1" as="geometry">
                        <Array as="points"/>
                    </mxGeometry>
                </mxCell>
                <mxCell id="4xDtvOxX5v2o2x7MNQAd-286" value="AI_insights" style="shape=table;startSize=20;container=1;collapsible=1;childLayout=tableLayout;fixedRows=1;rowLines=0;fontStyle=1;align=center;resizeLast=1;" parent="1" vertex="1">
                    <mxGeometry x="-580" y="-1180" width="340" height="190" as="geometry"/>
                </mxCell>
                <mxCell id="4xDtvOxX5v2o2x7MNQAd-287" value="" style="shape=partialRectangle;collapsible=0;dropTarget=0;pointerEvents=0;fillColor=none;points=[[0,0.5],[1,0.5]];portConstraint=eastwest;top=0;left=0;right=0;bottom=1;" parent="4xDtvOxX5v2o2x7MNQAd-286" vertex="1">
                    <mxGeometry y="20" width="340" height="30" as="geometry"/>
                </mxCell>
                <mxCell id="4xDtvOxX5v2o2x7MNQAd-288" value="PK" style="shape=partialRectangle;overflow=hidden;connectable=0;fillColor=none;top=0;left=0;bottom=0;right=0;fontStyle=1;" parent="4xDtvOxX5v2o2x7MNQAd-287" vertex="1">
                    <mxGeometry width="30" height="30" as="geometry">
                        <mxRectangle width="30" height="30" as="alternateBounds"/>
                    </mxGeometry>
                </mxCell>
                <mxCell id="4xDtvOxX5v2o2x7MNQAd-289" value="insight_id INT NOT NULL " style="shape=partialRectangle;overflow=hidden;connectable=0;fillColor=none;top=0;left=0;bottom=0;right=0;align=left;spacingLeft=6;fontStyle=5;" parent="4xDtvOxX5v2o2x7MNQAd-287" vertex="1">
                    <mxGeometry x="30" width="310" height="30" as="geometry">
                        <mxRectangle width="310" height="30" as="alternateBounds"/>
                    </mxGeometry>
                </mxCell>
                <mxCell id="4xDtvOxX5v2o2x7MNQAd-290" value="" style="shape=partialRectangle;collapsible=0;dropTarget=0;pointerEvents=0;fillColor=none;points=[[0,0.5],[1,0.5]];portConstraint=eastwest;top=0;left=0;right=0;bottom=0;" parent="4xDtvOxX5v2o2x7MNQAd-286" vertex="1">
                    <mxGeometry y="50" width="340" height="30" as="geometry"/>
                </mxCell>
                <mxCell id="4xDtvOxX5v2o2x7MNQAd-291" value="FK" style="shape=partialRectangle;overflow=hidden;connectable=0;fillColor=none;top=0;left=0;bottom=0;right=0;" parent="4xDtvOxX5v2o2x7MNQAd-290" vertex="1">
                    <mxGeometry width="30" height="30" as="geometry">
                        <mxRectangle width="30" height="30" as="alternateBounds"/>
                    </mxGeometry>
                </mxCell>
                <mxCell id="4xDtvOxX5v2o2x7MNQAd-292" value="user_id INT NOT NULL" style="shape=partialRectangle;overflow=hidden;connectable=0;fillColor=none;top=0;left=0;bottom=0;right=0;align=left;spacingLeft=6;" parent="4xDtvOxX5v2o2x7MNQAd-290" vertex="1">
                    <mxGeometry x="30" width="310" height="30" as="geometry">
                        <mxRectangle width="310" height="30" as="alternateBounds"/>
                    </mxGeometry>
                </mxCell>
                <mxCell id="4xDtvOxX5v2o2x7MNQAd-293" value="" style="shape=partialRectangle;collapsible=0;dropTarget=0;pointerEvents=0;fillColor=none;points=[[0,0.5],[1,0.5]];portConstraint=eastwest;top=0;left=0;right=0;bottom=0;" parent="4xDtvOxX5v2o2x7MNQAd-286" vertex="1">
                    <mxGeometry y="80" width="340" height="30" as="geometry"/>
                </mxCell>
                <mxCell id="4xDtvOxX5v2o2x7MNQAd-294" value="" style="shape=partialRectangle;overflow=hidden;connectable=0;fillColor=none;top=0;left=0;bottom=0;right=0;" parent="4xDtvOxX5v2o2x7MNQAd-293" vertex="1">
                    <mxGeometry width="30" height="30" as="geometry">
                        <mxRectangle width="30" height="30" as="alternateBounds"/>
                    </mxGeometry>
                </mxCell>
                <mxCell id="4xDtvOxX5v2o2x7MNQAd-295" value="generated_on DATETIME NOT NULL" style="shape=partialRectangle;overflow=hidden;connectable=0;fillColor=none;top=0;left=0;bottom=0;right=0;align=left;spacingLeft=6;" parent="4xDtvOxX5v2o2x7MNQAd-293" vertex="1">
                    <mxGeometry x="30" width="310" height="30" as="geometry">
                        <mxRectangle width="310" height="30" as="alternateBounds"/>
                    </mxGeometry>
                </mxCell>
                <mxCell id="4xDtvOxX5v2o2x7MNQAd-296" value="" style="shape=partialRectangle;collapsible=0;dropTarget=0;pointerEvents=0;fillColor=none;points=[[0,0.5],[1,0.5]];portConstraint=eastwest;top=0;left=0;right=0;bottom=0;" parent="4xDtvOxX5v2o2x7MNQAd-286" vertex="1">
                    <mxGeometry y="110" width="340" height="30" as="geometry"/>
                </mxCell>
                <mxCell id="4xDtvOxX5v2o2x7MNQAd-297" value="" style="shape=partialRectangle;overflow=hidden;connectable=0;fillColor=none;top=0;left=0;bottom=0;right=0;" parent="4xDtvOxX5v2o2x7MNQAd-296" vertex="1">
                    <mxGeometry width="30" height="30" as="geometry">
                        <mxRectangle width="30" height="30" as="alternateBounds"/>
                    </mxGeometry>
                </mxCell>
                <mxCell id="4xDtvOxX5v2o2x7MNQAd-298" value="recommendation TEXT NOT NULL" style="shape=partialRectangle;overflow=hidden;connectable=0;fillColor=none;top=0;left=0;bottom=0;right=0;align=left;spacingLeft=6;" parent="4xDtvOxX5v2o2x7MNQAd-296" vertex="1">
                    <mxGeometry x="30" width="310" height="30" as="geometry">
                        <mxRectangle width="310" height="30" as="alternateBounds"/>
                    </mxGeometry>
                </mxCell>
                <mxCell id="nkqn70-d-f-3o_hXStP2-86" value="" style="shape=partialRectangle;collapsible=0;dropTarget=0;pointerEvents=0;fillColor=none;points=[[0,0.5],[1,0.5]];portConstraint=eastwest;top=0;left=0;right=0;bottom=0;" parent="4xDtvOxX5v2o2x7MNQAd-286" vertex="1">
                    <mxGeometry y="140" width="340" height="30" as="geometry"/>
                </mxCell>
                <mxCell id="nkqn70-d-f-3o_hXStP2-87" value="" style="shape=partialRectangle;overflow=hidden;connectable=0;fillColor=none;top=0;left=0;bottom=0;right=0;" parent="nkqn70-d-f-3o_hXStP2-86" vertex="1">
                    <mxGeometry width="30" height="30" as="geometry">
                        <mxRectangle width="30" height="30" as="alternateBounds"/>
                    </mxGeometry>
                </mxCell>
                <mxCell id="nkqn70-d-f-3o_hXStP2-88" value="spec_additional_comment TEXT NOT NULL" style="shape=partialRectangle;overflow=hidden;connectable=0;fillColor=none;top=0;left=0;bottom=0;right=0;align=left;spacingLeft=6;" parent="nkqn70-d-f-3o_hXStP2-86" vertex="1">
                    <mxGeometry x="30" width="310" height="30" as="geometry">
                        <mxRectangle width="310" height="30" as="alternateBounds"/>
                    </mxGeometry>
                </mxCell>
                <mxCell id="4xDtvOxX5v2o2x7MNQAd-305" value="Study_plans" style="shape=table;startSize=20;container=1;collapsible=1;childLayout=tableLayout;fixedRows=1;rowLines=0;fontStyle=1;align=center;resizeLast=1;" parent="1" vertex="1">
                    <mxGeometry x="-1260" y="-495" width="340" height="250" as="geometry"/>
                </mxCell>
                <mxCell id="4xDtvOxX5v2o2x7MNQAd-306" value="" style="shape=partialRectangle;collapsible=0;dropTarget=0;pointerEvents=0;fillColor=none;points=[[0,0.5],[1,0.5]];portConstraint=eastwest;top=0;left=0;right=0;bottom=1;" parent="4xDtvOxX5v2o2x7MNQAd-305" vertex="1">
                    <mxGeometry y="20" width="340" height="30" as="geometry"/>
                </mxCell>
                <mxCell id="4xDtvOxX5v2o2x7MNQAd-307" value="PK" style="shape=partialRectangle;overflow=hidden;connectable=0;fillColor=none;top=0;left=0;bottom=0;right=0;fontStyle=1;" parent="4xDtvOxX5v2o2x7MNQAd-306" vertex="1">
                    <mxGeometry width="30" height="30" as="geometry">
                        <mxRectangle width="30" height="30" as="alternateBounds"/>
                    </mxGeometry>
                </mxCell>
                <mxCell id="4xDtvOxX5v2o2x7MNQAd-308" value="plan_id INT NOT NULL " style="shape=partialRectangle;overflow=hidden;connectable=0;fillColor=none;top=0;left=0;bottom=0;right=0;align=left;spacingLeft=6;fontStyle=5;" parent="4xDtvOxX5v2o2x7MNQAd-306" vertex="1">
                    <mxGeometry x="30" width="310" height="30" as="geometry">
                        <mxRectangle width="310" height="30" as="alternateBounds"/>
                    </mxGeometry>
                </mxCell>
                <mxCell id="4xDtvOxX5v2o2x7MNQAd-309" value="" style="shape=partialRectangle;collapsible=0;dropTarget=0;pointerEvents=0;fillColor=none;points=[[0,0.5],[1,0.5]];portConstraint=eastwest;top=0;left=0;right=0;bottom=0;" parent="4xDtvOxX5v2o2x7MNQAd-305" vertex="1">
                    <mxGeometry y="50" width="340" height="30" as="geometry"/>
                </mxCell>
                <mxCell id="4xDtvOxX5v2o2x7MNQAd-310" value="FK" style="shape=partialRectangle;overflow=hidden;connectable=0;fillColor=none;top=0;left=0;bottom=0;right=0;" parent="4xDtvOxX5v2o2x7MNQAd-309" vertex="1">
                    <mxGeometry width="30" height="30" as="geometry">
                        <mxRectangle width="30" height="30" as="alternateBounds"/>
                    </mxGeometry>
                </mxCell>
                <mxCell id="4xDtvOxX5v2o2x7MNQAd-311" value="user_id INT NOT NULL" style="shape=partialRectangle;overflow=hidden;connectable=0;fillColor=none;top=0;left=0;bottom=0;right=0;align=left;spacingLeft=6;" parent="4xDtvOxX5v2o2x7MNQAd-309" vertex="1">
                    <mxGeometry x="30" width="310" height="30" as="geometry">
                        <mxRectangle width="310" height="30" as="alternateBounds"/>
                    </mxGeometry>
                </mxCell>
                <mxCell id="4xDtvOxX5v2o2x7MNQAd-312" value="" style="shape=partialRectangle;collapsible=0;dropTarget=0;pointerEvents=0;fillColor=none;points=[[0,0.5],[1,0.5]];portConstraint=eastwest;top=0;left=0;right=0;bottom=0;" parent="4xDtvOxX5v2o2x7MNQAd-305" vertex="1">
                    <mxGeometry y="80" width="340" height="30" as="geometry"/>
                </mxCell>
                <mxCell id="4xDtvOxX5v2o2x7MNQAd-313" value="" style="shape=partialRectangle;overflow=hidden;connectable=0;fillColor=none;top=0;left=0;bottom=0;right=0;" parent="4xDtvOxX5v2o2x7MNQAd-312" vertex="1">
                    <mxGeometry width="30" height="30" as="geometry">
                        <mxRectangle width="30" height="30" as="alternateBounds"/>
                    </mxGeometry>
                </mxCell>
                <mxCell id="4xDtvOxX5v2o2x7MNQAd-314" value="plan_name TEXT NOT NULL" style="shape=partialRectangle;overflow=hidden;connectable=0;fillColor=none;top=0;left=0;bottom=0;right=0;align=left;spacingLeft=6;" parent="4xDtvOxX5v2o2x7MNQAd-312" vertex="1">
                    <mxGeometry x="30" width="310" height="30" as="geometry">
                        <mxRectangle width="310" height="30" as="alternateBounds"/>
                    </mxGeometry>
                </mxCell>
                <mxCell id="4xDtvOxX5v2o2x7MNQAd-315" value="" style="shape=partialRectangle;collapsible=0;dropTarget=0;pointerEvents=0;fillColor=none;points=[[0,0.5],[1,0.5]];portConstraint=eastwest;top=0;left=0;right=0;bottom=0;" parent="4xDtvOxX5v2o2x7MNQAd-305" vertex="1">
                    <mxGeometry y="110" width="340" height="30" as="geometry"/>
                </mxCell>
                <mxCell id="4xDtvOxX5v2o2x7MNQAd-316" value="" style="shape=partialRectangle;overflow=hidden;connectable=0;fillColor=none;top=0;left=0;bottom=0;right=0;" parent="4xDtvOxX5v2o2x7MNQAd-315" vertex="1">
                    <mxGeometry width="30" height="30" as="geometry">
                        <mxRectangle width="30" height="30" as="alternateBounds"/>
                    </mxGeometry>
                </mxCell>
                <mxCell id="4xDtvOxX5v2o2x7MNQAd-317" value="plan_desc TEXT NOT NULL" style="shape=partialRectangle;overflow=hidden;connectable=0;fillColor=none;top=0;left=0;bottom=0;right=0;align=left;spacingLeft=6;" parent="4xDtvOxX5v2o2x7MNQAd-315" vertex="1">
                    <mxGeometry x="30" width="310" height="30" as="geometry">
                        <mxRectangle width="310" height="30" as="alternateBounds"/>
                    </mxGeometry>
                </mxCell>
                <mxCell id="4xDtvOxX5v2o2x7MNQAd-318" value="" style="shape=partialRectangle;collapsible=0;dropTarget=0;pointerEvents=0;fillColor=none;points=[[0,0.5],[1,0.5]];portConstraint=eastwest;top=0;left=0;right=0;bottom=0;" parent="4xDtvOxX5v2o2x7MNQAd-305" vertex="1">
                    <mxGeometry y="140" width="340" height="30" as="geometry"/>
                </mxCell>
                <mxCell id="4xDtvOxX5v2o2x7MNQAd-319" value="" style="shape=partialRectangle;overflow=hidden;connectable=0;fillColor=none;top=0;left=0;bottom=0;right=0;" parent="4xDtvOxX5v2o2x7MNQAd-318" vertex="1">
                    <mxGeometry width="30" height="30" as="geometry">
                        <mxRectangle width="30" height="30" as="alternateBounds"/>
                    </mxGeometry>
                </mxCell>
                <mxCell id="4xDtvOxX5v2o2x7MNQAd-320" value="created_at DATETIME NOT NULL" style="shape=partialRectangle;overflow=hidden;connectable=0;fillColor=none;top=0;left=0;bottom=0;right=0;align=left;spacingLeft=6;" parent="4xDtvOxX5v2o2x7MNQAd-318" vertex="1">
                    <mxGeometry x="30" width="310" height="30" as="geometry">
                        <mxRectangle width="310" height="30" as="alternateBounds"/>
                    </mxGeometry>
                </mxCell>
                <mxCell id="4xDtvOxX5v2o2x7MNQAd-321" value="" style="shape=partialRectangle;collapsible=0;dropTarget=0;pointerEvents=0;fillColor=none;points=[[0,0.5],[1,0.5]];portConstraint=eastwest;top=0;left=0;right=0;bottom=0;" parent="4xDtvOxX5v2o2x7MNQAd-305" vertex="1">
                    <mxGeometry y="170" width="340" height="30" as="geometry"/>
                </mxCell>
                <mxCell id="4xDtvOxX5v2o2x7MNQAd-322" value="" style="shape=partialRectangle;overflow=hidden;connectable=0;fillColor=none;top=0;left=0;bottom=0;right=0;" parent="4xDtvOxX5v2o2x7MNQAd-321" vertex="1">
                    <mxGeometry width="30" height="30" as="geometry">
                        <mxRectangle width="30" height="30" as="alternateBounds"/>
                    </mxGeometry>
                </mxCell>
                <mxCell id="4xDtvOxX5v2o2x7MNQAd-323" value="is_active BOOLEAN NOT NULL" style="shape=partialRectangle;overflow=hidden;connectable=0;fillColor=none;top=0;left=0;bottom=0;right=0;align=left;spacingLeft=6;" parent="4xDtvOxX5v2o2x7MNQAd-321" vertex="1">
                    <mxGeometry x="30" width="310" height="30" as="geometry">
                        <mxRectangle width="310" height="30" as="alternateBounds"/>
                    </mxGeometry>
                </mxCell>
                <mxCell id="t1dCWUSB6KBmA47_n5QB-20" value="" style="shape=partialRectangle;collapsible=0;dropTarget=0;pointerEvents=0;fillColor=none;points=[[0,0.5],[1,0.5]];portConstraint=eastwest;top=0;left=0;right=0;bottom=0;" parent="4xDtvOxX5v2o2x7MNQAd-305" vertex="1">
                    <mxGeometry y="200" width="340" height="30" as="geometry"/>
                </mxCell>
                <mxCell id="t1dCWUSB6KBmA47_n5QB-21" value="" style="shape=partialRectangle;overflow=hidden;connectable=0;fillColor=none;top=0;left=0;bottom=0;right=0;" parent="t1dCWUSB6KBmA47_n5QB-20" vertex="1">
                    <mxGeometry width="30" height="30" as="geometry">
                        <mxRectangle width="30" height="30" as="alternateBounds"/>
                    </mxGeometry>
                </mxCell>
                <mxCell id="t1dCWUSB6KBmA47_n5QB-22" value="is_active BOOLEAN NOT NULL" style="shape=partialRectangle;overflow=hidden;connectable=0;fillColor=none;top=0;left=0;bottom=0;right=0;align=left;spacingLeft=6;" parent="t1dCWUSB6KBmA47_n5QB-20" vertex="1">
                    <mxGeometry x="30" width="310" height="30" as="geometry">
                        <mxRectangle width="310" height="30" as="alternateBounds"/>
                    </mxGeometry>
                </mxCell>
                <mxCell id="4xDtvOxX5v2o2x7MNQAd-414" style="edgeStyle=none;html=1;entryX=0.5;entryY=1;entryDx=0;entryDy=0;startArrow=ERmany;startFill=0;endArrow=baseDash;endFill=0;" parent="1" source="4xDtvOxX5v2o2x7MNQAd-324" target="4xDtvOxX5v2o2x7MNQAd-305" edge="1">
                    <mxGeometry relative="1" as="geometry"/>
                </mxCell>
                <mxCell id="4xDtvOxX5v2o2x7MNQAd-415" style="edgeStyle=none;html=1;startArrow=ERmany;startFill=0;endArrow=baseDash;endFill=0;" parent="1" source="4xDtvOxX5v2o2x7MNQAd-324" target="4xDtvOxX5v2o2x7MNQAd-343" edge="1">
                    <mxGeometry relative="1" as="geometry"/>
                </mxCell>
                <mxCell id="4xDtvOxX5v2o2x7MNQAd-324" value="Study_plan_courses" style="shape=table;startSize=20;container=1;collapsible=1;childLayout=tableLayout;fixedRows=1;rowLines=0;fontStyle=1;align=center;resizeLast=1;" parent="1" vertex="1">
                    <mxGeometry x="-1260" y="-180" width="340" height="160" as="geometry"/>
                </mxCell>
                <mxCell id="4xDtvOxX5v2o2x7MNQAd-365" value="" style="shape=partialRectangle;collapsible=0;dropTarget=0;pointerEvents=0;fillColor=none;points=[[0,0.5],[1,0.5]];portConstraint=eastwest;top=0;left=0;right=0;bottom=0;" parent="4xDtvOxX5v2o2x7MNQAd-324" vertex="1">
                    <mxGeometry y="20" width="340" height="30" as="geometry"/>
                </mxCell>
                <mxCell id="4xDtvOxX5v2o2x7MNQAd-366" value="PK, FK" style="shape=partialRectangle;overflow=hidden;connectable=0;fillColor=none;top=0;left=0;bottom=0;right=0;" parent="4xDtvOxX5v2o2x7MNQAd-365" vertex="1">
                    <mxGeometry width="50" height="30" as="geometry">
                        <mxRectangle width="50" height="30" as="alternateBounds"/>
                    </mxGeometry>
                </mxCell>
                <mxCell id="4xDtvOxX5v2o2x7MNQAd-367" value="plan_id INT NOT NULL" style="shape=partialRectangle;overflow=hidden;connectable=0;fillColor=none;top=0;left=0;bottom=0;right=0;align=left;spacingLeft=6;" parent="4xDtvOxX5v2o2x7MNQAd-365" vertex="1">
                    <mxGeometry x="50" width="290" height="30" as="geometry">
                        <mxRectangle width="290" height="30" as="alternateBounds"/>
                    </mxGeometry>
                </mxCell>
                <mxCell id="4xDtvOxX5v2o2x7MNQAd-328" value="" style="shape=partialRectangle;collapsible=0;dropTarget=0;pointerEvents=0;fillColor=none;points=[[0,0.5],[1,0.5]];portConstraint=eastwest;top=0;left=0;right=0;bottom=0;" parent="4xDtvOxX5v2o2x7MNQAd-324" vertex="1">
                    <mxGeometry y="50" width="340" height="30" as="geometry"/>
                </mxCell>
                <mxCell id="4xDtvOxX5v2o2x7MNQAd-329" value="PK, FK" style="shape=partialRectangle;overflow=hidden;connectable=0;fillColor=none;top=0;left=0;bottom=0;right=0;" parent="4xDtvOxX5v2o2x7MNQAd-328" vertex="1">
                    <mxGeometry width="50" height="30" as="geometry">
                        <mxRectangle width="50" height="30" as="alternateBounds"/>
                    </mxGeometry>
                </mxCell>
                <mxCell id="4xDtvOxX5v2o2x7MNQAd-330" value="re_course_id INT NOT NULL" style="shape=partialRectangle;overflow=hidden;connectable=0;fillColor=none;top=0;left=0;bottom=0;right=0;align=left;spacingLeft=6;" parent="4xDtvOxX5v2o2x7MNQAd-328" vertex="1">
                    <mxGeometry x="50" width="290" height="30" as="geometry">
                        <mxRectangle width="290" height="30" as="alternateBounds"/>
                    </mxGeometry>
                </mxCell>
                <mxCell id="4xDtvOxX5v2o2x7MNQAd-331" value="" style="shape=partialRectangle;collapsible=0;dropTarget=0;pointerEvents=0;fillColor=none;points=[[0,0.5],[1,0.5]];portConstraint=eastwest;top=0;left=0;right=0;bottom=0;" parent="4xDtvOxX5v2o2x7MNQAd-324" vertex="1">
                    <mxGeometry y="80" width="340" height="30" as="geometry"/>
                </mxCell>
                <mxCell id="4xDtvOxX5v2o2x7MNQAd-332" value="" style="shape=partialRectangle;overflow=hidden;connectable=0;fillColor=none;top=0;left=0;bottom=0;right=0;" parent="4xDtvOxX5v2o2x7MNQAd-331" vertex="1">
                    <mxGeometry width="50" height="30" as="geometry">
                        <mxRectangle width="50" height="30" as="alternateBounds"/>
                    </mxGeometry>
                </mxCell>
                <mxCell id="4xDtvOxX5v2o2x7MNQAd-333" value="target_grade TEXT NOT NULL" style="shape=partialRectangle;overflow=hidden;connectable=0;fillColor=none;top=0;left=0;bottom=0;right=0;align=left;spacingLeft=6;" parent="4xDtvOxX5v2o2x7MNQAd-331" vertex="1">
                    <mxGeometry x="50" width="290" height="30" as="geometry">
                        <mxRectangle width="290" height="30" as="alternateBounds"/>
                    </mxGeometry>
                </mxCell>
                <mxCell id="4xDtvOxX5v2o2x7MNQAd-334" value="" style="shape=partialRectangle;collapsible=0;dropTarget=0;pointerEvents=0;fillColor=none;points=[[0,0.5],[1,0.5]];portConstraint=eastwest;top=0;left=0;right=0;bottom=0;" parent="4xDtvOxX5v2o2x7MNQAd-324" vertex="1">
                    <mxGeometry y="110" width="340" height="30" as="geometry"/>
                </mxCell>
                <mxCell id="4xDtvOxX5v2o2x7MNQAd-335" value="" style="shape=partialRectangle;overflow=hidden;connectable=0;fillColor=none;top=0;left=0;bottom=0;right=0;" parent="4xDtvOxX5v2o2x7MNQAd-334" vertex="1">
                    <mxGeometry width="50" height="30" as="geometry">
                        <mxRectangle width="50" height="30" as="alternateBounds"/>
                    </mxGeometry>
                </mxCell>
                <mxCell id="4xDtvOxX5v2o2x7MNQAd-336" value="progress_status ENUM NOT NULL" style="shape=partialRectangle;overflow=hidden;connectable=0;fillColor=none;top=0;left=0;bottom=0;right=0;align=left;spacingLeft=6;" parent="4xDtvOxX5v2o2x7MNQAd-334" vertex="1">
                    <mxGeometry x="50" width="290" height="30" as="geometry">
                        <mxRectangle width="290" height="30" as="alternateBounds"/>
                    </mxGeometry>
                </mxCell>
                <mxCell id="4xDtvOxX5v2o2x7MNQAd-343" value="recommended_courses" style="shape=table;startSize=20;container=1;collapsible=1;childLayout=tableLayout;fixedRows=1;rowLines=0;fontStyle=1;align=center;resizeLast=1;" parent="1" vertex="1">
                    <mxGeometry x="-1260" y="90" width="340" height="160" as="geometry"/>
                </mxCell>
                <mxCell id="4xDtvOxX5v2o2x7MNQAd-344" value="" style="shape=partialRectangle;collapsible=0;dropTarget=0;pointerEvents=0;fillColor=none;points=[[0,0.5],[1,0.5]];portConstraint=eastwest;top=0;left=0;right=0;bottom=1;" parent="4xDtvOxX5v2o2x7MNQAd-343" vertex="1">
                    <mxGeometry y="20" width="340" height="30" as="geometry"/>
                </mxCell>
                <mxCell id="4xDtvOxX5v2o2x7MNQAd-345" value="PK" style="shape=partialRectangle;overflow=hidden;connectable=0;fillColor=none;top=0;left=0;bottom=0;right=0;fontStyle=1;" parent="4xDtvOxX5v2o2x7MNQAd-344" vertex="1">
                    <mxGeometry width="50" height="30" as="geometry">
                        <mxRectangle width="50" height="30" as="alternateBounds"/>
                    </mxGeometry>
                </mxCell>
                <mxCell id="4xDtvOxX5v2o2x7MNQAd-346" value="re_course_id INT NOT NULL " style="shape=partialRectangle;overflow=hidden;connectable=0;fillColor=none;top=0;left=0;bottom=0;right=0;align=left;spacingLeft=6;fontStyle=5;" parent="4xDtvOxX5v2o2x7MNQAd-344" vertex="1">
                    <mxGeometry x="50" width="290" height="30" as="geometry">
                        <mxRectangle width="290" height="30" as="alternateBounds"/>
                    </mxGeometry>
                </mxCell>
                <mxCell id="4xDtvOxX5v2o2x7MNQAd-347" value="" style="shape=partialRectangle;collapsible=0;dropTarget=0;pointerEvents=0;fillColor=none;points=[[0,0.5],[1,0.5]];portConstraint=eastwest;top=0;left=0;right=0;bottom=0;" parent="4xDtvOxX5v2o2x7MNQAd-343" vertex="1">
                    <mxGeometry y="50" width="340" height="30" as="geometry"/>
                </mxCell>
                <mxCell id="4xDtvOxX5v2o2x7MNQAd-348" value="FK" style="shape=partialRectangle;overflow=hidden;connectable=0;fillColor=none;top=0;left=0;bottom=0;right=0;" parent="4xDtvOxX5v2o2x7MNQAd-347" vertex="1">
                    <mxGeometry width="50" height="30" as="geometry">
                        <mxRectangle width="50" height="30" as="alternateBounds"/>
                    </mxGeometry>
                </mxCell>
                <mxCell id="4xDtvOxX5v2o2x7MNQAd-349" value="course_name TEXT NOT NULL" style="shape=partialRectangle;overflow=hidden;connectable=0;fillColor=none;top=0;left=0;bottom=0;right=0;align=left;spacingLeft=6;" parent="4xDtvOxX5v2o2x7MNQAd-347" vertex="1">
                    <mxGeometry x="50" width="290" height="30" as="geometry">
                        <mxRectangle width="290" height="30" as="alternateBounds"/>
                    </mxGeometry>
                </mxCell>
                <mxCell id="4xDtvOxX5v2o2x7MNQAd-353" value="" style="shape=partialRectangle;collapsible=0;dropTarget=0;pointerEvents=0;fillColor=none;points=[[0,0.5],[1,0.5]];portConstraint=eastwest;top=0;left=0;right=0;bottom=0;" parent="4xDtvOxX5v2o2x7MNQAd-343" vertex="1">
                    <mxGeometry y="80" width="340" height="30" as="geometry"/>
                </mxCell>
                <mxCell id="4xDtvOxX5v2o2x7MNQAd-354" value="FK" style="shape=partialRectangle;overflow=hidden;connectable=0;fillColor=none;top=0;left=0;bottom=0;right=0;" parent="4xDtvOxX5v2o2x7MNQAd-353" vertex="1">
                    <mxGeometry width="50" height="30" as="geometry">
                        <mxRectangle width="50" height="30" as="alternateBounds"/>
                    </mxGeometry>
                </mxCell>
                <mxCell id="4xDtvOxX5v2o2x7MNQAd-355" value="course_desc TEXT NOT NULL" style="shape=partialRectangle;overflow=hidden;connectable=0;fillColor=none;top=0;left=0;bottom=0;right=0;align=left;spacingLeft=6;" parent="4xDtvOxX5v2o2x7MNQAd-353" vertex="1">
                    <mxGeometry x="50" width="290" height="30" as="geometry">
                        <mxRectangle width="290" height="30" as="alternateBounds"/>
                    </mxGeometry>
                </mxCell>
                <mxCell id="4xDtvOxX5v2o2x7MNQAd-356" value="" style="shape=partialRectangle;collapsible=0;dropTarget=0;pointerEvents=0;fillColor=none;points=[[0,0.5],[1,0.5]];portConstraint=eastwest;top=0;left=0;right=0;bottom=0;" parent="4xDtvOxX5v2o2x7MNQAd-343" vertex="1">
                    <mxGeometry y="110" width="340" height="30" as="geometry"/>
                </mxCell>
                <mxCell id="4xDtvOxX5v2o2x7MNQAd-357" value="FK" style="shape=partialRectangle;overflow=hidden;connectable=0;fillColor=none;top=0;left=0;bottom=0;right=0;" parent="4xDtvOxX5v2o2x7MNQAd-356" vertex="1">
                    <mxGeometry width="50" height="30" as="geometry">
                        <mxRectangle width="50" height="30" as="alternateBounds"/>
                    </mxGeometry>
                </mxCell>
                <mxCell id="4xDtvOxX5v2o2x7MNQAd-358" value="ai_tagged_skill TEXT NOT NULL" style="shape=partialRectangle;overflow=hidden;connectable=0;fillColor=none;top=0;left=0;bottom=0;right=0;align=left;spacingLeft=6;" parent="4xDtvOxX5v2o2x7MNQAd-356" vertex="1">
                    <mxGeometry x="50" width="290" height="30" as="geometry">
                        <mxRectangle width="290" height="30" as="alternateBounds"/>
                    </mxGeometry>
                </mxCell>
                <mxCell id="4xDtvOxX5v2o2x7MNQAd-368" value="Community_posts" style="shape=table;startSize=20;container=1;collapsible=1;childLayout=tableLayout;fixedRows=1;rowLines=0;fontStyle=1;align=center;resizeLast=1;" parent="1" vertex="1">
                    <mxGeometry x="10" y="-1120" width="340" height="280" as="geometry"/>
                </mxCell>
                <mxCell id="4xDtvOxX5v2o2x7MNQAd-369" value="" style="shape=partialRectangle;collapsible=0;dropTarget=0;pointerEvents=0;fillColor=none;points=[[0,0.5],[1,0.5]];portConstraint=eastwest;top=0;left=0;right=0;bottom=1;" parent="4xDtvOxX5v2o2x7MNQAd-368" vertex="1">
                    <mxGeometry y="20" width="340" height="30" as="geometry"/>
                </mxCell>
                <mxCell id="4xDtvOxX5v2o2x7MNQAd-370" value="PK" style="shape=partialRectangle;overflow=hidden;connectable=0;fillColor=none;top=0;left=0;bottom=0;right=0;fontStyle=1;" parent="4xDtvOxX5v2o2x7MNQAd-369" vertex="1">
                    <mxGeometry width="50" height="30" as="geometry">
                        <mxRectangle width="50" height="30" as="alternateBounds"/>
                    </mxGeometry>
                </mxCell>
                <mxCell id="4xDtvOxX5v2o2x7MNQAd-371" value="post_id INT NOT NULL " style="shape=partialRectangle;overflow=hidden;connectable=0;fillColor=none;top=0;left=0;bottom=0;right=0;align=left;spacingLeft=6;fontStyle=5;" parent="4xDtvOxX5v2o2x7MNQAd-369" vertex="1">
                    <mxGeometry x="50" width="290" height="30" as="geometry">
                        <mxRectangle width="290" height="30" as="alternateBounds"/>
                    </mxGeometry>
                </mxCell>
                <mxCell id="4xDtvOxX5v2o2x7MNQAd-372" value="" style="shape=partialRectangle;collapsible=0;dropTarget=0;pointerEvents=0;fillColor=none;points=[[0,0.5],[1,0.5]];portConstraint=eastwest;top=0;left=0;right=0;bottom=0;" parent="4xDtvOxX5v2o2x7MNQAd-368" vertex="1">
                    <mxGeometry y="50" width="340" height="30" as="geometry"/>
                </mxCell>
                <mxCell id="4xDtvOxX5v2o2x7MNQAd-373" value="FK" style="shape=partialRectangle;overflow=hidden;connectable=0;fillColor=none;top=0;left=0;bottom=0;right=0;" parent="4xDtvOxX5v2o2x7MNQAd-372" vertex="1">
                    <mxGeometry width="50" height="30" as="geometry">
                        <mxRectangle width="50" height="30" as="alternateBounds"/>
                    </mxGeometry>
                </mxCell>
                <mxCell id="4xDtvOxX5v2o2x7MNQAd-374" value="user_id TEXT NOT NULL" style="shape=partialRectangle;overflow=hidden;connectable=0;fillColor=none;top=0;left=0;bottom=0;right=0;align=left;spacingLeft=6;" parent="4xDtvOxX5v2o2x7MNQAd-372" vertex="1">
                    <mxGeometry x="50" width="290" height="30" as="geometry">
                        <mxRectangle width="290" height="30" as="alternateBounds"/>
                    </mxGeometry>
                </mxCell>
                <mxCell id="4xDtvOxX5v2o2x7MNQAd-375" value="" style="shape=partialRectangle;collapsible=0;dropTarget=0;pointerEvents=0;fillColor=none;points=[[0,0.5],[1,0.5]];portConstraint=eastwest;top=0;left=0;right=0;bottom=0;" parent="4xDtvOxX5v2o2x7MNQAd-368" vertex="1">
                    <mxGeometry y="80" width="340" height="30" as="geometry"/>
                </mxCell>
                <mxCell id="4xDtvOxX5v2o2x7MNQAd-376" value="" style="shape=partialRectangle;overflow=hidden;connectable=0;fillColor=none;top=0;left=0;bottom=0;right=0;" parent="4xDtvOxX5v2o2x7MNQAd-375" vertex="1">
                    <mxGeometry width="50" height="30" as="geometry">
                        <mxRectangle width="50" height="30" as="alternateBounds"/>
                    </mxGeometry>
                </mxCell>
                <mxCell id="4xDtvOxX5v2o2x7MNQAd-377" value="post_title TEXT NOT NULL" style="shape=partialRectangle;overflow=hidden;connectable=0;fillColor=none;top=0;left=0;bottom=0;right=0;align=left;spacingLeft=6;" parent="4xDtvOxX5v2o2x7MNQAd-375" vertex="1">
                    <mxGeometry x="50" width="290" height="30" as="geometry">
                        <mxRectangle width="290" height="30" as="alternateBounds"/>
                    </mxGeometry>
                </mxCell>
                <mxCell id="4xDtvOxX5v2o2x7MNQAd-378" value="" style="shape=partialRectangle;collapsible=0;dropTarget=0;pointerEvents=0;fillColor=none;points=[[0,0.5],[1,0.5]];portConstraint=eastwest;top=0;left=0;right=0;bottom=0;" parent="4xDtvOxX5v2o2x7MNQAd-368" vertex="1">
                    <mxGeometry y="110" width="340" height="30" as="geometry"/>
                </mxCell>
                <mxCell id="4xDtvOxX5v2o2x7MNQAd-379" value="" style="shape=partialRectangle;overflow=hidden;connectable=0;fillColor=none;top=0;left=0;bottom=0;right=0;" parent="4xDtvOxX5v2o2x7MNQAd-378" vertex="1">
                    <mxGeometry width="50" height="30" as="geometry">
                        <mxRectangle width="50" height="30" as="alternateBounds"/>
                    </mxGeometry>
                </mxCell>
                <mxCell id="4xDtvOxX5v2o2x7MNQAd-380" value="content TEXT NOT NULL" style="shape=partialRectangle;overflow=hidden;connectable=0;fillColor=none;top=0;left=0;bottom=0;right=0;align=left;spacingLeft=6;" parent="4xDtvOxX5v2o2x7MNQAd-378" vertex="1">
                    <mxGeometry x="50" width="290" height="30" as="geometry">
                        <mxRectangle width="290" height="30" as="alternateBounds"/>
                    </mxGeometry>
                </mxCell>
                <mxCell id="4xDtvOxX5v2o2x7MNQAd-381" value="" style="shape=partialRectangle;collapsible=0;dropTarget=0;pointerEvents=0;fillColor=none;points=[[0,0.5],[1,0.5]];portConstraint=eastwest;top=0;left=0;right=0;bottom=0;" parent="4xDtvOxX5v2o2x7MNQAd-368" vertex="1">
                    <mxGeometry y="140" width="340" height="30" as="geometry"/>
                </mxCell>
                <mxCell id="4xDtvOxX5v2o2x7MNQAd-382" value="" style="shape=partialRectangle;overflow=hidden;connectable=0;fillColor=none;top=0;left=0;bottom=0;right=0;" parent="4xDtvOxX5v2o2x7MNQAd-381" vertex="1">
                    <mxGeometry width="50" height="30" as="geometry">
                        <mxRectangle width="50" height="30" as="alternateBounds"/>
                    </mxGeometry>
                </mxCell>
                <mxCell id="4xDtvOxX5v2o2x7MNQAd-383" value="postdate DATETIME NOT NULL" style="shape=partialRectangle;overflow=hidden;connectable=0;fillColor=none;top=0;left=0;bottom=0;right=0;align=left;spacingLeft=6;" parent="4xDtvOxX5v2o2x7MNQAd-381" vertex="1">
                    <mxGeometry x="50" width="290" height="30" as="geometry">
                        <mxRectangle width="290" height="30" as="alternateBounds"/>
                    </mxGeometry>
                </mxCell>
                <mxCell id="ElXl8IrQIq624-6-y2-J-43" value="" style="shape=partialRectangle;collapsible=0;dropTarget=0;pointerEvents=0;fillColor=none;points=[[0,0.5],[1,0.5]];portConstraint=eastwest;top=0;left=0;right=0;bottom=0;" parent="4xDtvOxX5v2o2x7MNQAd-368" vertex="1">
                    <mxGeometry y="170" width="340" height="30" as="geometry"/>
                </mxCell>
                <mxCell id="ElXl8IrQIq624-6-y2-J-44" value="" style="shape=partialRectangle;overflow=hidden;connectable=0;fillColor=none;top=0;left=0;bottom=0;right=0;" parent="ElXl8IrQIq624-6-y2-J-43" vertex="1">
                    <mxGeometry width="50" height="30" as="geometry">
                        <mxRectangle width="50" height="30" as="alternateBounds"/>
                    </mxGeometry>
                </mxCell>
                <mxCell id="ElXl8IrQIq624-6-y2-J-45" value="upvote_count DATETIME NOT NULL" style="shape=partialRectangle;overflow=hidden;connectable=0;fillColor=none;top=0;left=0;bottom=0;right=0;align=left;spacingLeft=6;" parent="ElXl8IrQIq624-6-y2-J-43" vertex="1">
                    <mxGeometry x="50" width="290" height="30" as="geometry">
                        <mxRectangle width="290" height="30" as="alternateBounds"/>
                    </mxGeometry>
                </mxCell>
                <mxCell id="rLERZ6MitKFpW3V04gqA-1" value="" style="shape=partialRectangle;collapsible=0;dropTarget=0;pointerEvents=0;fillColor=none;points=[[0,0.5],[1,0.5]];portConstraint=eastwest;top=0;left=0;right=0;bottom=0;" parent="4xDtvOxX5v2o2x7MNQAd-368" vertex="1">
                    <mxGeometry y="200" width="340" height="30" as="geometry"/>
                </mxCell>
                <mxCell id="rLERZ6MitKFpW3V04gqA-2" value="" style="shape=partialRectangle;overflow=hidden;connectable=0;fillColor=none;top=0;left=0;bottom=0;right=0;" parent="rLERZ6MitKFpW3V04gqA-1" vertex="1">
                    <mxGeometry width="50" height="30" as="geometry">
                        <mxRectangle width="50" height="30" as="alternateBounds"/>
                    </mxGeometry>
                </mxCell>
                <mxCell id="rLERZ6MitKFpW3V04gqA-3" value="course_rating FLOAT NOT NULL" style="shape=partialRectangle;overflow=hidden;connectable=0;fillColor=none;top=0;left=0;bottom=0;right=0;align=left;spacingLeft=6;" parent="rLERZ6MitKFpW3V04gqA-1" vertex="1">
                    <mxGeometry x="50" width="290" height="30" as="geometry">
                        <mxRectangle width="290" height="30" as="alternateBounds"/>
                    </mxGeometry>
                </mxCell>
                <mxCell id="rLERZ6MitKFpW3V04gqA-4" value="" style="shape=partialRectangle;collapsible=0;dropTarget=0;pointerEvents=0;fillColor=none;points=[[0,0.5],[1,0.5]];portConstraint=eastwest;top=0;left=0;right=0;bottom=0;" parent="4xDtvOxX5v2o2x7MNQAd-368" vertex="1">
                    <mxGeometry y="230" width="340" height="30" as="geometry"/>
                </mxCell>
                <mxCell id="rLERZ6MitKFpW3V04gqA-5" value="" style="shape=partialRectangle;overflow=hidden;connectable=0;fillColor=none;top=0;left=0;bottom=0;right=0;" parent="rLERZ6MitKFpW3V04gqA-4" vertex="1">
                    <mxGeometry width="50" height="30" as="geometry">
                        <mxRectangle width="50" height="30" as="alternateBounds"/>
                    </mxGeometry>
                </mxCell>
                <mxCell id="rLERZ6MitKFpW3V04gqA-6" value="prof_rating FLOAT NOT NULL" style="shape=partialRectangle;overflow=hidden;connectable=0;fillColor=none;top=0;left=0;bottom=0;right=0;align=left;spacingLeft=6;" parent="rLERZ6MitKFpW3V04gqA-4" vertex="1">
                    <mxGeometry x="50" width="290" height="30" as="geometry">
                        <mxRectangle width="290" height="30" as="alternateBounds"/>
                    </mxGeometry>
                </mxCell>
                <mxCell id="4xDtvOxX5v2o2x7MNQAd-401" style="edgeStyle=none;html=1;exitX=1;exitY=0.5;exitDx=0;exitDy=0;startArrow=ERmany;startFill=0;endArrow=baseDash;endFill=0;" parent="1" edge="1">
                    <mxGeometry relative="1" as="geometry">
                        <mxPoint x="-580" y="-740" as="targetPoint"/>
                        <Array as="points"/>
                        <mxPoint x="-1105" y="-1095" as="sourcePoint"/>
                    </mxGeometry>
                </mxCell>
                <mxCell id="4xDtvOxX5v2o2x7MNQAd-405" style="edgeStyle=none;html=1;exitX=1;exitY=0.5;exitDx=0;exitDy=0;entryX=0.25;entryY=1;entryDx=0;entryDy=0;startArrow=ERmany;startFill=0;endArrow=baseDash;endFill=0;" parent="1" source="4xDtvOxX5v2o2x7MNQAd-315" target="4xDtvOxX5v2o2x7MNQAd-1" edge="1">
                    <mxGeometry relative="1" as="geometry">
                        <Array as="points">
                            <mxPoint x="-495" y="-370"/>
                        </Array>
                    </mxGeometry>
                </mxCell>
                <mxCell id="4xDtvOxX5v2o2x7MNQAd-411" style="edgeStyle=none;html=1;exitX=0;exitY=0.5;exitDx=0;exitDy=0;startArrow=ERmany;startFill=0;endArrow=baseDash;endFill=0;entryX=1.005;entryY=0.952;entryDx=0;entryDy=0;entryPerimeter=0;" parent="1" source="rLERZ6MitKFpW3V04gqA-1" target="4xDtvOxX5v2o2x7MNQAd-2" edge="1">
                    <mxGeometry relative="1" as="geometry">
                        <mxPoint x="-230" y="-750" as="targetPoint"/>
                        <Array as="points">
                            <mxPoint x="-120" y="-905"/>
                            <mxPoint x="-120" y="-751"/>
                        </Array>
                    </mxGeometry>
                </mxCell>
                <mxCell id="4xDtvOxX5v2o2x7MNQAd-416" style="edgeStyle=none;html=1;entryX=0.5;entryY=0;entryDx=0;entryDy=0;startArrow=ERmany;startFill=0;endArrow=baseDash;endFill=0;exitX=0.5;exitY=1;exitDx=0;exitDy=0;" parent="1" source="4xDtvOxX5v2o2x7MNQAd-264" target="4xDtvOxX5v2o2x7MNQAd-227" edge="1">
                    <mxGeometry relative="1" as="geometry">
                        <mxPoint x="189.65999999999985" y="-367.9899999999998" as="sourcePoint"/>
                    </mxGeometry>
                </mxCell>
                <mxCell id="4xDtvOxX5v2o2x7MNQAd-457" style="edgeStyle=none;html=1;entryX=0.5;entryY=1;entryDx=0;entryDy=0;startArrow=ERmany;startFill=0;endArrow=baseDash;endFill=0;" parent="1" source="4xDtvOxX5v2o2x7MNQAd-426" target="4xDtvOxX5v2o2x7MNQAd-227" edge="1">
                    <mxGeometry relative="1" as="geometry"/>
                </mxCell>
                <mxCell id="4xDtvOxX5v2o2x7MNQAd-426" value="Linkedin_benchmark" style="shape=table;startSize=20;container=1;collapsible=1;childLayout=tableLayout;fixedRows=1;rowLines=0;fontStyle=1;align=center;resizeLast=1;" parent="1" vertex="1">
                    <mxGeometry x="-140" y="150" width="340" height="340" as="geometry"/>
                </mxCell>
                <mxCell id="4xDtvOxX5v2o2x7MNQAd-427" value="" style="shape=partialRectangle;collapsible=0;dropTarget=0;pointerEvents=0;fillColor=none;points=[[0,0.5],[1,0.5]];portConstraint=eastwest;top=0;left=0;right=0;bottom=1;" parent="4xDtvOxX5v2o2x7MNQAd-426" vertex="1">
                    <mxGeometry y="20" width="340" height="30" as="geometry"/>
                </mxCell>
                <mxCell id="4xDtvOxX5v2o2x7MNQAd-428" value="PK" style="shape=partialRectangle;overflow=hidden;connectable=0;fillColor=none;top=0;left=0;bottom=0;right=0;fontStyle=1;" parent="4xDtvOxX5v2o2x7MNQAd-427" vertex="1">
                    <mxGeometry width="30" height="30" as="geometry">
                        <mxRectangle width="30" height="30" as="alternateBounds"/>
                    </mxGeometry>
                </mxCell>
                <mxCell id="4xDtvOxX5v2o2x7MNQAd-429" value="benchmark_id INT NOT NULL " style="shape=partialRectangle;overflow=hidden;connectable=0;fillColor=none;top=0;left=0;bottom=0;right=0;align=left;spacingLeft=6;fontStyle=5;" parent="4xDtvOxX5v2o2x7MNQAd-427" vertex="1">
                    <mxGeometry x="30" width="310" height="30" as="geometry">
                        <mxRectangle width="310" height="30" as="alternateBounds"/>
                    </mxGeometry>
                </mxCell>
                <mxCell id="4xDtvOxX5v2o2x7MNQAd-430" value="" style="shape=partialRectangle;collapsible=0;dropTarget=0;pointerEvents=0;fillColor=none;points=[[0,0.5],[1,0.5]];portConstraint=eastwest;top=0;left=0;right=0;bottom=0;" parent="4xDtvOxX5v2o2x7MNQAd-426" vertex="1">
                    <mxGeometry y="50" width="340" height="30" as="geometry"/>
                </mxCell>
                <mxCell id="4xDtvOxX5v2o2x7MNQAd-431" value="" style="shape=partialRectangle;overflow=hidden;connectable=0;fillColor=none;top=0;left=0;bottom=0;right=0;" parent="4xDtvOxX5v2o2x7MNQAd-430" vertex="1">
                    <mxGeometry width="30" height="30" as="geometry">
                        <mxRectangle width="30" height="30" as="alternateBounds"/>
                    </mxGeometry>
                </mxCell>
                <mxCell id="4xDtvOxX5v2o2x7MNQAd-432" value="job_title TEXT NOT NULL" style="shape=partialRectangle;overflow=hidden;connectable=0;fillColor=none;top=0;left=0;bottom=0;right=0;align=left;spacingLeft=6;" parent="4xDtvOxX5v2o2x7MNQAd-430" vertex="1">
                    <mxGeometry x="30" width="310" height="30" as="geometry">
                        <mxRectangle width="310" height="30" as="alternateBounds"/>
                    </mxGeometry>
                </mxCell>
                <mxCell id="4xDtvOxX5v2o2x7MNQAd-433" value="" style="shape=partialRectangle;collapsible=0;dropTarget=0;pointerEvents=0;fillColor=none;points=[[0,0.5],[1,0.5]];portConstraint=eastwest;top=0;left=0;right=0;bottom=0;" parent="4xDtvOxX5v2o2x7MNQAd-426" vertex="1">
                    <mxGeometry y="80" width="340" height="30" as="geometry"/>
                </mxCell>
                <mxCell id="4xDtvOxX5v2o2x7MNQAd-434" value="" style="shape=partialRectangle;overflow=hidden;connectable=0;fillColor=none;top=0;left=0;bottom=0;right=0;" parent="4xDtvOxX5v2o2x7MNQAd-433" vertex="1">
                    <mxGeometry width="30" height="30" as="geometry">
                        <mxRectangle width="30" height="30" as="alternateBounds"/>
                    </mxGeometry>
                </mxCell>
                <mxCell id="4xDtvOxX5v2o2x7MNQAd-435" value="industry TEXT NOT NULL" style="shape=partialRectangle;overflow=hidden;connectable=0;fillColor=none;top=0;left=0;bottom=0;right=0;align=left;spacingLeft=6;" parent="4xDtvOxX5v2o2x7MNQAd-433" vertex="1">
                    <mxGeometry x="30" width="310" height="30" as="geometry">
                        <mxRectangle width="310" height="30" as="alternateBounds"/>
                    </mxGeometry>
                </mxCell>
                <mxCell id="4xDtvOxX5v2o2x7MNQAd-436" value="" style="shape=partialRectangle;collapsible=0;dropTarget=0;pointerEvents=0;fillColor=none;points=[[0,0.5],[1,0.5]];portConstraint=eastwest;top=0;left=0;right=0;bottom=0;" parent="4xDtvOxX5v2o2x7MNQAd-426" vertex="1">
                    <mxGeometry y="110" width="340" height="30" as="geometry"/>
                </mxCell>
                <mxCell id="4xDtvOxX5v2o2x7MNQAd-437" value="" style="shape=partialRectangle;overflow=hidden;connectable=0;fillColor=none;top=0;left=0;bottom=0;right=0;" parent="4xDtvOxX5v2o2x7MNQAd-436" vertex="1">
                    <mxGeometry width="30" height="30" as="geometry">
                        <mxRectangle width="30" height="30" as="alternateBounds"/>
                    </mxGeometry>
                </mxCell>
                <mxCell id="4xDtvOxX5v2o2x7MNQAd-438" value="experience_level ENUM NOT NULL" style="shape=partialRectangle;overflow=hidden;connectable=0;fillColor=none;top=0;left=0;bottom=0;right=0;align=left;spacingLeft=6;" parent="4xDtvOxX5v2o2x7MNQAd-436" vertex="1">
                    <mxGeometry x="30" width="310" height="30" as="geometry">
                        <mxRectangle width="310" height="30" as="alternateBounds"/>
                    </mxGeometry>
                </mxCell>
                <mxCell id="4xDtvOxX5v2o2x7MNQAd-439" value="" style="shape=partialRectangle;collapsible=0;dropTarget=0;pointerEvents=0;fillColor=none;points=[[0,0.5],[1,0.5]];portConstraint=eastwest;top=0;left=0;right=0;bottom=0;" parent="4xDtvOxX5v2o2x7MNQAd-426" vertex="1">
                    <mxGeometry y="140" width="340" height="30" as="geometry"/>
                </mxCell>
                <mxCell id="4xDtvOxX5v2o2x7MNQAd-440" value="" style="shape=partialRectangle;overflow=hidden;connectable=0;fillColor=none;top=0;left=0;bottom=0;right=0;" parent="4xDtvOxX5v2o2x7MNQAd-439" vertex="1">
                    <mxGeometry width="30" height="30" as="geometry">
                        <mxRectangle width="30" height="30" as="alternateBounds"/>
                    </mxGeometry>
                </mxCell>
                <mxCell id="4xDtvOxX5v2o2x7MNQAd-441" value="region TEXT NOT NULL" style="shape=partialRectangle;overflow=hidden;connectable=0;fillColor=none;top=0;left=0;bottom=0;right=0;align=left;spacingLeft=6;" parent="4xDtvOxX5v2o2x7MNQAd-439" vertex="1">
                    <mxGeometry x="30" width="310" height="30" as="geometry">
                        <mxRectangle width="310" height="30" as="alternateBounds"/>
                    </mxGeometry>
                </mxCell>
                <mxCell id="4xDtvOxX5v2o2x7MNQAd-442" value="" style="shape=partialRectangle;collapsible=0;dropTarget=0;pointerEvents=0;fillColor=none;points=[[0,0.5],[1,0.5]];portConstraint=eastwest;top=0;left=0;right=0;bottom=0;" parent="4xDtvOxX5v2o2x7MNQAd-426" vertex="1">
                    <mxGeometry y="170" width="340" height="30" as="geometry"/>
                </mxCell>
                <mxCell id="4xDtvOxX5v2o2x7MNQAd-443" value="FK" style="shape=partialRectangle;overflow=hidden;connectable=0;fillColor=none;top=0;left=0;bottom=0;right=0;" parent="4xDtvOxX5v2o2x7MNQAd-442" vertex="1">
                    <mxGeometry width="30" height="30" as="geometry">
                        <mxRectangle width="30" height="30" as="alternateBounds"/>
                    </mxGeometry>
                </mxCell>
                <mxCell id="4xDtvOxX5v2o2x7MNQAd-444" value="skill_id INT NOT NULL" style="shape=partialRectangle;overflow=hidden;connectable=0;fillColor=none;top=0;left=0;bottom=0;right=0;align=left;spacingLeft=6;" parent="4xDtvOxX5v2o2x7MNQAd-442" vertex="1">
                    <mxGeometry x="30" width="310" height="30" as="geometry">
                        <mxRectangle width="310" height="30" as="alternateBounds"/>
                    </mxGeometry>
                </mxCell>
                <mxCell id="4xDtvOxX5v2o2x7MNQAd-445" value="" style="shape=partialRectangle;collapsible=0;dropTarget=0;pointerEvents=0;fillColor=none;points=[[0,0.5],[1,0.5]];portConstraint=eastwest;top=0;left=0;right=0;bottom=0;" parent="4xDtvOxX5v2o2x7MNQAd-426" vertex="1">
                    <mxGeometry y="200" width="340" height="30" as="geometry"/>
                </mxCell>
                <mxCell id="4xDtvOxX5v2o2x7MNQAd-446" value="" style="shape=partialRectangle;overflow=hidden;connectable=0;fillColor=none;top=0;left=0;bottom=0;right=0;" parent="4xDtvOxX5v2o2x7MNQAd-445" vertex="1">
                    <mxGeometry width="30" height="30" as="geometry">
                        <mxRectangle width="30" height="30" as="alternateBounds"/>
                    </mxGeometry>
                </mxCell>
                <mxCell id="4xDtvOxX5v2o2x7MNQAd-447" value="skill_name TEXT NOT NULL" style="shape=partialRectangle;overflow=hidden;connectable=0;fillColor=none;top=0;left=0;bottom=0;right=0;align=left;spacingLeft=6;" parent="4xDtvOxX5v2o2x7MNQAd-445" vertex="1">
                    <mxGeometry x="30" width="310" height="30" as="geometry">
                        <mxRectangle width="310" height="30" as="alternateBounds"/>
                    </mxGeometry>
                </mxCell>
                <mxCell id="4xDtvOxX5v2o2x7MNQAd-448" value="" style="shape=partialRectangle;collapsible=0;dropTarget=0;pointerEvents=0;fillColor=none;points=[[0,0.5],[1,0.5]];portConstraint=eastwest;top=0;left=0;right=0;bottom=0;" parent="4xDtvOxX5v2o2x7MNQAd-426" vertex="1">
                    <mxGeometry y="230" width="340" height="30" as="geometry"/>
                </mxCell>
                <mxCell id="4xDtvOxX5v2o2x7MNQAd-449" value="" style="shape=partialRectangle;overflow=hidden;connectable=0;fillColor=none;top=0;left=0;bottom=0;right=0;" parent="4xDtvOxX5v2o2x7MNQAd-448" vertex="1">
                    <mxGeometry width="30" height="30" as="geometry">
                        <mxRectangle width="30" height="30" as="alternateBounds"/>
                    </mxGeometry>
                </mxCell>
                <mxCell id="4xDtvOxX5v2o2x7MNQAd-450" value="skill_category ENUM NOT NULL" style="shape=partialRectangle;overflow=hidden;connectable=0;fillColor=none;top=0;left=0;bottom=0;right=0;align=left;spacingLeft=6;" parent="4xDtvOxX5v2o2x7MNQAd-448" vertex="1">
                    <mxGeometry x="30" width="310" height="30" as="geometry">
                        <mxRectangle width="310" height="30" as="alternateBounds"/>
                    </mxGeometry>
                </mxCell>
                <mxCell id="4xDtvOxX5v2o2x7MNQAd-451" value="" style="shape=partialRectangle;collapsible=0;dropTarget=0;pointerEvents=0;fillColor=none;points=[[0,0.5],[1,0.5]];portConstraint=eastwest;top=0;left=0;right=0;bottom=0;" parent="4xDtvOxX5v2o2x7MNQAd-426" vertex="1">
                    <mxGeometry y="260" width="340" height="30" as="geometry"/>
                </mxCell>
                <mxCell id="4xDtvOxX5v2o2x7MNQAd-452" value="" style="shape=partialRectangle;overflow=hidden;connectable=0;fillColor=none;top=0;left=0;bottom=0;right=0;" parent="4xDtvOxX5v2o2x7MNQAd-451" vertex="1">
                    <mxGeometry width="30" height="30" as="geometry">
                        <mxRectangle width="30" height="30" as="alternateBounds"/>
                    </mxGeometry>
                </mxCell>
                <mxCell id="4xDtvOxX5v2o2x7MNQAd-453" value="average_proficiency_score FLOAT NOT NULL" style="shape=partialRectangle;overflow=hidden;connectable=0;fillColor=none;top=0;left=0;bottom=0;right=0;align=left;spacingLeft=6;" parent="4xDtvOxX5v2o2x7MNQAd-451" vertex="1">
                    <mxGeometry x="30" width="310" height="30" as="geometry">
                        <mxRectangle width="310" height="30" as="alternateBounds"/>
                    </mxGeometry>
                </mxCell>
                <mxCell id="4xDtvOxX5v2o2x7MNQAd-454" value="" style="shape=partialRectangle;collapsible=0;dropTarget=0;pointerEvents=0;fillColor=none;points=[[0,0.5],[1,0.5]];portConstraint=eastwest;top=0;left=0;right=0;bottom=0;" parent="4xDtvOxX5v2o2x7MNQAd-426" vertex="1">
                    <mxGeometry y="290" width="340" height="30" as="geometry"/>
                </mxCell>
                <mxCell id="4xDtvOxX5v2o2x7MNQAd-455" value="" style="shape=partialRectangle;overflow=hidden;connectable=0;fillColor=none;top=0;left=0;bottom=0;right=0;" parent="4xDtvOxX5v2o2x7MNQAd-454" vertex="1">
                    <mxGeometry width="30" height="30" as="geometry">
                        <mxRectangle width="30" height="30" as="alternateBounds"/>
                    </mxGeometry>
                </mxCell>
                <mxCell id="4xDtvOxX5v2o2x7MNQAd-456" value="created_at DATETIME NOT NULL" style="shape=partialRectangle;overflow=hidden;connectable=0;fillColor=none;top=0;left=0;bottom=0;right=0;align=left;spacingLeft=6;" parent="4xDtvOxX5v2o2x7MNQAd-454" vertex="1">
                    <mxGeometry x="30" width="310" height="30" as="geometry">
                        <mxRectangle width="310" height="30" as="alternateBounds"/>
                    </mxGeometry>
                </mxCell>
                <mxCell id="ElXl8IrQIq624-6-y2-J-14" value="Study_plan_certificate" style="shape=table;startSize=20;container=1;collapsible=1;childLayout=tableLayout;fixedRows=1;rowLines=0;fontStyle=1;align=center;resizeLast=1;" parent="1" vertex="1">
                    <mxGeometry x="-1650" y="-180" width="340" height="160" as="geometry"/>
                </mxCell>
                <mxCell id="ElXl8IrQIq624-6-y2-J-15" value="" style="shape=partialRectangle;collapsible=0;dropTarget=0;pointerEvents=0;fillColor=none;points=[[0,0.5],[1,0.5]];portConstraint=eastwest;top=0;left=0;right=0;bottom=0;" parent="ElXl8IrQIq624-6-y2-J-14" vertex="1">
                    <mxGeometry y="20" width="340" height="30" as="geometry"/>
                </mxCell>
                <mxCell id="ElXl8IrQIq624-6-y2-J-16" value="PK, FK" style="shape=partialRectangle;overflow=hidden;connectable=0;fillColor=none;top=0;left=0;bottom=0;right=0;" parent="ElXl8IrQIq624-6-y2-J-15" vertex="1">
                    <mxGeometry width="50" height="30" as="geometry">
                        <mxRectangle width="50" height="30" as="alternateBounds"/>
                    </mxGeometry>
                </mxCell>
                <mxCell id="ElXl8IrQIq624-6-y2-J-17" value="plan_id INT NOT NULL" style="shape=partialRectangle;overflow=hidden;connectable=0;fillColor=none;top=0;left=0;bottom=0;right=0;align=left;spacingLeft=6;" parent="ElXl8IrQIq624-6-y2-J-15" vertex="1">
                    <mxGeometry x="50" width="290" height="30" as="geometry">
                        <mxRectangle width="290" height="30" as="alternateBounds"/>
                    </mxGeometry>
                </mxCell>
                <mxCell id="ElXl8IrQIq624-6-y2-J-18" value="" style="shape=partialRectangle;collapsible=0;dropTarget=0;pointerEvents=0;fillColor=none;points=[[0,0.5],[1,0.5]];portConstraint=eastwest;top=0;left=0;right=0;bottom=0;" parent="ElXl8IrQIq624-6-y2-J-14" vertex="1">
                    <mxGeometry y="50" width="340" height="30" as="geometry"/>
                </mxCell>
                <mxCell id="ElXl8IrQIq624-6-y2-J-19" value="PK, FK" style="shape=partialRectangle;overflow=hidden;connectable=0;fillColor=none;top=0;left=0;bottom=0;right=0;" parent="ElXl8IrQIq624-6-y2-J-18" vertex="1">
                    <mxGeometry width="50" height="30" as="geometry">
                        <mxRectangle width="50" height="30" as="alternateBounds"/>
                    </mxGeometry>
                </mxCell>
                <mxCell id="ElXl8IrQIq624-6-y2-J-20" value="re_cert_id INT NOT NULL" style="shape=partialRectangle;overflow=hidden;connectable=0;fillColor=none;top=0;left=0;bottom=0;right=0;align=left;spacingLeft=6;" parent="ElXl8IrQIq624-6-y2-J-18" vertex="1">
                    <mxGeometry x="50" width="290" height="30" as="geometry">
                        <mxRectangle width="290" height="30" as="alternateBounds"/>
                    </mxGeometry>
                </mxCell>
                <mxCell id="ElXl8IrQIq624-6-y2-J-21" value="" style="shape=partialRectangle;collapsible=0;dropTarget=0;pointerEvents=0;fillColor=none;points=[[0,0.5],[1,0.5]];portConstraint=eastwest;top=0;left=0;right=0;bottom=0;" parent="ElXl8IrQIq624-6-y2-J-14" vertex="1">
                    <mxGeometry y="80" width="340" height="30" as="geometry"/>
                </mxCell>
                <mxCell id="ElXl8IrQIq624-6-y2-J-22" value="" style="shape=partialRectangle;overflow=hidden;connectable=0;fillColor=none;top=0;left=0;bottom=0;right=0;" parent="ElXl8IrQIq624-6-y2-J-21" vertex="1">
                    <mxGeometry width="50" height="30" as="geometry">
                        <mxRectangle width="50" height="30" as="alternateBounds"/>
                    </mxGeometry>
                </mxCell>
                <mxCell id="ElXl8IrQIq624-6-y2-J-23" value="target_grade TEXT NOT NULL" style="shape=partialRectangle;overflow=hidden;connectable=0;fillColor=none;top=0;left=0;bottom=0;right=0;align=left;spacingLeft=6;" parent="ElXl8IrQIq624-6-y2-J-21" vertex="1">
                    <mxGeometry x="50" width="290" height="30" as="geometry">
                        <mxRectangle width="290" height="30" as="alternateBounds"/>
                    </mxGeometry>
                </mxCell>
                <mxCell id="ElXl8IrQIq624-6-y2-J-24" value="" style="shape=partialRectangle;collapsible=0;dropTarget=0;pointerEvents=0;fillColor=none;points=[[0,0.5],[1,0.5]];portConstraint=eastwest;top=0;left=0;right=0;bottom=0;" parent="ElXl8IrQIq624-6-y2-J-14" vertex="1">
                    <mxGeometry y="110" width="340" height="30" as="geometry"/>
                </mxCell>
                <mxCell id="ElXl8IrQIq624-6-y2-J-25" value="" style="shape=partialRectangle;overflow=hidden;connectable=0;fillColor=none;top=0;left=0;bottom=0;right=0;" parent="ElXl8IrQIq624-6-y2-J-24" vertex="1">
                    <mxGeometry width="50" height="30" as="geometry">
                        <mxRectangle width="50" height="30" as="alternateBounds"/>
                    </mxGeometry>
                </mxCell>
                <mxCell id="ElXl8IrQIq624-6-y2-J-26" value="progress_status ENUM NOT NULL" style="shape=partialRectangle;overflow=hidden;connectable=0;fillColor=none;top=0;left=0;bottom=0;right=0;align=left;spacingLeft=6;" parent="ElXl8IrQIq624-6-y2-J-24" vertex="1">
                    <mxGeometry x="50" width="290" height="30" as="geometry">
                        <mxRectangle width="290" height="30" as="alternateBounds"/>
                    </mxGeometry>
                </mxCell>
                <mxCell id="ElXl8IrQIq624-6-y2-J-27" value="Study_plan_external_courses" style="shape=table;startSize=20;container=1;collapsible=1;childLayout=tableLayout;fixedRows=1;rowLines=0;fontStyle=1;align=center;resizeLast=1;" parent="1" vertex="1">
                    <mxGeometry x="-2040" y="-180" width="340" height="150" as="geometry"/>
                </mxCell>
                <mxCell id="ElXl8IrQIq624-6-y2-J-28" value="" style="shape=partialRectangle;collapsible=0;dropTarget=0;pointerEvents=0;fillColor=none;points=[[0,0.5],[1,0.5]];portConstraint=eastwest;top=0;left=0;right=0;bottom=0;" parent="ElXl8IrQIq624-6-y2-J-27" vertex="1">
                    <mxGeometry y="20" width="340" height="30" as="geometry"/>
                </mxCell>
                <mxCell id="ElXl8IrQIq624-6-y2-J-29" value="PK, FK" style="shape=partialRectangle;overflow=hidden;connectable=0;fillColor=none;top=0;left=0;bottom=0;right=0;" parent="ElXl8IrQIq624-6-y2-J-28" vertex="1">
                    <mxGeometry width="50" height="30" as="geometry">
                        <mxRectangle width="50" height="30" as="alternateBounds"/>
                    </mxGeometry>
                </mxCell>
                <mxCell id="ElXl8IrQIq624-6-y2-J-30" value="plan_id INT NOT NULL" style="shape=partialRectangle;overflow=hidden;connectable=0;fillColor=none;top=0;left=0;bottom=0;right=0;align=left;spacingLeft=6;" parent="ElXl8IrQIq624-6-y2-J-28" vertex="1">
                    <mxGeometry x="50" width="290" height="30" as="geometry">
                        <mxRectangle width="290" height="30" as="alternateBounds"/>
                    </mxGeometry>
                </mxCell>
                <mxCell id="ElXl8IrQIq624-6-y2-J-31" value="" style="shape=partialRectangle;collapsible=0;dropTarget=0;pointerEvents=0;fillColor=none;points=[[0,0.5],[1,0.5]];portConstraint=eastwest;top=0;left=0;right=0;bottom=0;" parent="ElXl8IrQIq624-6-y2-J-27" vertex="1">
                    <mxGeometry y="50" width="340" height="30" as="geometry"/>
                </mxCell>
                <mxCell id="ElXl8IrQIq624-6-y2-J-32" value="PK, FK" style="shape=partialRectangle;overflow=hidden;connectable=0;fillColor=none;top=0;left=0;bottom=0;right=0;" parent="ElXl8IrQIq624-6-y2-J-31" vertex="1">
                    <mxGeometry width="50" height="30" as="geometry">
                        <mxRectangle width="50" height="30" as="alternateBounds"/>
                    </mxGeometry>
                </mxCell>
                <mxCell id="ElXl8IrQIq624-6-y2-J-33" value="re_external_course_id INT NOT NULL" style="shape=partialRectangle;overflow=hidden;connectable=0;fillColor=none;top=0;left=0;bottom=0;right=0;align=left;spacingLeft=6;" parent="ElXl8IrQIq624-6-y2-J-31" vertex="1">
                    <mxGeometry x="50" width="290" height="30" as="geometry">
                        <mxRectangle width="290" height="30" as="alternateBounds"/>
                    </mxGeometry>
                </mxCell>
                <mxCell id="ElXl8IrQIq624-6-y2-J-34" value="" style="shape=partialRectangle;collapsible=0;dropTarget=0;pointerEvents=0;fillColor=none;points=[[0,0.5],[1,0.5]];portConstraint=eastwest;top=0;left=0;right=0;bottom=0;" parent="ElXl8IrQIq624-6-y2-J-27" vertex="1">
                    <mxGeometry y="80" width="340" height="20" as="geometry"/>
                </mxCell>
                <mxCell id="ElXl8IrQIq624-6-y2-J-35" value="" style="shape=partialRectangle;overflow=hidden;connectable=0;fillColor=none;top=0;left=0;bottom=0;right=0;" parent="ElXl8IrQIq624-6-y2-J-34" vertex="1">
                    <mxGeometry width="50" height="20" as="geometry">
                        <mxRectangle width="50" height="20" as="alternateBounds"/>
                    </mxGeometry>
                </mxCell>
                <mxCell id="ElXl8IrQIq624-6-y2-J-36" value="target_grade TEXT NOT NULL" style="shape=partialRectangle;overflow=hidden;connectable=0;fillColor=none;top=0;left=0;bottom=0;right=0;align=left;spacingLeft=6;" parent="ElXl8IrQIq624-6-y2-J-34" vertex="1">
                    <mxGeometry x="50" width="290" height="20" as="geometry">
                        <mxRectangle width="290" height="20" as="alternateBounds"/>
                    </mxGeometry>
                </mxCell>
                <mxCell id="ElXl8IrQIq624-6-y2-J-37" value="" style="shape=partialRectangle;collapsible=0;dropTarget=0;pointerEvents=0;fillColor=none;points=[[0,0.5],[1,0.5]];portConstraint=eastwest;top=0;left=0;right=0;bottom=0;" parent="ElXl8IrQIq624-6-y2-J-27" vertex="1">
                    <mxGeometry y="100" width="340" height="30" as="geometry"/>
                </mxCell>
                <mxCell id="ElXl8IrQIq624-6-y2-J-38" value="" style="shape=partialRectangle;overflow=hidden;connectable=0;fillColor=none;top=0;left=0;bottom=0;right=0;" parent="ElXl8IrQIq624-6-y2-J-37" vertex="1">
                    <mxGeometry width="50" height="30" as="geometry">
                        <mxRectangle width="50" height="30" as="alternateBounds"/>
                    </mxGeometry>
                </mxCell>
                <mxCell id="ElXl8IrQIq624-6-y2-J-39" value="progress_status ENUM NOT NULL" style="shape=partialRectangle;overflow=hidden;connectable=0;fillColor=none;top=0;left=0;bottom=0;right=0;align=left;spacingLeft=6;" parent="ElXl8IrQIq624-6-y2-J-37" vertex="1">
                    <mxGeometry x="50" width="290" height="30" as="geometry">
                        <mxRectangle width="290" height="30" as="alternateBounds"/>
                    </mxGeometry>
                </mxCell>
                <mxCell id="ElXl8IrQIq624-6-y2-J-46" value="Study_plan_projects" style="shape=table;startSize=20;container=1;collapsible=1;childLayout=tableLayout;fixedRows=1;rowLines=0;fontStyle=1;align=center;resizeLast=1;" parent="1" vertex="1">
                    <mxGeometry x="-2440" y="-180" width="340" height="130" as="geometry"/>
                </mxCell>
                <mxCell id="ElXl8IrQIq624-6-y2-J-47" value="" style="shape=partialRectangle;collapsible=0;dropTarget=0;pointerEvents=0;fillColor=none;points=[[0,0.5],[1,0.5]];portConstraint=eastwest;top=0;left=0;right=0;bottom=0;" parent="ElXl8IrQIq624-6-y2-J-46" vertex="1">
                    <mxGeometry y="20" width="340" height="30" as="geometry"/>
                </mxCell>
                <mxCell id="ElXl8IrQIq624-6-y2-J-48" value="PK, FK" style="shape=partialRectangle;overflow=hidden;connectable=0;fillColor=none;top=0;left=0;bottom=0;right=0;" parent="ElXl8IrQIq624-6-y2-J-47" vertex="1">
                    <mxGeometry width="50" height="30" as="geometry">
                        <mxRectangle width="50" height="30" as="alternateBounds"/>
                    </mxGeometry>
                </mxCell>
                <mxCell id="ElXl8IrQIq624-6-y2-J-49" value="plan_id INT NOT NULL" style="shape=partialRectangle;overflow=hidden;connectable=0;fillColor=none;top=0;left=0;bottom=0;right=0;align=left;spacingLeft=6;" parent="ElXl8IrQIq624-6-y2-J-47" vertex="1">
                    <mxGeometry x="50" width="290" height="30" as="geometry">
                        <mxRectangle width="290" height="30" as="alternateBounds"/>
                    </mxGeometry>
                </mxCell>
                <mxCell id="ElXl8IrQIq624-6-y2-J-50" value="" style="shape=partialRectangle;collapsible=0;dropTarget=0;pointerEvents=0;fillColor=none;points=[[0,0.5],[1,0.5]];portConstraint=eastwest;top=0;left=0;right=0;bottom=0;" parent="ElXl8IrQIq624-6-y2-J-46" vertex="1">
                    <mxGeometry y="50" width="340" height="30" as="geometry"/>
                </mxCell>
                <mxCell id="ElXl8IrQIq624-6-y2-J-51" value="PK, FK" style="shape=partialRectangle;overflow=hidden;connectable=0;fillColor=none;top=0;left=0;bottom=0;right=0;" parent="ElXl8IrQIq624-6-y2-J-50" vertex="1">
                    <mxGeometry width="50" height="30" as="geometry">
                        <mxRectangle width="50" height="30" as="alternateBounds"/>
                    </mxGeometry>
                </mxCell>
                <mxCell id="ElXl8IrQIq624-6-y2-J-52" value="re_project_id INT NOT NULL" style="shape=partialRectangle;overflow=hidden;connectable=0;fillColor=none;top=0;left=0;bottom=0;right=0;align=left;spacingLeft=6;" parent="ElXl8IrQIq624-6-y2-J-50" vertex="1">
                    <mxGeometry x="50" width="290" height="30" as="geometry">
                        <mxRectangle width="290" height="30" as="alternateBounds"/>
                    </mxGeometry>
                </mxCell>
                <mxCell id="ElXl8IrQIq624-6-y2-J-56" value="" style="shape=partialRectangle;collapsible=0;dropTarget=0;pointerEvents=0;fillColor=none;points=[[0,0.5],[1,0.5]];portConstraint=eastwest;top=0;left=0;right=0;bottom=0;" parent="ElXl8IrQIq624-6-y2-J-46" vertex="1">
                    <mxGeometry y="80" width="340" height="30" as="geometry"/>
                </mxCell>
                <mxCell id="ElXl8IrQIq624-6-y2-J-57" value="" style="shape=partialRectangle;overflow=hidden;connectable=0;fillColor=none;top=0;left=0;bottom=0;right=0;" parent="ElXl8IrQIq624-6-y2-J-56" vertex="1">
                    <mxGeometry width="50" height="30" as="geometry">
                        <mxRectangle width="50" height="30" as="alternateBounds"/>
                    </mxGeometry>
                </mxCell>
                <mxCell id="ElXl8IrQIq624-6-y2-J-58" value="progress_status ENUM NOT NULL" style="shape=partialRectangle;overflow=hidden;connectable=0;fillColor=none;top=0;left=0;bottom=0;right=0;align=left;spacingLeft=6;" parent="ElXl8IrQIq624-6-y2-J-56" vertex="1">
                    <mxGeometry x="50" width="290" height="30" as="geometry">
                        <mxRectangle width="290" height="30" as="alternateBounds"/>
                    </mxGeometry>
                </mxCell>
                <mxCell id="nkqn70-d-f-3o_hXStP2-2" style="edgeStyle=none;html=1;entryX=0.25;entryY=1;entryDx=0;entryDy=0;startArrow=ERmany;startFill=0;endArrow=baseDash;endFill=0;exitX=0.5;exitY=0;exitDx=0;exitDy=0;" parent="1" source="ElXl8IrQIq624-6-y2-J-14" target="4xDtvOxX5v2o2x7MNQAd-305" edge="1">
                    <mxGeometry relative="1" as="geometry">
                        <mxPoint x="-1180" y="-180" as="sourcePoint"/>
                        <mxPoint x="-1180" y="-275" as="targetPoint"/>
                    </mxGeometry>
                </mxCell>
                <mxCell id="nkqn70-d-f-3o_hXStP2-3" style="edgeStyle=none;html=1;entryX=0.5;entryY=1;entryDx=0;entryDy=0;startArrow=ERmany;startFill=0;endArrow=baseDash;endFill=0;exitX=0.5;exitY=0;exitDx=0;exitDy=0;" parent="1" source="ElXl8IrQIq624-6-y2-J-27" edge="1">
                    <mxGeometry relative="1" as="geometry">
                        <mxPoint x="-1560" y="-210" as="sourcePoint"/>
                        <mxPoint x="-1260" y="-305" as="targetPoint"/>
                    </mxGeometry>
                </mxCell>
                <mxCell id="nkqn70-d-f-3o_hXStP2-4" style="edgeStyle=none;html=1;entryX=0.5;entryY=1;entryDx=0;entryDy=0;startArrow=ERmany;startFill=0;endArrow=baseDash;endFill=0;exitX=0.5;exitY=0;exitDx=0;exitDy=0;" parent="1" source="ElXl8IrQIq624-6-y2-J-46" edge="1">
                    <mxGeometry relative="1" as="geometry">
                        <mxPoint x="-1870" y="-235" as="sourcePoint"/>
                        <mxPoint x="-1260" y="-360" as="targetPoint"/>
                    </mxGeometry>
                </mxCell>
                <mxCell id="nkqn70-d-f-3o_hXStP2-5" style="edgeStyle=none;html=1;entryX=0.5;entryY=0;entryDx=0;entryDy=0;startArrow=ERmany;startFill=0;endArrow=baseDash;endFill=0;exitX=0.5;exitY=1;exitDx=0;exitDy=0;" parent="1" source="ElXl8IrQIq624-6-y2-J-14" edge="1" target="nkqn70-d-f-3o_hXStP2-8">
                    <mxGeometry relative="1" as="geometry">
                        <mxPoint x="-1460" y="-10" as="sourcePoint"/>
                        <mxPoint x="-1480.91" y="-20" as="targetPoint"/>
                    </mxGeometry>
                </mxCell>
                <mxCell id="nkqn70-d-f-3o_hXStP2-6" style="edgeStyle=none;html=1;startArrow=ERmany;startFill=0;endArrow=baseDash;endFill=0;" parent="1" edge="1" target="nkqn70-d-f-3o_hXStP2-21">
                    <mxGeometry relative="1" as="geometry">
                        <mxPoint x="-1880" y="-30" as="sourcePoint"/>
                        <mxPoint x="-1880" y="-30" as="targetPoint"/>
                    </mxGeometry>
                </mxCell>
                <mxCell id="nkqn70-d-f-3o_hXStP2-7" style="edgeStyle=none;html=1;entryX=0.5;entryY=0;entryDx=0;entryDy=0;startArrow=ERmany;startFill=0;endArrow=baseDash;endFill=0;" parent="1" edge="1" target="nkqn70-d-f-3o_hXStP2-34">
                    <mxGeometry relative="1" as="geometry">
                        <mxPoint x="-2280" y="-50" as="sourcePoint"/>
                        <mxPoint x="-2280" y="-20" as="targetPoint"/>
                    </mxGeometry>
                </mxCell>
                <mxCell id="nkqn70-d-f-3o_hXStP2-8" value="recommended_certificate" style="shape=table;startSize=20;container=1;collapsible=1;childLayout=tableLayout;fixedRows=1;rowLines=0;fontStyle=1;align=center;resizeLast=1;" parent="1" vertex="1">
                    <mxGeometry x="-1650" y="80" width="340" height="160" as="geometry"/>
                </mxCell>
                <mxCell id="nkqn70-d-f-3o_hXStP2-9" value="" style="shape=partialRectangle;collapsible=0;dropTarget=0;pointerEvents=0;fillColor=none;points=[[0,0.5],[1,0.5]];portConstraint=eastwest;top=0;left=0;right=0;bottom=1;" parent="nkqn70-d-f-3o_hXStP2-8" vertex="1">
                    <mxGeometry y="20" width="340" height="30" as="geometry"/>
                </mxCell>
                <mxCell id="nkqn70-d-f-3o_hXStP2-10" value="PK" style="shape=partialRectangle;overflow=hidden;connectable=0;fillColor=none;top=0;left=0;bottom=0;right=0;fontStyle=1;" parent="nkqn70-d-f-3o_hXStP2-9" vertex="1">
                    <mxGeometry width="50" height="30" as="geometry">
                        <mxRectangle width="50" height="30" as="alternateBounds"/>
                    </mxGeometry>
                </mxCell>
                <mxCell id="nkqn70-d-f-3o_hXStP2-11" value="re_cert_id INT NOT NULL " style="shape=partialRectangle;overflow=hidden;connectable=0;fillColor=none;top=0;left=0;bottom=0;right=0;align=left;spacingLeft=6;fontStyle=5;" parent="nkqn70-d-f-3o_hXStP2-9" vertex="1">
                    <mxGeometry x="50" width="290" height="30" as="geometry">
                        <mxRectangle width="290" height="30" as="alternateBounds"/>
                    </mxGeometry>
                </mxCell>
                <mxCell id="nkqn70-d-f-3o_hXStP2-12" value="" style="shape=partialRectangle;collapsible=0;dropTarget=0;pointerEvents=0;fillColor=none;points=[[0,0.5],[1,0.5]];portConstraint=eastwest;top=0;left=0;right=0;bottom=0;" parent="nkqn70-d-f-3o_hXStP2-8" vertex="1">
                    <mxGeometry y="50" width="340" height="30" as="geometry"/>
                </mxCell>
                <mxCell id="nkqn70-d-f-3o_hXStP2-13" value="FK" style="shape=partialRectangle;overflow=hidden;connectable=0;fillColor=none;top=0;left=0;bottom=0;right=0;" parent="nkqn70-d-f-3o_hXStP2-12" vertex="1">
                    <mxGeometry width="50" height="30" as="geometry">
                        <mxRectangle width="50" height="30" as="alternateBounds"/>
                    </mxGeometry>
                </mxCell>
                <mxCell id="nkqn70-d-f-3o_hXStP2-14" value="cert_name TEXT NOT NULL" style="shape=partialRectangle;overflow=hidden;connectable=0;fillColor=none;top=0;left=0;bottom=0;right=0;align=left;spacingLeft=6;" parent="nkqn70-d-f-3o_hXStP2-12" vertex="1">
                    <mxGeometry x="50" width="290" height="30" as="geometry">
                        <mxRectangle width="290" height="30" as="alternateBounds"/>
                    </mxGeometry>
                </mxCell>
                <mxCell id="nkqn70-d-f-3o_hXStP2-15" value="" style="shape=partialRectangle;collapsible=0;dropTarget=0;pointerEvents=0;fillColor=none;points=[[0,0.5],[1,0.5]];portConstraint=eastwest;top=0;left=0;right=0;bottom=0;" parent="nkqn70-d-f-3o_hXStP2-8" vertex="1">
                    <mxGeometry y="80" width="340" height="30" as="geometry"/>
                </mxCell>
                <mxCell id="nkqn70-d-f-3o_hXStP2-16" value="FK" style="shape=partialRectangle;overflow=hidden;connectable=0;fillColor=none;top=0;left=0;bottom=0;right=0;" parent="nkqn70-d-f-3o_hXStP2-15" vertex="1">
                    <mxGeometry width="50" height="30" as="geometry">
                        <mxRectangle width="50" height="30" as="alternateBounds"/>
                    </mxGeometry>
                </mxCell>
                <mxCell id="nkqn70-d-f-3o_hXStP2-17" value="cert_desc TEXT NOT NULL" style="shape=partialRectangle;overflow=hidden;connectable=0;fillColor=none;top=0;left=0;bottom=0;right=0;align=left;spacingLeft=6;" parent="nkqn70-d-f-3o_hXStP2-15" vertex="1">
                    <mxGeometry x="50" width="290" height="30" as="geometry">
                        <mxRectangle width="290" height="30" as="alternateBounds"/>
                    </mxGeometry>
                </mxCell>
                <mxCell id="nkqn70-d-f-3o_hXStP2-18" value="" style="shape=partialRectangle;collapsible=0;dropTarget=0;pointerEvents=0;fillColor=none;points=[[0,0.5],[1,0.5]];portConstraint=eastwest;top=0;left=0;right=0;bottom=0;" parent="nkqn70-d-f-3o_hXStP2-8" vertex="1">
                    <mxGeometry y="110" width="340" height="30" as="geometry"/>
                </mxCell>
                <mxCell id="nkqn70-d-f-3o_hXStP2-19" value="FK" style="shape=partialRectangle;overflow=hidden;connectable=0;fillColor=none;top=0;left=0;bottom=0;right=0;" parent="nkqn70-d-f-3o_hXStP2-18" vertex="1">
                    <mxGeometry width="50" height="30" as="geometry">
                        <mxRectangle width="50" height="30" as="alternateBounds"/>
                    </mxGeometry>
                </mxCell>
                <mxCell id="nkqn70-d-f-3o_hXStP2-20" value="ai_tagged_skill TEXT NOT NULL" style="shape=partialRectangle;overflow=hidden;connectable=0;fillColor=none;top=0;left=0;bottom=0;right=0;align=left;spacingLeft=6;" parent="nkqn70-d-f-3o_hXStP2-18" vertex="1">
                    <mxGeometry x="50" width="290" height="30" as="geometry">
                        <mxRectangle width="290" height="30" as="alternateBounds"/>
                    </mxGeometry>
                </mxCell>
                <mxCell id="nkqn70-d-f-3o_hXStP2-21" value="recommended_external_courses" style="shape=table;startSize=20;container=1;collapsible=1;childLayout=tableLayout;fixedRows=1;rowLines=0;fontStyle=1;align=center;resizeLast=1;" parent="1" vertex="1">
                    <mxGeometry x="-2050" y="70" width="340" height="160" as="geometry"/>
                </mxCell>
                <mxCell id="nkqn70-d-f-3o_hXStP2-22" value="" style="shape=partialRectangle;collapsible=0;dropTarget=0;pointerEvents=0;fillColor=none;points=[[0,0.5],[1,0.5]];portConstraint=eastwest;top=0;left=0;right=0;bottom=1;" parent="nkqn70-d-f-3o_hXStP2-21" vertex="1">
                    <mxGeometry y="20" width="340" height="30" as="geometry"/>
                </mxCell>
                <mxCell id="nkqn70-d-f-3o_hXStP2-23" value="PK" style="shape=partialRectangle;overflow=hidden;connectable=0;fillColor=none;top=0;left=0;bottom=0;right=0;fontStyle=1;" parent="nkqn70-d-f-3o_hXStP2-22" vertex="1">
                    <mxGeometry width="50" height="30" as="geometry">
                        <mxRectangle width="50" height="30" as="alternateBounds"/>
                    </mxGeometry>
                </mxCell>
                <mxCell id="nkqn70-d-f-3o_hXStP2-24" value="re_external_course_id INT NOT NULL " style="shape=partialRectangle;overflow=hidden;connectable=0;fillColor=none;top=0;left=0;bottom=0;right=0;align=left;spacingLeft=6;fontStyle=5;" parent="nkqn70-d-f-3o_hXStP2-22" vertex="1">
                    <mxGeometry x="50" width="290" height="30" as="geometry">
                        <mxRectangle width="290" height="30" as="alternateBounds"/>
                    </mxGeometry>
                </mxCell>
                <mxCell id="nkqn70-d-f-3o_hXStP2-25" value="" style="shape=partialRectangle;collapsible=0;dropTarget=0;pointerEvents=0;fillColor=none;points=[[0,0.5],[1,0.5]];portConstraint=eastwest;top=0;left=0;right=0;bottom=0;" parent="nkqn70-d-f-3o_hXStP2-21" vertex="1">
                    <mxGeometry y="50" width="340" height="30" as="geometry"/>
                </mxCell>
                <mxCell id="nkqn70-d-f-3o_hXStP2-26" value="FK" style="shape=partialRectangle;overflow=hidden;connectable=0;fillColor=none;top=0;left=0;bottom=0;right=0;" parent="nkqn70-d-f-3o_hXStP2-25" vertex="1">
                    <mxGeometry width="50" height="30" as="geometry">
                        <mxRectangle width="50" height="30" as="alternateBounds"/>
                    </mxGeometry>
                </mxCell>
                <mxCell id="nkqn70-d-f-3o_hXStP2-27" value="external_course_name TEXT NOT NULL" style="shape=partialRectangle;overflow=hidden;connectable=0;fillColor=none;top=0;left=0;bottom=0;right=0;align=left;spacingLeft=6;" parent="nkqn70-d-f-3o_hXStP2-25" vertex="1">
                    <mxGeometry x="50" width="290" height="30" as="geometry">
                        <mxRectangle width="290" height="30" as="alternateBounds"/>
                    </mxGeometry>
                </mxCell>
                <mxCell id="nkqn70-d-f-3o_hXStP2-28" value="" style="shape=partialRectangle;collapsible=0;dropTarget=0;pointerEvents=0;fillColor=none;points=[[0,0.5],[1,0.5]];portConstraint=eastwest;top=0;left=0;right=0;bottom=0;" parent="nkqn70-d-f-3o_hXStP2-21" vertex="1">
                    <mxGeometry y="80" width="340" height="30" as="geometry"/>
                </mxCell>
                <mxCell id="nkqn70-d-f-3o_hXStP2-29" value="FK" style="shape=partialRectangle;overflow=hidden;connectable=0;fillColor=none;top=0;left=0;bottom=0;right=0;" parent="nkqn70-d-f-3o_hXStP2-28" vertex="1">
                    <mxGeometry width="50" height="30" as="geometry">
                        <mxRectangle width="50" height="30" as="alternateBounds"/>
                    </mxGeometry>
                </mxCell>
                <mxCell id="nkqn70-d-f-3o_hXStP2-30" value="external_course_desc TEXT NOT NULL" style="shape=partialRectangle;overflow=hidden;connectable=0;fillColor=none;top=0;left=0;bottom=0;right=0;align=left;spacingLeft=6;" parent="nkqn70-d-f-3o_hXStP2-28" vertex="1">
                    <mxGeometry x="50" width="290" height="30" as="geometry">
                        <mxRectangle width="290" height="30" as="alternateBounds"/>
                    </mxGeometry>
                </mxCell>
                <mxCell id="nkqn70-d-f-3o_hXStP2-31" value="" style="shape=partialRectangle;collapsible=0;dropTarget=0;pointerEvents=0;fillColor=none;points=[[0,0.5],[1,0.5]];portConstraint=eastwest;top=0;left=0;right=0;bottom=0;" parent="nkqn70-d-f-3o_hXStP2-21" vertex="1">
                    <mxGeometry y="110" width="340" height="30" as="geometry"/>
                </mxCell>
                <mxCell id="nkqn70-d-f-3o_hXStP2-32" value="FK" style="shape=partialRectangle;overflow=hidden;connectable=0;fillColor=none;top=0;left=0;bottom=0;right=0;" parent="nkqn70-d-f-3o_hXStP2-31" vertex="1">
                    <mxGeometry width="50" height="30" as="geometry">
                        <mxRectangle width="50" height="30" as="alternateBounds"/>
                    </mxGeometry>
                </mxCell>
                <mxCell id="nkqn70-d-f-3o_hXStP2-33" value="ai_tagged_skill TEXT NOT NULL" style="shape=partialRectangle;overflow=hidden;connectable=0;fillColor=none;top=0;left=0;bottom=0;right=0;align=left;spacingLeft=6;" parent="nkqn70-d-f-3o_hXStP2-31" vertex="1">
                    <mxGeometry x="50" width="290" height="30" as="geometry">
                        <mxRectangle width="290" height="30" as="alternateBounds"/>
                    </mxGeometry>
                </mxCell>
                <mxCell id="nkqn70-d-f-3o_hXStP2-34" value="recommended_projects" style="shape=table;startSize=20;container=1;collapsible=1;childLayout=tableLayout;fixedRows=1;rowLines=0;fontStyle=1;align=center;resizeLast=1;" parent="1" vertex="1">
                    <mxGeometry x="-2450" y="80" width="340" height="160" as="geometry"/>
                </mxCell>
                <mxCell id="nkqn70-d-f-3o_hXStP2-35" value="" style="shape=partialRectangle;collapsible=0;dropTarget=0;pointerEvents=0;fillColor=none;points=[[0,0.5],[1,0.5]];portConstraint=eastwest;top=0;left=0;right=0;bottom=1;" parent="nkqn70-d-f-3o_hXStP2-34" vertex="1">
                    <mxGeometry y="20" width="340" height="30" as="geometry"/>
                </mxCell>
                <mxCell id="nkqn70-d-f-3o_hXStP2-36" value="PK" style="shape=partialRectangle;overflow=hidden;connectable=0;fillColor=none;top=0;left=0;bottom=0;right=0;fontStyle=1;" parent="nkqn70-d-f-3o_hXStP2-35" vertex="1">
                    <mxGeometry width="50" height="30" as="geometry">
                        <mxRectangle width="50" height="30" as="alternateBounds"/>
                    </mxGeometry>
                </mxCell>
                <mxCell id="nkqn70-d-f-3o_hXStP2-37" value="re_project_id INT NOT NULL " style="shape=partialRectangle;overflow=hidden;connectable=0;fillColor=none;top=0;left=0;bottom=0;right=0;align=left;spacingLeft=6;fontStyle=5;" parent="nkqn70-d-f-3o_hXStP2-35" vertex="1">
                    <mxGeometry x="50" width="290" height="30" as="geometry">
                        <mxRectangle width="290" height="30" as="alternateBounds"/>
                    </mxGeometry>
                </mxCell>
                <mxCell id="nkqn70-d-f-3o_hXStP2-38" value="" style="shape=partialRectangle;collapsible=0;dropTarget=0;pointerEvents=0;fillColor=none;points=[[0,0.5],[1,0.5]];portConstraint=eastwest;top=0;left=0;right=0;bottom=0;" parent="nkqn70-d-f-3o_hXStP2-34" vertex="1">
                    <mxGeometry y="50" width="340" height="30" as="geometry"/>
                </mxCell>
                <mxCell id="nkqn70-d-f-3o_hXStP2-39" value="FK" style="shape=partialRectangle;overflow=hidden;connectable=0;fillColor=none;top=0;left=0;bottom=0;right=0;" parent="nkqn70-d-f-3o_hXStP2-38" vertex="1">
                    <mxGeometry width="50" height="30" as="geometry">
                        <mxRectangle width="50" height="30" as="alternateBounds"/>
                    </mxGeometry>
                </mxCell>
                <mxCell id="nkqn70-d-f-3o_hXStP2-40" value="project_name TEXT NOT NULL" style="shape=partialRectangle;overflow=hidden;connectable=0;fillColor=none;top=0;left=0;bottom=0;right=0;align=left;spacingLeft=6;" parent="nkqn70-d-f-3o_hXStP2-38" vertex="1">
                    <mxGeometry x="50" width="290" height="30" as="geometry">
                        <mxRectangle width="290" height="30" as="alternateBounds"/>
                    </mxGeometry>
                </mxCell>
                <mxCell id="nkqn70-d-f-3o_hXStP2-41" value="" style="shape=partialRectangle;collapsible=0;dropTarget=0;pointerEvents=0;fillColor=none;points=[[0,0.5],[1,0.5]];portConstraint=eastwest;top=0;left=0;right=0;bottom=0;" parent="nkqn70-d-f-3o_hXStP2-34" vertex="1">
                    <mxGeometry y="80" width="340" height="30" as="geometry"/>
                </mxCell>
                <mxCell id="nkqn70-d-f-3o_hXStP2-42" value="FK" style="shape=partialRectangle;overflow=hidden;connectable=0;fillColor=none;top=0;left=0;bottom=0;right=0;" parent="nkqn70-d-f-3o_hXStP2-41" vertex="1">
                    <mxGeometry width="50" height="30" as="geometry">
                        <mxRectangle width="50" height="30" as="alternateBounds"/>
                    </mxGeometry>
                </mxCell>
                <mxCell id="nkqn70-d-f-3o_hXStP2-43" value="project_desc TEXT NOT NULL" style="shape=partialRectangle;overflow=hidden;connectable=0;fillColor=none;top=0;left=0;bottom=0;right=0;align=left;spacingLeft=6;" parent="nkqn70-d-f-3o_hXStP2-41" vertex="1">
                    <mxGeometry x="50" width="290" height="30" as="geometry">
                        <mxRectangle width="290" height="30" as="alternateBounds"/>
                    </mxGeometry>
                </mxCell>
                <mxCell id="nkqn70-d-f-3o_hXStP2-44" value="" style="shape=partialRectangle;collapsible=0;dropTarget=0;pointerEvents=0;fillColor=none;points=[[0,0.5],[1,0.5]];portConstraint=eastwest;top=0;left=0;right=0;bottom=0;" parent="nkqn70-d-f-3o_hXStP2-34" vertex="1">
                    <mxGeometry y="110" width="340" height="30" as="geometry"/>
                </mxCell>
                <mxCell id="nkqn70-d-f-3o_hXStP2-45" value="FK" style="shape=partialRectangle;overflow=hidden;connectable=0;fillColor=none;top=0;left=0;bottom=0;right=0;" parent="nkqn70-d-f-3o_hXStP2-44" vertex="1">
                    <mxGeometry width="50" height="30" as="geometry">
                        <mxRectangle width="50" height="30" as="alternateBounds"/>
                    </mxGeometry>
                </mxCell>
                <mxCell id="nkqn70-d-f-3o_hXStP2-46" value="ai_tagged_skill TEXT NOT NULL" style="shape=partialRectangle;overflow=hidden;connectable=0;fillColor=none;top=0;left=0;bottom=0;right=0;align=left;spacingLeft=6;" parent="nkqn70-d-f-3o_hXStP2-44" vertex="1">
                    <mxGeometry x="50" width="290" height="30" as="geometry">
                        <mxRectangle width="290" height="30" as="alternateBounds"/>
                    </mxGeometry>
                </mxCell>
                <mxCell id="nkqn70-d-f-3o_hXStP2-47" value="User_Courses" style="shape=table;startSize=20;container=1;collapsible=1;childLayout=tableLayout;fixedRows=1;rowLines=0;fontStyle=1;align=center;resizeLast=1;" parent="1" vertex="1">
                    <mxGeometry x="-1480" y="-1500" width="340" height="189.99999999999977" as="geometry"/>
                </mxCell>
                <mxCell id="nkqn70-d-f-3o_hXStP2-48" value="" style="shape=partialRectangle;collapsible=0;dropTarget=0;pointerEvents=0;fillColor=none;points=[[0,0.5],[1,0.5]];portConstraint=eastwest;top=0;left=0;right=0;bottom=1;" parent="nkqn70-d-f-3o_hXStP2-47" vertex="1">
                    <mxGeometry y="20" width="340" height="30" as="geometry"/>
                </mxCell>
                <mxCell id="nkqn70-d-f-3o_hXStP2-49" value="PK" style="shape=partialRectangle;overflow=hidden;connectable=0;fillColor=none;top=0;left=0;bottom=0;right=0;fontStyle=1;" parent="nkqn70-d-f-3o_hXStP2-48" vertex="1">
                    <mxGeometry width="50" height="30" as="geometry">
                        <mxRectangle width="50" height="30" as="alternateBounds"/>
                    </mxGeometry>
                </mxCell>
                <mxCell id="nkqn70-d-f-3o_hXStP2-50" value="user_course_id INT NOT NULL " style="shape=partialRectangle;overflow=hidden;connectable=0;fillColor=none;top=0;left=0;bottom=0;right=0;align=left;spacingLeft=6;fontStyle=5;" parent="nkqn70-d-f-3o_hXStP2-48" vertex="1">
                    <mxGeometry x="50" width="290" height="30" as="geometry">
                        <mxRectangle width="290" height="30" as="alternateBounds"/>
                    </mxGeometry>
                </mxCell>
                <mxCell id="nkqn70-d-f-3o_hXStP2-60" value="" style="shape=partialRectangle;collapsible=0;dropTarget=0;pointerEvents=0;fillColor=none;points=[[0,0.5],[1,0.5]];portConstraint=eastwest;top=0;left=0;right=0;bottom=0;" parent="nkqn70-d-f-3o_hXStP2-47" vertex="1">
                    <mxGeometry y="50" width="340" height="30" as="geometry"/>
                </mxCell>
                <mxCell id="nkqn70-d-f-3o_hXStP2-61" value="" style="shape=partialRectangle;overflow=hidden;connectable=0;fillColor=none;top=0;left=0;bottom=0;right=0;" parent="nkqn70-d-f-3o_hXStP2-60" vertex="1">
                    <mxGeometry width="50" height="30" as="geometry">
                        <mxRectangle width="50" height="30" as="alternateBounds"/>
                    </mxGeometry>
                </mxCell>
                <mxCell id="nkqn70-d-f-3o_hXStP2-62" value="course_grade ENUM NOT NULL" style="shape=partialRectangle;overflow=hidden;connectable=0;fillColor=none;top=0;left=0;bottom=0;right=0;align=left;spacingLeft=6;" parent="nkqn70-d-f-3o_hXStP2-60" vertex="1">
                    <mxGeometry x="50" width="290" height="30" as="geometry">
                        <mxRectangle width="290" height="30" as="alternateBounds"/>
                    </mxGeometry>
                </mxCell>
                <mxCell id="nkqn70-d-f-3o_hXStP2-63" value="" style="shape=partialRectangle;collapsible=0;dropTarget=0;pointerEvents=0;fillColor=none;points=[[0,0.5],[1,0.5]];portConstraint=eastwest;top=0;left=0;right=0;bottom=0;" parent="nkqn70-d-f-3o_hXStP2-47" vertex="1">
                    <mxGeometry y="80" width="340" height="30" as="geometry"/>
                </mxCell>
                <mxCell id="nkqn70-d-f-3o_hXStP2-64" value="" style="shape=partialRectangle;overflow=hidden;connectable=0;fillColor=none;top=0;left=0;bottom=0;right=0;" parent="nkqn70-d-f-3o_hXStP2-63" vertex="1">
                    <mxGeometry width="50" height="30" as="geometry">
                        <mxRectangle width="50" height="30" as="alternateBounds"/>
                    </mxGeometry>
                </mxCell>
                <mxCell id="nkqn70-d-f-3o_hXStP2-65" value="course_completion_date DATE NOT NULL" style="shape=partialRectangle;overflow=hidden;connectable=0;fillColor=none;top=0;left=0;bottom=0;right=0;align=left;spacingLeft=6;" parent="nkqn70-d-f-3o_hXStP2-63" vertex="1">
                    <mxGeometry x="50" width="290" height="30" as="geometry">
                        <mxRectangle width="290" height="30" as="alternateBounds"/>
                    </mxGeometry>
                </mxCell>
                <mxCell id="nkqn70-d-f-3o_hXStP2-66" value="" style="shape=partialRectangle;collapsible=0;dropTarget=0;pointerEvents=0;fillColor=none;points=[[0,0.5],[1,0.5]];portConstraint=eastwest;top=0;left=0;right=0;bottom=0;" parent="nkqn70-d-f-3o_hXStP2-47" vertex="1">
                    <mxGeometry y="110" width="340" height="30" as="geometry"/>
                </mxCell>
                <mxCell id="nkqn70-d-f-3o_hXStP2-67" value="FK" style="shape=partialRectangle;overflow=hidden;connectable=0;fillColor=none;top=0;left=0;bottom=0;right=0;" parent="nkqn70-d-f-3o_hXStP2-66" vertex="1">
                    <mxGeometry width="50" height="30" as="geometry">
                        <mxRectangle width="50" height="30" as="alternateBounds"/>
                    </mxGeometry>
                </mxCell>
                <mxCell id="nkqn70-d-f-3o_hXStP2-68" value="user_id INT NOT NULL" style="shape=partialRectangle;overflow=hidden;connectable=0;fillColor=none;top=0;left=0;bottom=0;right=0;align=left;spacingLeft=6;" parent="nkqn70-d-f-3o_hXStP2-66" vertex="1">
                    <mxGeometry x="50" width="290" height="30" as="geometry">
                        <mxRectangle width="290" height="30" as="alternateBounds"/>
                    </mxGeometry>
                </mxCell>
                <mxCell id="27" value="" style="shape=partialRectangle;collapsible=0;dropTarget=0;pointerEvents=0;fillColor=none;points=[[0,0.5],[1,0.5]];portConstraint=eastwest;top=0;left=0;right=0;bottom=0;" vertex="1" parent="nkqn70-d-f-3o_hXStP2-47">
                    <mxGeometry y="140" width="340" height="30" as="geometry"/>
                </mxCell>
                <mxCell id="28" value="FK" style="shape=partialRectangle;overflow=hidden;connectable=0;fillColor=none;top=0;left=0;bottom=0;right=0;" vertex="1" parent="27">
                    <mxGeometry width="50" height="30" as="geometry">
                        <mxRectangle width="50" height="30" as="alternateBounds"/>
                    </mxGeometry>
                </mxCell>
                <mxCell id="29" value="course_id INT NOT NULL" style="shape=partialRectangle;overflow=hidden;connectable=0;fillColor=none;top=0;left=0;bottom=0;right=0;align=left;spacingLeft=6;" vertex="1" parent="27">
                    <mxGeometry x="50" width="290" height="30" as="geometry">
                        <mxRectangle width="290" height="30" as="alternateBounds"/>
                    </mxGeometry>
                </mxCell>
                <mxCell id="nkqn70-d-f-3o_hXStP2-72" style="edgeStyle=none;html=1;startArrow=ERmany;startFill=0;endArrow=baseDash;endFill=0;exitX=1.003;exitY=0.174;exitDx=0;exitDy=0;exitPerimeter=0;" parent="1" edge="1" source="nkqn70-d-f-3o_hXStP2-63">
                    <mxGeometry relative="1" as="geometry">
                        <mxPoint x="-580" y="-804" as="targetPoint"/>
                        <Array as="points"/>
                        <mxPoint x="-1140" y="-1200" as="sourcePoint"/>
                    </mxGeometry>
                </mxCell>
                <mxCell id="t1dCWUSB6KBmA47_n5QB-23" style="edgeStyle=none;html=1;entryX=0.5;entryY=1;entryDx=0;entryDy=0;startArrow=ERmany;startFill=0;endArrow=ERmany;endFill=0;exitX=0.5;exitY=0;exitDx=0;exitDy=0;" parent="1" source="4xDtvOxX5v2o2x7MNQAd-264" target="4xDtvOxX5v2o2x7MNQAd-208" edge="1">
                    <mxGeometry relative="1" as="geometry">
                        <mxPoint x="-130" y="-533" as="sourcePoint"/>
                        <mxPoint x="-230" y="-570" as="targetPoint"/>
                    </mxGeometry>
                </mxCell>
                <mxCell id="58" value="Certificates" style="shape=table;startSize=20;container=1;collapsible=1;childLayout=tableLayout;fixedRows=1;rowLines=0;fontStyle=1;align=center;resizeLast=1;" vertex="1" parent="1">
                    <mxGeometry x="-1890" y="-855" width="340" height="190" as="geometry"/>
                </mxCell>
                <mxCell id="59" value="" style="shape=partialRectangle;collapsible=0;dropTarget=0;pointerEvents=0;fillColor=none;points=[[0,0.5],[1,0.5]];portConstraint=eastwest;top=0;left=0;right=0;bottom=1;" vertex="1" parent="58">
                    <mxGeometry y="20" width="340" height="30" as="geometry"/>
                </mxCell>
                <mxCell id="60" value="PK" style="shape=partialRectangle;overflow=hidden;connectable=0;fillColor=none;top=0;left=0;bottom=0;right=0;fontStyle=1;" vertex="1" parent="59">
                    <mxGeometry width="30" height="30" as="geometry">
                        <mxRectangle width="30" height="30" as="alternateBounds"/>
                    </mxGeometry>
                </mxCell>
                <mxCell id="61" value="cert_id INT NOT NULL " style="shape=partialRectangle;overflow=hidden;connectable=0;fillColor=none;top=0;left=0;bottom=0;right=0;align=left;spacingLeft=6;fontStyle=5;" vertex="1" parent="59">
                    <mxGeometry x="30" width="310" height="30" as="geometry">
                        <mxRectangle width="310" height="30" as="alternateBounds"/>
                    </mxGeometry>
                </mxCell>
                <mxCell id="65" value="" style="shape=partialRectangle;collapsible=0;dropTarget=0;pointerEvents=0;fillColor=none;points=[[0,0.5],[1,0.5]];portConstraint=eastwest;top=0;left=0;right=0;bottom=0;" vertex="1" parent="58">
                    <mxGeometry y="50" width="340" height="30" as="geometry"/>
                </mxCell>
                <mxCell id="66" value="" style="shape=partialRectangle;overflow=hidden;connectable=0;fillColor=none;top=0;left=0;bottom=0;right=0;" vertex="1" parent="65">
                    <mxGeometry width="30" height="30" as="geometry">
                        <mxRectangle width="30" height="30" as="alternateBounds"/>
                    </mxGeometry>
                </mxCell>
                <mxCell id="67" value="cert_title TEXT NOT NULL" style="shape=partialRectangle;overflow=hidden;connectable=0;fillColor=none;top=0;left=0;bottom=0;right=0;align=left;spacingLeft=6;" vertex="1" parent="65">
                    <mxGeometry x="30" width="310" height="30" as="geometry">
                        <mxRectangle width="310" height="30" as="alternateBounds"/>
                    </mxGeometry>
                </mxCell>
                <mxCell id="77" value="" style="shape=partialRectangle;collapsible=0;dropTarget=0;pointerEvents=0;fillColor=none;points=[[0,0.5],[1,0.5]];portConstraint=eastwest;top=0;left=0;right=0;bottom=0;" vertex="1" parent="58">
                    <mxGeometry y="80" width="340" height="30" as="geometry"/>
                </mxCell>
                <mxCell id="78" value="" style="shape=partialRectangle;overflow=hidden;connectable=0;fillColor=none;top=0;left=0;bottom=0;right=0;" vertex="1" parent="77">
                    <mxGeometry width="30" height="30" as="geometry">
                        <mxRectangle width="30" height="30" as="alternateBounds"/>
                    </mxGeometry>
                </mxCell>
                <mxCell id="79" value="ai_tagged_skill TEXT NOT NULL" style="shape=partialRectangle;overflow=hidden;connectable=0;fillColor=none;top=0;left=0;bottom=0;right=0;align=left;spacingLeft=6;" vertex="1" parent="77">
                    <mxGeometry x="30" width="310" height="30" as="geometry">
                        <mxRectangle width="310" height="30" as="alternateBounds"/>
                    </mxGeometry>
                </mxCell>
                <mxCell id="80" value="" style="shape=partialRectangle;collapsible=0;dropTarget=0;pointerEvents=0;fillColor=none;points=[[0,0.5],[1,0.5]];portConstraint=eastwest;top=0;left=0;right=0;bottom=0;" vertex="1" parent="58">
                    <mxGeometry y="110" width="340" height="30" as="geometry"/>
                </mxCell>
                <mxCell id="81" value="" style="shape=partialRectangle;overflow=hidden;connectable=0;fillColor=none;top=0;left=0;bottom=0;right=0;" vertex="1" parent="80">
                    <mxGeometry width="30" height="30" as="geometry">
                        <mxRectangle width="30" height="30" as="alternateBounds"/>
                    </mxGeometry>
                </mxCell>
                <mxCell id="82" value="cert_desc TEXT NOT NULL" style="shape=partialRectangle;overflow=hidden;connectable=0;fillColor=none;top=0;left=0;bottom=0;right=0;align=left;spacingLeft=6;" vertex="1" parent="80">
                    <mxGeometry x="30" width="310" height="30" as="geometry">
                        <mxRectangle width="310" height="30" as="alternateBounds"/>
                    </mxGeometry>
                </mxCell>
                <mxCell id="194" value="" style="shape=partialRectangle;collapsible=0;dropTarget=0;pointerEvents=0;fillColor=none;points=[[0,0.5],[1,0.5]];portConstraint=eastwest;top=0;left=0;right=0;bottom=0;" vertex="1" parent="58">
                    <mxGeometry y="140" width="340" height="30" as="geometry"/>
                </mxCell>
                <mxCell id="195" value="" style="shape=partialRectangle;overflow=hidden;connectable=0;fillColor=none;top=0;left=0;bottom=0;right=0;" vertex="1" parent="194">
                    <mxGeometry width="30" height="30" as="geometry">
                        <mxRectangle width="30" height="30" as="alternateBounds"/>
                    </mxGeometry>
                </mxCell>
                <mxCell id="196" value="external_link TEXT NOT NULL" style="shape=partialRectangle;overflow=hidden;connectable=0;fillColor=none;top=0;left=0;bottom=0;right=0;align=left;spacingLeft=6;" vertex="1" parent="194">
                    <mxGeometry x="30" width="310" height="30" as="geometry">
                        <mxRectangle width="310" height="30" as="alternateBounds"/>
                    </mxGeometry>
                </mxCell>
                <mxCell id="96" value="External_courses" style="shape=table;startSize=20;container=1;collapsible=1;childLayout=tableLayout;fixedRows=1;rowLines=0;fontStyle=1;align=center;resizeLast=1;" vertex="1" parent="1">
                    <mxGeometry x="-2020" y="-1170" width="340" height="220" as="geometry"/>
                </mxCell>
                <mxCell id="97" value="" style="shape=partialRectangle;collapsible=0;dropTarget=0;pointerEvents=0;fillColor=none;points=[[0,0.5],[1,0.5]];portConstraint=eastwest;top=0;left=0;right=0;bottom=1;" vertex="1" parent="96">
                    <mxGeometry y="20" width="340" height="30" as="geometry"/>
                </mxCell>
                <mxCell id="98" value="PK" style="shape=partialRectangle;overflow=hidden;connectable=0;fillColor=none;top=0;left=0;bottom=0;right=0;fontStyle=1;" vertex="1" parent="97">
                    <mxGeometry width="30" height="30" as="geometry">
                        <mxRectangle width="30" height="30" as="alternateBounds"/>
                    </mxGeometry>
                </mxCell>
                <mxCell id="99" value="external_course_id INT NOT NULL " style="shape=partialRectangle;overflow=hidden;connectable=0;fillColor=none;top=0;left=0;bottom=0;right=0;align=left;spacingLeft=6;fontStyle=5;" vertex="1" parent="97">
                    <mxGeometry x="30" width="310" height="30" as="geometry">
                        <mxRectangle width="310" height="30" as="alternateBounds"/>
                    </mxGeometry>
                </mxCell>
                <mxCell id="103" value="" style="shape=partialRectangle;collapsible=0;dropTarget=0;pointerEvents=0;fillColor=none;points=[[0,0.5],[1,0.5]];portConstraint=eastwest;top=0;left=0;right=0;bottom=0;" vertex="1" parent="96">
                    <mxGeometry y="50" width="340" height="30" as="geometry"/>
                </mxCell>
                <mxCell id="104" value="" style="shape=partialRectangle;overflow=hidden;connectable=0;fillColor=none;top=0;left=0;bottom=0;right=0;" vertex="1" parent="103">
                    <mxGeometry width="30" height="30" as="geometry">
                        <mxRectangle width="30" height="30" as="alternateBounds"/>
                    </mxGeometry>
                </mxCell>
                <mxCell id="105" value="external_course_name TEXT NOT NULL" style="shape=partialRectangle;overflow=hidden;connectable=0;fillColor=none;top=0;left=0;bottom=0;right=0;align=left;spacingLeft=6;" vertex="1" parent="103">
                    <mxGeometry x="30" width="310" height="30" as="geometry">
                        <mxRectangle width="310" height="30" as="alternateBounds"/>
                    </mxGeometry>
                </mxCell>
                <mxCell id="106" value="" style="shape=partialRectangle;collapsible=0;dropTarget=0;pointerEvents=0;fillColor=none;points=[[0,0.5],[1,0.5]];portConstraint=eastwest;top=0;left=0;right=0;bottom=0;" vertex="1" parent="96">
                    <mxGeometry y="80" width="340" height="30" as="geometry"/>
                </mxCell>
                <mxCell id="107" value="" style="shape=partialRectangle;overflow=hidden;connectable=0;fillColor=none;top=0;left=0;bottom=0;right=0;" vertex="1" parent="106">
                    <mxGeometry width="30" height="30" as="geometry">
                        <mxRectangle width="30" height="30" as="alternateBounds"/>
                    </mxGeometry>
                </mxCell>
                <mxCell id="108" value="platform TEXT NOT NULL" style="shape=partialRectangle;overflow=hidden;connectable=0;fillColor=none;top=0;left=0;bottom=0;right=0;align=left;spacingLeft=6;" vertex="1" parent="106">
                    <mxGeometry x="30" width="310" height="30" as="geometry">
                        <mxRectangle width="310" height="30" as="alternateBounds"/>
                    </mxGeometry>
                </mxCell>
                <mxCell id="115" value="" style="shape=partialRectangle;collapsible=0;dropTarget=0;pointerEvents=0;fillColor=none;points=[[0,0.5],[1,0.5]];portConstraint=eastwest;top=0;left=0;right=0;bottom=0;" vertex="1" parent="96">
                    <mxGeometry y="110" width="340" height="30" as="geometry"/>
                </mxCell>
                <mxCell id="116" value="" style="shape=partialRectangle;overflow=hidden;connectable=0;fillColor=none;top=0;left=0;bottom=0;right=0;" vertex="1" parent="115">
                    <mxGeometry width="30" height="30" as="geometry">
                        <mxRectangle width="30" height="30" as="alternateBounds"/>
                    </mxGeometry>
                </mxCell>
                <mxCell id="117" value="ai_tagged_skill TEXT NOT NULL" style="shape=partialRectangle;overflow=hidden;connectable=0;fillColor=none;top=0;left=0;bottom=0;right=0;align=left;spacingLeft=6;" vertex="1" parent="115">
                    <mxGeometry x="30" width="310" height="30" as="geometry">
                        <mxRectangle width="310" height="30" as="alternateBounds"/>
                    </mxGeometry>
                </mxCell>
                <mxCell id="118" value="" style="shape=partialRectangle;collapsible=0;dropTarget=0;pointerEvents=0;fillColor=none;points=[[0,0.5],[1,0.5]];portConstraint=eastwest;top=0;left=0;right=0;bottom=0;" vertex="1" parent="96">
                    <mxGeometry y="140" width="340" height="30" as="geometry"/>
                </mxCell>
                <mxCell id="119" value="" style="shape=partialRectangle;overflow=hidden;connectable=0;fillColor=none;top=0;left=0;bottom=0;right=0;" vertex="1" parent="118">
                    <mxGeometry width="30" height="30" as="geometry">
                        <mxRectangle width="30" height="30" as="alternateBounds"/>
                    </mxGeometry>
                </mxCell>
                <mxCell id="120" value="external_course_desc TEXT NOT NULL" style="shape=partialRectangle;overflow=hidden;connectable=0;fillColor=none;top=0;left=0;bottom=0;right=0;align=left;spacingLeft=6;" vertex="1" parent="118">
                    <mxGeometry x="30" width="310" height="30" as="geometry">
                        <mxRectangle width="310" height="30" as="alternateBounds"/>
                    </mxGeometry>
                </mxCell>
                <mxCell id="174" value="" style="shape=partialRectangle;collapsible=0;dropTarget=0;pointerEvents=0;fillColor=none;points=[[0,0.5],[1,0.5]];portConstraint=eastwest;top=0;left=0;right=0;bottom=0;" vertex="1" parent="96">
                    <mxGeometry y="170" width="340" height="30" as="geometry"/>
                </mxCell>
                <mxCell id="175" value="" style="shape=partialRectangle;overflow=hidden;connectable=0;fillColor=none;top=0;left=0;bottom=0;right=0;" vertex="1" parent="174">
                    <mxGeometry width="30" height="30" as="geometry">
                        <mxRectangle width="30" height="30" as="alternateBounds"/>
                    </mxGeometry>
                </mxCell>
                <mxCell id="176" value="external_link TEXT NOT NULL" style="shape=partialRectangle;overflow=hidden;connectable=0;fillColor=none;top=0;left=0;bottom=0;right=0;align=left;spacingLeft=6;" vertex="1" parent="174">
                    <mxGeometry x="30" width="310" height="30" as="geometry">
                        <mxRectangle width="310" height="30" as="alternateBounds"/>
                    </mxGeometry>
                </mxCell>
                <mxCell id="143" value="Courses" style="shape=table;startSize=20;container=1;collapsible=1;childLayout=tableLayout;fixedRows=1;rowLines=0;fontStyle=1;align=center;resizeLast=1;" vertex="1" parent="1">
                    <mxGeometry x="-1920" y="-1450" width="340" height="159.99999999999977" as="geometry"/>
                </mxCell>
                <mxCell id="144" value="" style="shape=partialRectangle;collapsible=0;dropTarget=0;pointerEvents=0;fillColor=none;points=[[0,0.5],[1,0.5]];portConstraint=eastwest;top=0;left=0;right=0;bottom=1;" vertex="1" parent="143">
                    <mxGeometry y="20" width="340" height="30" as="geometry"/>
                </mxCell>
                <mxCell id="145" value="PK" style="shape=partialRectangle;overflow=hidden;connectable=0;fillColor=none;top=0;left=0;bottom=0;right=0;fontStyle=1;" vertex="1" parent="144">
                    <mxGeometry width="50" height="30" as="geometry">
                        <mxRectangle width="50" height="30" as="alternateBounds"/>
                    </mxGeometry>
                </mxCell>
                <mxCell id="146" value="course_id INT NOT NULL " style="shape=partialRectangle;overflow=hidden;connectable=0;fillColor=none;top=0;left=0;bottom=0;right=0;align=left;spacingLeft=6;fontStyle=5;" vertex="1" parent="144">
                    <mxGeometry x="50" width="290" height="30" as="geometry">
                        <mxRectangle width="290" height="30" as="alternateBounds"/>
                    </mxGeometry>
                </mxCell>
                <mxCell id="147" value="" style="shape=partialRectangle;collapsible=0;dropTarget=0;pointerEvents=0;fillColor=none;points=[[0,0.5],[1,0.5]];portConstraint=eastwest;top=0;left=0;right=0;bottom=0;" vertex="1" parent="143">
                    <mxGeometry y="50" width="340" height="30" as="geometry"/>
                </mxCell>
                <mxCell id="148" value="" style="shape=partialRectangle;overflow=hidden;connectable=0;fillColor=none;top=0;left=0;bottom=0;right=0;" vertex="1" parent="147">
                    <mxGeometry width="50" height="30" as="geometry">
                        <mxRectangle width="50" height="30" as="alternateBounds"/>
                    </mxGeometry>
                </mxCell>
                <mxCell id="149" value="course_name TEXT NOT NULL" style="shape=partialRectangle;overflow=hidden;connectable=0;fillColor=none;top=0;left=0;bottom=0;right=0;align=left;spacingLeft=6;" vertex="1" parent="147">
                    <mxGeometry x="50" width="290" height="30" as="geometry">
                        <mxRectangle width="290" height="30" as="alternateBounds"/>
                    </mxGeometry>
                </mxCell>
                <mxCell id="150" value="" style="shape=partialRectangle;collapsible=0;dropTarget=0;pointerEvents=0;fillColor=none;points=[[0,0.5],[1,0.5]];portConstraint=eastwest;top=0;left=0;right=0;bottom=0;" vertex="1" parent="143">
                    <mxGeometry y="80" width="340" height="30" as="geometry"/>
                </mxCell>
                <mxCell id="151" value="" style="shape=partialRectangle;overflow=hidden;connectable=0;fillColor=none;top=0;left=0;bottom=0;right=0;" vertex="1" parent="150">
                    <mxGeometry width="50" height="30" as="geometry">
                        <mxRectangle width="50" height="30" as="alternateBounds"/>
                    </mxGeometry>
                </mxCell>
                <mxCell id="152" value="course_desc TEXT NOT NULL" style="shape=partialRectangle;overflow=hidden;connectable=0;fillColor=none;top=0;left=0;bottom=0;right=0;align=left;spacingLeft=6;" vertex="1" parent="150">
                    <mxGeometry x="50" width="290" height="30" as="geometry">
                        <mxRectangle width="290" height="30" as="alternateBounds"/>
                    </mxGeometry>
                </mxCell>
                <mxCell id="153" value="" style="shape=partialRectangle;collapsible=0;dropTarget=0;pointerEvents=0;fillColor=none;points=[[0,0.5],[1,0.5]];portConstraint=eastwest;top=0;left=0;right=0;bottom=0;" vertex="1" parent="143">
                    <mxGeometry y="110" width="340" height="30" as="geometry"/>
                </mxCell>
                <mxCell id="154" value="" style="shape=partialRectangle;overflow=hidden;connectable=0;fillColor=none;top=0;left=0;bottom=0;right=0;" vertex="1" parent="153">
                    <mxGeometry width="50" height="30" as="geometry">
                        <mxRectangle width="50" height="30" as="alternateBounds"/>
                    </mxGeometry>
                </mxCell>
                <mxCell id="155" value="ai_tagged_skill TEXT NOT NULL" style="shape=partialRectangle;overflow=hidden;connectable=0;fillColor=none;top=0;left=0;bottom=0;right=0;align=left;spacingLeft=6;" vertex="1" parent="153">
                    <mxGeometry x="50" width="290" height="30" as="geometry">
                        <mxRectangle width="290" height="30" as="alternateBounds"/>
                    </mxGeometry>
                </mxCell>
                <mxCell id="177" style="edgeStyle=none;html=1;startArrow=ERmany;startFill=0;endArrow=baseDash;endFill=0;exitX=1.003;exitY=0.174;exitDx=0;exitDy=0;exitPerimeter=0;entryX=1;entryY=0.5;entryDx=0;entryDy=0;" edge="1" parent="1" target="150">
                    <mxGeometry relative="1" as="geometry">
                        <mxPoint x="-921" y="-840" as="targetPoint"/>
                        <Array as="points"/>
                        <mxPoint x="-1480" y="-1361" as="sourcePoint"/>
                    </mxGeometry>
                </mxCell>
                <mxCell id="179" style="edgeStyle=none;html=1;exitX=0;exitY=0.5;exitDx=0;exitDy=0;startArrow=ERmany;startFill=0;endArrow=baseDash;endFill=0;entryX=0.994;entryY=0.072;entryDx=0;entryDy=0;entryPerimeter=0;" edge="1" parent="1" target="115">
                    <mxGeometry relative="1" as="geometry">
                        <mxPoint x="-925" y="-725" as="targetPoint"/>
                        <Array as="points"/>
                        <mxPoint x="-1445" y="-1065" as="sourcePoint"/>
                    </mxGeometry>
                </mxCell>
                <mxCell id="180" style="edgeStyle=none;html=1;startArrow=ERmany;startFill=0;endArrow=baseDash;endFill=0;entryX=0.994;entryY=0.072;entryDx=0;entryDy=0;entryPerimeter=0;" edge="1" parent="1">
                    <mxGeometry relative="1" as="geometry">
                        <mxPoint x="-1550" y="-763" as="targetPoint"/>
                        <Array as="points"/>
                        <mxPoint x="-1350" y="-763" as="sourcePoint"/>
                    </mxGeometry>
                </mxCell>
                <mxCell id="200" value="Projects" style="shape=table;startSize=20;container=1;collapsible=1;childLayout=tableLayout;fixedRows=1;rowLines=0;fontStyle=1;align=center;resizeLast=1;" vertex="1" parent="1">
                    <mxGeometry x="-960" y="-1570" width="340" height="220" as="geometry"/>
                </mxCell>
                <mxCell id="201" value="" style="shape=partialRectangle;collapsible=0;dropTarget=0;pointerEvents=0;fillColor=none;points=[[0,0.5],[1,0.5]];portConstraint=eastwest;top=0;left=0;right=0;bottom=1;" vertex="1" parent="200">
                    <mxGeometry y="20" width="340" height="30" as="geometry"/>
                </mxCell>
                <mxCell id="202" value="PK" style="shape=partialRectangle;overflow=hidden;connectable=0;fillColor=none;top=0;left=0;bottom=0;right=0;fontStyle=1;" vertex="1" parent="201">
                    <mxGeometry width="30" height="30" as="geometry">
                        <mxRectangle width="30" height="30" as="alternateBounds"/>
                    </mxGeometry>
                </mxCell>
                <mxCell id="203" value="project_id INT NOT NULL " style="shape=partialRectangle;overflow=hidden;connectable=0;fillColor=none;top=0;left=0;bottom=0;right=0;align=left;spacingLeft=6;fontStyle=5;" vertex="1" parent="201">
                    <mxGeometry x="30" width="310" height="30" as="geometry">
                        <mxRectangle width="310" height="30" as="alternateBounds"/>
                    </mxGeometry>
                </mxCell>
                <mxCell id="204" value="" style="shape=partialRectangle;collapsible=0;dropTarget=0;pointerEvents=0;fillColor=none;points=[[0,0.5],[1,0.5]];portConstraint=eastwest;top=0;left=0;right=0;bottom=0;" vertex="1" parent="200">
                    <mxGeometry y="50" width="340" height="30" as="geometry"/>
                </mxCell>
                <mxCell id="205" value="FK" style="shape=partialRectangle;overflow=hidden;connectable=0;fillColor=none;top=0;left=0;bottom=0;right=0;" vertex="1" parent="204">
                    <mxGeometry width="30" height="30" as="geometry">
                        <mxRectangle width="30" height="30" as="alternateBounds"/>
                    </mxGeometry>
                </mxCell>
                <mxCell id="206" value="user_id INT NOT NULL" style="shape=partialRectangle;overflow=hidden;connectable=0;fillColor=none;top=0;left=0;bottom=0;right=0;align=left;spacingLeft=6;" vertex="1" parent="204">
                    <mxGeometry x="30" width="310" height="30" as="geometry">
                        <mxRectangle width="310" height="30" as="alternateBounds"/>
                    </mxGeometry>
                </mxCell>
                <mxCell id="207" value="" style="shape=partialRectangle;collapsible=0;dropTarget=0;pointerEvents=0;fillColor=none;points=[[0,0.5],[1,0.5]];portConstraint=eastwest;top=0;left=0;right=0;bottom=0;" vertex="1" parent="200">
                    <mxGeometry y="80" width="340" height="30" as="geometry"/>
                </mxCell>
                <mxCell id="208" value="" style="shape=partialRectangle;overflow=hidden;connectable=0;fillColor=none;top=0;left=0;bottom=0;right=0;" vertex="1" parent="207">
                    <mxGeometry width="30" height="30" as="geometry">
                        <mxRectangle width="30" height="30" as="alternateBounds"/>
                    </mxGeometry>
                </mxCell>
                <mxCell id="209" value="project_title TEXT NOT NULL" style="shape=partialRectangle;overflow=hidden;connectable=0;fillColor=none;top=0;left=0;bottom=0;right=0;align=left;spacingLeft=6;" vertex="1" parent="207">
                    <mxGeometry x="30" width="310" height="30" as="geometry">
                        <mxRectangle width="310" height="30" as="alternateBounds"/>
                    </mxGeometry>
                </mxCell>
                <mxCell id="210" value="" style="shape=partialRectangle;collapsible=0;dropTarget=0;pointerEvents=0;fillColor=none;points=[[0,0.5],[1,0.5]];portConstraint=eastwest;top=0;left=0;right=0;bottom=0;" vertex="1" parent="200">
                    <mxGeometry y="110" width="340" height="30" as="geometry"/>
                </mxCell>
                <mxCell id="211" value="" style="shape=partialRectangle;overflow=hidden;connectable=0;fillColor=none;top=0;left=0;bottom=0;right=0;" vertex="1" parent="210">
                    <mxGeometry width="30" height="30" as="geometry">
                        <mxRectangle width="30" height="30" as="alternateBounds"/>
                    </mxGeometry>
                </mxCell>
                <mxCell id="212" value="project_desc TEXT NOT NULL" style="shape=partialRectangle;overflow=hidden;connectable=0;fillColor=none;top=0;left=0;bottom=0;right=0;align=left;spacingLeft=6;" vertex="1" parent="210">
                    <mxGeometry x="30" width="310" height="30" as="geometry">
                        <mxRectangle width="310" height="30" as="alternateBounds"/>
                    </mxGeometry>
                </mxCell>
                <mxCell id="213" value="" style="shape=partialRectangle;collapsible=0;dropTarget=0;pointerEvents=0;fillColor=none;points=[[0,0.5],[1,0.5]];portConstraint=eastwest;top=0;left=0;right=0;bottom=0;" vertex="1" parent="200">
                    <mxGeometry y="140" width="340" height="30" as="geometry"/>
                </mxCell>
                <mxCell id="214" value="" style="shape=partialRectangle;overflow=hidden;connectable=0;fillColor=none;top=0;left=0;bottom=0;right=0;" vertex="1" parent="213">
                    <mxGeometry width="30" height="30" as="geometry">
                        <mxRectangle width="30" height="30" as="alternateBounds"/>
                    </mxGeometry>
                </mxCell>
                <mxCell id="215" value="ai_tagged_skill TEXT NOT NULL" style="shape=partialRectangle;overflow=hidden;connectable=0;fillColor=none;top=0;left=0;bottom=0;right=0;align=left;spacingLeft=6;" vertex="1" parent="213">
                    <mxGeometry x="30" width="310" height="30" as="geometry">
                        <mxRectangle width="310" height="30" as="alternateBounds"/>
                    </mxGeometry>
                </mxCell>
                <mxCell id="216" style="edgeStyle=none;html=1;entryX=0;entryY=0.5;entryDx=0;entryDy=0;startArrow=ERmany;startFill=0;endArrow=baseDash;endFill=0;" edge="1" parent="200" source="200" target="201">
                    <mxGeometry relative="1" as="geometry"/>
                </mxCell>
                <mxCell id="217" value="" style="shape=partialRectangle;collapsible=0;dropTarget=0;pointerEvents=0;fillColor=none;points=[[0,0.5],[1,0.5]];portConstraint=eastwest;top=0;left=0;right=0;bottom=0;" vertex="1" parent="200">
                    <mxGeometry y="170" width="340" height="30" as="geometry"/>
                </mxCell>
                <mxCell id="218" value="" style="shape=partialRectangle;overflow=hidden;connectable=0;fillColor=none;top=0;left=0;bottom=0;right=0;" vertex="1" parent="217">
                    <mxGeometry width="30" height="30" as="geometry">
                        <mxRectangle width="30" height="30" as="alternateBounds"/>
                    </mxGeometry>
                </mxCell>
                <mxCell id="219" value="external_link TEXT NOT NULL" style="shape=partialRectangle;overflow=hidden;connectable=0;fillColor=none;top=0;left=0;bottom=0;right=0;align=left;spacingLeft=6;" vertex="1" parent="217">
                    <mxGeometry x="30" width="310" height="30" as="geometry">
                        <mxRectangle width="310" height="30" as="alternateBounds"/>
                    </mxGeometry>
                </mxCell>
            </root>
        </mxGraphModel>
    </diagram>
</mxfile>